<svg width="13" height="18" viewBox="0 0 13 18" fill="none" xmlns="http://www.w3.org/2000/svg">
<g clip-path="url(#clip0_0_141)">
<path d="M5.67734 0.102417C2.59387 0.102417 0.0964966 4.08631 0.0964966 8.99995C0.0964966 13.9136 2.59623 17.8975 5.67734 17.8975H7.32264C10.4061 17.8975 12.9035 13.9136 12.9035 8.99995C12.9035 4.08631 10.4061 0.102417 7.32264 0.102417H5.67734Z" fill="url(#paint0_linear_0_141)"/>
<path d="M7.32265 18H5.67735C2.5468 18 0 13.9611 0 9C0 4.03888 2.5468 0 5.67735 0H7.32265C10.4532 0 13 4.03638 13 9C13 13.9636 10.4532 18 7.32265 18ZM5.67735 0.202444C2.65272 0.202444 0.190657 4.14885 0.190657 9C0.190657 13.8512 2.65037 17.7976 5.67735 17.7976H7.32265C10.3473 17.7976 12.8093 13.8512 12.8093 9C12.8093 4.14885 10.3473 0.202444 7.32265 0.202444H5.67735Z" fill="#D68D1A"/>
<path d="M5.67734 17.8975C8.75956 17.8975 11.2582 13.9139 11.2582 8.99995C11.2582 4.08598 8.75956 0.102417 5.67734 0.102417C2.59513 0.102417 0.0964966 4.08598 0.0964966 8.99995C0.0964966 13.9139 2.59513 17.8975 5.67734 17.8975Z" fill="url(#paint1_linear_0_141)"/>
<path d="M5.67735 18C2.5468 18 0 13.9611 0 9C0 4.03888 2.5468 0 5.67735 0C8.80789 0 11.3547 4.03638 11.3547 9C11.3547 13.9636 8.80789 18 5.67735 18ZM5.67735 0.202444C2.65272 0.202444 0.190657 4.14885 0.190657 9C0.190657 13.8512 2.65037 17.7976 5.67735 17.7976C8.70433 17.7976 11.164 13.8512 11.164 9C11.164 4.14885 8.70197 0.202444 5.67735 0.202444Z" fill="#FFED8B"/>
<path d="M5.21129 8.88504C4.16385 6.35074 3.38945 3.59901 3.46007 0.832275C1.48053 2.1994 0.0964966 5.34102 0.0964966 9.00001C0.0964966 13.9136 2.59623 17.8975 5.67734 17.8975C7.14611 17.8975 8.48071 16.9928 9.47636 15.5157C7.62864 13.6837 6.19988 11.2844 5.20894 8.88504H5.21129Z" fill="url(#paint2_linear_0_141)"/>
<path d="M0.842651 8.99997C0.842651 13.1488 2.9799 16.5104 5.61614 16.5104C6.6118 16.5104 7.53684 16.0305 8.30182 15.2082C7.64041 15.8206 6.87072 16.1705 6.0516 16.1705C3.56599 16.1705 1.5535 12.9589 1.5535 8.99997C1.5535 5.04107 3.56599 1.82697 6.04924 1.82697C6.87072 1.82697 7.63805 2.17937 8.30182 2.7917C7.53684 1.96943 6.6118 1.48706 5.61379 1.48706C2.97754 1.48956 0.842651 4.85113 0.842651 8.99997Z" fill="#AE4511"/>
<path d="M5.67737 16.5055C5.67737 16.5055 5.75034 16.498 5.88686 16.4855C5.95512 16.478 6.03985 16.4705 6.13871 16.4605C6.23522 16.443 6.34585 16.408 6.46824 16.378C6.59299 16.353 6.72481 16.2955 6.86603 16.233C6.93665 16.2006 7.01197 16.1731 7.08494 16.1356C7.15555 16.0931 7.23087 16.0481 7.30855 16.0006C7.61925 15.8207 7.92759 15.5482 8.24065 15.2308C8.38894 15.0634 8.53958 14.8834 8.68316 14.6885C8.81733 14.486 8.96797 14.2836 9.08801 14.0511C9.35635 13.6038 9.55642 13.0864 9.75414 12.5516C9.92361 12.0042 10.0837 11.4294 10.1637 10.8295C10.2649 10.2347 10.2932 9.61238 10.3049 9.00505C10.2932 8.38272 10.2649 7.77039 10.1637 7.17556C10.0813 6.57572 9.92126 6.00088 9.75414 5.45354C9.55642 4.91868 9.35399 4.40133 9.08801 3.95395C8.97032 3.72152 8.81733 3.51907 8.68316 3.31663C8.53958 3.12168 8.38894 2.94173 8.24065 2.77428C8.16062 2.6968 8.08294 2.61932 8.00762 2.54434C7.96996 2.50685 7.9323 2.46936 7.89464 2.43437C7.85463 2.40188 7.81461 2.36939 7.7746 2.3394C7.61689 2.21194 7.4686 2.08947 7.3109 2.00449C7.23323 1.95701 7.16026 1.91202 7.08729 1.86953C7.01197 1.83204 6.93665 1.80455 6.86839 1.77206C6.72716 1.70958 6.5977 1.65209 6.4706 1.6271C6.34585 1.59711 6.23757 1.56212 6.14107 1.54462C6.04221 1.53462 5.95747 1.52713 5.89156 1.51963C5.75504 1.50713 5.68208 1.49963 5.68208 1.49963C5.68208 1.49963 5.75504 1.50463 5.89156 1.51213C5.95982 1.51713 6.04456 1.52213 6.14342 1.52713C6.24228 1.54212 6.35291 1.57211 6.47766 1.59961C6.60476 1.6196 6.73893 1.67459 6.88251 1.73207C6.95548 1.76206 7.03315 1.78705 7.10847 1.82204C7.18144 1.86453 7.25912 1.90702 7.33915 1.95201C7.66162 2.12196 7.98409 2.38939 8.30656 2.7093C8.45955 2.87675 8.61726 3.0567 8.7679 3.25165C8.90913 3.45659 9.06683 3.65903 9.19158 3.89147C9.47168 4.34134 9.68823 4.8612 9.89066 5.40605C10.0648 5.96089 10.232 6.54323 10.3167 7.15056C10.425 7.7554 10.4556 8.38522 10.472 9.00255C10.4556 9.63238 10.425 10.2547 10.3167 10.8595C10.2296 11.4694 10.0648 12.0492 9.89066 12.604C9.68823 13.1489 9.47168 13.6688 9.19158 14.1186C9.06683 14.3536 8.90913 14.556 8.7679 14.7585C8.61961 14.9559 8.45955 15.1333 8.30656 15.3008C7.98409 15.6207 7.66162 15.8881 7.33915 16.0581C7.25912 16.1031 7.1838 16.1456 7.10847 16.1881C7.03315 16.223 6.95548 16.2505 6.88251 16.278C6.73657 16.3355 6.60476 16.3905 6.47766 16.4105C6.35291 16.438 6.23992 16.468 6.14342 16.483C6.04456 16.488 5.95982 16.4955 5.89156 16.498C5.75504 16.5055 5.68208 16.5105 5.68208 16.5105L5.67737 16.5055Z" fill="#F4C738"/>
<path d="M11.35 8.9575C11.3123 8.80254 11.1146 8.79004 11.0793 8.9575C11.0887 8.91751 11.0016 9.08996 11.0228 9.03248C11.004 9.07996 10.9828 9.12995 10.9734 9.18244C10.9545 9.2974 10.9475 9.40237 10.9922 9.50984C11.0699 9.70729 11.3523 9.73228 11.4347 9.52234C11.5124 9.32739 11.4677 9.11995 11.3523 8.96L11.35 8.9575Z" fill="white"/>
</g>
<defs>
<linearGradient id="paint0_linear_0_141" x1="6.49881" y1="16.8153" x2="6.49881" y2="1.9744" gradientUnits="userSpaceOnUse">
<stop stop-color="#F3B80C"/>
<stop offset="0.16" stop-color="#FDCF16"/>
<stop offset="0.17" stop-color="#FED74C"/>
<stop offset="0.48" stop-color="#FFEDA2"/>
<stop offset="0.8" stop-color="#FFD31C"/>
<stop offset="1" stop-color="#EFB60C"/>
</linearGradient>
<linearGradient id="paint1_linear_0_141" x1="1.9607" y1="8.99995" x2="8.78906" y2="8.99995" gradientUnits="userSpaceOnUse">
<stop stop-color="#CB7B11"/>
<stop offset="1" stop-color="#E29A0A"/>
</linearGradient>
<linearGradient id="paint2_linear_0_141" x1="-8.25712" y1="9.99723" x2="8.31757" y2="9.27661" gradientUnits="userSpaceOnUse">
<stop offset="0.2" stop-color="#FFCF51"/>
<stop offset="1" stop-color="#FFCF00"/>
</linearGradient>
<clipPath id="clip0_0_141">
<rect width="13" height="18" fill="white"/>
</clipPath>
</defs>
</svg>
