<svg width="180" height="42" viewBox="0 0 180 42" fill="none" xmlns="http://www.w3.org/2000/svg">
<path d="M179 20C179 30.4934 170.493 39 160 39L89.7313 39L12.1802 39C9.31967 39 6.67484 37.4792 5.23579 35.0071C3.06461 31.277 4.22786 26.498 7.87045 24.1832L37.2314 5.52427C41.8812 2.56933 47.2764 1.00002 52.7857 1.00002L89.7313 1.00001L160 1.00001C170.493 1.00001 179 9.50659 179 20Z" fill="#3B197B" stroke="#C8501E" stroke-width="2"/>
<path d="M43.5119 18.9785C42.656 18.7314 42.0667 17.9479 42.0667 17.057V8.31884C42.0667 7.21427 41.1712 6.31884 40.0667 6.31884H39.1C37.9954 6.31884 37.1 5.42341 37.1 4.31884V4C37.1 2.89543 36.2046 2 35.1 2H32.1334H27.1667H24.2C23.0955 2 22.2 2.89543 22.2 4V4.31883C22.2 5.4234 21.3046 6.31884 20.2 6.31884H19.2334C18.1288 6.31884 17.2334 7.21427 17.2334 8.31884V17.057C17.2334 17.9479 16.6441 18.7314 15.7881 18.9785L9.62947 20.7565C8.42166 21.1052 7.83123 22.4686 8.40323 23.588L16.6764 39.7795C17.0183 40.4485 17.7062 40.8695 18.4574 40.8695H40.8426C41.5939 40.8695 42.2818 40.4485 42.6236 39.7795L50.8968 23.588C51.4688 22.4686 50.8784 21.1052 49.6706 20.7565L43.5119 18.9785ZM27.1667 12.9565C27.1667 14.0611 26.2713 14.9565 25.1667 14.9565H24.2C23.0955 14.9565 22.2 14.0611 22.2 12.9565V12.6377C22.2 11.5331 23.0955 10.6377 24.2 10.6377H25.1667C26.2713 10.6377 27.1667 11.5331 27.1667 12.6377V12.9565ZM37.1 12.9565C37.1 14.0611 36.2046 14.9565 35.1 14.9565H34.1334C33.0288 14.9565 32.1334 14.0611 32.1334 12.9565V12.6377C32.1334 11.5331 33.0288 10.6377 34.1334 10.6377H35.1C36.2046 10.6377 37.1 11.5331 37.1 12.6377V12.9565Z" fill="url(#paint0_linear_204_6)" stroke="url(#paint1_linear_204_6)" stroke-width="2"/>
<defs>
<linearGradient id="paint0_linear_204_6" x1="16.3284" y1="18.529" x2="47.8336" y2="38.289" gradientUnits="userSpaceOnUse">
<stop stop-color="#EE7F39"/>
<stop offset="1" stop-color="#B53811"/>
</linearGradient>
<linearGradient id="paint1_linear_204_6" x1="29.9462" y1="18.529" x2="38.191" y2="37.8317" gradientUnits="userSpaceOnUse">
<stop stop-color="#EE7F39"/>
<stop offset="1" stop-color="#FFD391"/>
</linearGradient>
</defs>
</svg>
