<svg width="319" height="241" viewBox="0 0 319 241" fill="none" xmlns="http://www.w3.org/2000/svg">
<path d="M91 240.5V187.5H255.5" stroke="white" stroke-width="0.5"/>
<path d="M105 240V198H255.5" stroke="white" stroke-width="0.5"/>
<path d="M167 154C159.795 145.989 140 129.928 140 129.928L163.797 117L167 154Z" fill="url(#paint0_linear_202_4)"/>
<circle cx="164" cy="149" r="6.5" fill="#DA0202" stroke="white"/>
<rect x="15.75" y="90.1226" width="11.5" height="15.5" rx="1.75" transform="rotate(90 15.75 90.1226)" stroke="white" stroke-width="0.5"/>
<rect x="15.75" y="104.123" width="11.5" height="15.5" rx="1.75" transform="rotate(90 15.75 104.123)" stroke="white" stroke-width="0.5"/>
<rect x="15.75" y="118.123" width="11.5" height="15.5" rx="1.75" transform="rotate(90 15.75 118.123)" stroke="white" stroke-width="0.5"/>
<rect x="43.75" y="76.1226" width="11.5" height="14.5" rx="1.75" transform="rotate(90 43.75 76.1226)" stroke="white" stroke-width="0.5"/>
<rect x="15.75" y="76.1226" width="11.5" height="15.5" rx="1.75" transform="rotate(90 15.75 76.1226)" stroke="white" stroke-width="0.5"/>
<rect x="43.75" y="62.1226" width="11.5" height="14.5" rx="1.75" transform="rotate(90 43.75 62.1226)" stroke="white" stroke-width="0.5"/>
<rect x="15.75" y="62.1226" width="11.5" height="15.5" rx="1.75" transform="rotate(90 15.75 62.1226)" stroke="white" stroke-width="0.5"/>
<rect x="43.75" y="49.1226" width="10.5" height="14.5" rx="1.75" transform="rotate(90 43.75 49.1226)" stroke="white" stroke-width="0.5"/>
<rect x="15.75" y="49.1226" width="10.5" height="15.5" rx="1.75" transform="rotate(90 15.75 49.1226)" stroke="white" stroke-width="0.5"/>
<rect x="15.75" y="35.1226" width="11.5" height="15.5" rx="1.75" transform="rotate(90 15.75 35.1226)" stroke="white" stroke-width="0.5"/>
<rect x="19.25" y="35.1226" width="6.5" height="94.5" rx="1.75" stroke="white" stroke-width="0.5"/>
<rect x="43.75" y="89.1226" width="11.5" height="14.5" rx="1.75" transform="rotate(90 43.75 89.1226)" stroke="white" stroke-width="0.5"/>
<rect x="43.75" y="103.123" width="11.5" height="14.5" rx="1.75" transform="rotate(90 43.75 103.123)" stroke="white" stroke-width="0.5"/>
<rect x="43.75" y="117.123" width="11.5" height="14.5" rx="1.75" transform="rotate(90 43.75 117.123)" stroke="white" stroke-width="0.5"/>
<rect x="51.75" y="205.75" width="11.5" height="15.5" rx="1.75" transform="rotate(180 51.75 205.75)" stroke="white" stroke-width="0.5"/>
<rect x="74.75" y="171.25" width="11.5" height="15.5" rx="1.75" transform="rotate(90 74.75 171.25)" stroke="white" stroke-width="0.5"/>
<rect x="70.4453" y="193.314" width="11.5" height="15.5" rx="1.75" transform="rotate(135 70.4453 193.314)" stroke="white" stroke-width="0.5"/>
<rect x="61.1347" y="153.354" width="11.5" height="15.5" rx="1.75" transform="rotate(44.0662 61.1347 153.354)" stroke="white" stroke-width="0.5"/>
<rect x="39.25" y="149.25" width="11.5" height="15.5" rx="1.75" stroke="white" stroke-width="0.5"/>
<rect x="21.3535" y="162.393" width="11.5" height="15.5" rx="1.75" transform="rotate(-44.3562 21.3535 162.393)" stroke="white" stroke-width="0.5"/>
<rect x="16.25" y="184.75" width="11.5" height="15.5" rx="1.75" transform="rotate(-90 16.25 184.75)" stroke="white" stroke-width="0.5"/>
<rect x="28.4863" y="203.445" width="11.5" height="15.5" rx="1.75" transform="rotate(-135 28.4863 203.445)" stroke="white" stroke-width="0.5"/>
<circle cx="45.5" cy="178.5" r="8.25" stroke="white" stroke-width="0.5"/>
<rect x="202.75" y="104.75" width="11.5" height="15.5" rx="1.75" transform="rotate(180 202.75 104.75)" stroke="white" stroke-width="0.5"/>
<rect x="225.75" y="70.25" width="11.5" height="15.5" rx="1.75" transform="rotate(90 225.75 70.25)" stroke="white" stroke-width="0.5"/>
<rect x="221.445" y="92.3137" width="11.5" height="15.5" rx="1.75" transform="rotate(135 221.445 92.3137)" stroke="white" stroke-width="0.5"/>
<rect x="212.135" y="52.3535" width="11.5" height="15.5" rx="1.75" transform="rotate(44.0662 212.135 52.3535)" stroke="white" stroke-width="0.5"/>
<rect x="190.25" y="48.25" width="11.5" height="15.5" rx="1.75" stroke="white" stroke-width="0.5"/>
<rect x="172.354" y="61.3934" width="11.5" height="15.5" rx="1.75" transform="rotate(-44.3562 172.354 61.3934)" stroke="white" stroke-width="0.5"/>
<rect x="167.25" y="83.75" width="11.5" height="15.5" rx="1.75" transform="rotate(-90 167.25 83.75)" stroke="white" stroke-width="0.5"/>
<rect x="179.486" y="102.445" width="11.5" height="15.5" rx="1.75" transform="rotate(-135 179.486 102.445)" stroke="white" stroke-width="0.5"/>
<circle cx="196.5" cy="77.5" r="8.25" stroke="white" stroke-width="0.5"/>
<path d="M139.04 34.52C139.461 36.3197 139.75 38.1717 139.894 40.0647L139.644 40.0836C139.714 41.0039 139.75 41.934 139.75 42.8726C139.75 43.8111 139.714 44.7412 139.644 45.6615L139.894 45.6804C139.75 47.5735 139.461 49.4255 139.04 51.2251L138.796 51.1681C138.368 52.9962 137.801 54.7699 137.108 56.4772L137.34 56.5713C136.631 58.3171 135.79 59.994 134.831 61.5893L134.617 61.4605C133.655 63.0599 132.573 64.5768 131.383 65.9981L131.574 66.1585C130.371 67.5961 129.058 68.9367 127.649 70.1669L127.484 69.9785C126.085 71.2001 124.59 72.3121 123.013 73.3013L123.145 73.5131C121.565 74.5041 119.903 75.3729 118.17 76.1065L118.073 75.8763C116.374 76.5957 114.608 77.1842 112.787 77.6292L112.846 77.872C111.049 78.3111 109.199 78.6115 107.308 78.7616L107.288 78.5124C106.368 78.5854 105.438 78.6226 104.5 78.6226C103.562 78.6226 102.632 78.5854 101.712 78.5124L101.692 78.7616C99.8008 78.6115 97.9507 78.3111 96.1539 77.872L96.2133 77.6292C94.392 77.1842 92.6259 76.5957 90.9271 75.8763L90.8296 76.1065C89.0974 75.3729 87.4348 74.5041 85.8546 73.5131L85.9874 73.3013C84.4099 72.3121 82.915 71.2001 81.5157 69.9785L81.3513 70.1669C79.942 68.9367 78.6291 67.5961 77.4256 66.1585L77.6173 65.9981C76.4274 64.5768 75.3452 63.0599 74.3834 61.4605L74.1691 61.5893C73.2098 59.994 72.3694 58.3171 71.6605 56.5713L71.8921 56.4772C71.1988 54.7699 70.6321 52.9962 70.2038 51.1681L69.9604 51.2251C69.5388 49.4255 69.2504 47.5735 69.1064 45.6804L69.3557 45.6615C69.2857 44.7412 69.25 43.8111 69.25 42.8726C69.25 41.934 69.2857 41.0039 69.3557 40.0836L69.1064 40.0647C69.2504 38.1717 69.5388 36.3197 69.9604 34.52L70.2038 34.577C70.6321 32.7489 71.1988 30.9752 71.8921 29.2679L71.6605 29.1738C72.3694 27.428 73.2098 25.7511 74.1691 24.1558L74.3834 24.2846C75.3452 22.6852 76.4274 21.1683 77.6173 19.7471L77.4256 19.5866C78.6291 18.149 79.942 16.8084 81.3513 15.5782L81.5157 15.7666C82.915 14.545 84.4099 13.4331 85.9874 12.4438L85.8546 12.232C87.4348 11.241 89.0974 10.3722 90.8296 9.63863L90.9271 9.86883C92.6259 9.14939 94.392 8.56095 96.2133 8.11593L96.154 7.87307C97.9507 7.43403 99.8008 7.13358 101.692 6.98349L101.712 7.23271C102.632 7.15974 103.562 7.12256 104.5 7.12256C105.438 7.12256 106.368 7.15974 107.288 7.23271L107.308 6.98349C109.199 7.13358 111.049 7.43403 112.846 7.87307L112.787 8.11593C114.608 8.56095 116.374 9.14939 118.073 9.86883L118.17 9.63863C119.903 10.3722 121.565 11.241 123.145 12.232L123.013 12.4438C124.59 13.4331 126.085 14.545 127.484 15.7666L127.649 15.5782C129.058 16.8084 130.371 18.149 131.574 19.5866L131.383 19.7471C132.573 21.1683 133.655 22.6852 134.617 24.2846L134.831 24.1558C135.79 25.7511 136.631 27.428 137.34 29.1738L137.108 29.2679C137.801 30.9752 138.368 32.7489 138.796 34.577L139.04 34.52Z" stroke="white" stroke-width="0.5" stroke-dasharray="6 6"/>
<path d="M122.591 33.9899C123.203 35.5244 123.63 37.1567 123.843 38.8576L123.595 38.8888C123.697 39.7018 123.75 40.5308 123.75 41.3726C123.75 42.2143 123.697 43.0433 123.595 43.8563L123.843 43.8875C123.63 45.5884 123.203 47.2208 122.591 48.7552L122.359 48.6626C121.737 50.2206 120.923 51.6764 119.946 52.9985L120.147 53.1471C119.143 54.5043 117.971 55.7226 116.661 56.7688L116.505 56.5735C115.213 57.606 113.786 58.4685 112.255 59.1285L112.354 59.358C110.832 60.0147 109.208 60.4736 107.514 60.7034L107.48 60.4557C106.669 60.5657 105.841 60.6226 105 60.6226C104.159 60.6226 103.331 60.5657 102.52 60.4557L102.486 60.7034C100.792 60.4736 99.1685 60.0147 97.6457 59.358L97.7447 59.1285C96.2143 58.4685 94.787 57.606 93.4946 56.5735L93.3385 56.7688C92.0291 55.7226 90.8567 54.5043 89.8534 53.1471L90.0545 52.9985C89.0772 51.6764 88.2625 50.2206 87.6411 48.6626L87.4089 48.7552C86.7969 47.2207 86.37 45.5884 86.1566 43.8875L86.4046 43.8563C86.3026 43.0433 86.25 42.2143 86.25 41.3726C86.25 40.5308 86.3026 39.7018 86.4046 38.8888L86.1566 38.8576C86.37 37.1567 86.7969 35.5244 87.4089 33.9899L87.6411 34.0825C88.2625 32.5245 89.0772 31.0688 90.0545 29.7466L89.8534 29.598C90.8567 28.2408 92.0291 27.0225 93.3385 25.9763L93.4946 26.1717C94.787 25.1391 96.2143 24.2766 97.7447 23.6166L97.6457 23.3871C99.1685 22.7304 100.792 22.2715 102.486 22.0417L102.52 22.2894C103.331 22.1794 104.159 22.1226 105 22.1226C105.841 22.1226 106.669 22.1794 107.48 22.2894L107.514 22.0417C109.208 22.2715 110.832 22.7304 112.354 23.3871L112.255 23.6166C113.786 24.2766 115.213 25.1391 116.505 26.1717L116.661 25.9763C117.971 27.0225 119.143 28.2408 120.147 29.598L119.946 29.7466C120.923 31.0688 121.737 32.5245 122.359 34.0825L122.591 33.9899Z" stroke="white" stroke-width="0.5" stroke-dasharray="6 6"/>
<path d="M50 69.3028C50 30.1777 75.6669 -3.07863 117.875 1.48609C158.372 1.48609 142.742 43.321 179.477 38.6548C210.927 34.6597 219.28 7.38878 253.056 1.48607C336.332 -4.38281 383.674 45.1756 417.326 27.5693C482.92 -6.74793 511.741 46.8959 573.041 16.4839C603.271 1.48604 652.831 31.0103 661.45 78.4319C670.576 128.642 638.358 181.795 592.434 152.77C522.276 108.428 542.81 160.595 487.483 143.64C441.087 129.423 351.732 150.161 298.686 128.642C245.641 107.124 217.692 107.124 201.151 143.64C184.61 180.157 116.734 176.897 84.793 152.77C52.8516 128.643 50 108.428 50 69.3028Z" stroke="white" stroke-width="0.5" stroke-dasharray="1 1"/>
<rect x="43.75" y="35.25" width="11.5" height="14.5" rx="1.75" transform="rotate(90 43.75 35.25)" stroke="white" stroke-width="0.5"/>
<defs>
<linearGradient id="paint0_linear_202_4" x1="152.979" y1="123.75" x2="169.601" y2="155.518" gradientUnits="userSpaceOnUse">
<stop stop-color="#FF0000" stop-opacity="0"/>
<stop offset="0.921775" stop-color="#DA0202"/>
<stop offset="0.921875" stop-color="#FF0000"/>
</linearGradient>
</defs>
</svg>
