<svg xmlns="http://www.w3.org/2000/svg" width="331" height="168" viewBox="0 0 331 168" fill="none">
  <path d="M311 153.5H305H252.5H158.5L45.1402 157.426C43.7175 157.475 42.3041 157.676 40.924 158.026L5.57762 166.974C4.28925 167.3 2.92431 166.924 1.98455 165.985C0.806651 164.807 0.540842 162.996 1.3306 161.529L3.5 157.5L13.9113 139.08C15.6082 136.078 16.5 132.688 16.5 129.239V20C16.5 8.9543 25.4543 0 36.5 0H48.5H122.5H181.5H311C322.046 0 331 8.9543 331 20V133.5C331 144.546 322.046 153.5 311 153.5Z" fill="url(#paint0_linear_0_7)"/>
  <defs>
    <linearGradient id="paint0_linear_0_7" x1="100.5" y1="147" x2="309.5" y2="278.5" gradientUnits="userSpaceOnUse">
      <stop stop-color="#7339BB"/>
      <stop offset="1" stop-color="#1A0653"/>
    </linearGradient>
  </defs>
</svg>