<svg width="395" height="156" viewBox="0 0 395 156" fill="none" xmlns="http://www.w3.org/2000/svg">
<path d="M390.063 85V112.5C390.063 123.546 381.109 132.5 370.063 132.5H301H210H132.016C127.474 132.5 123.082 134.059 119.218 136.446C110.593 141.774 92.9893 150.651 71 151C49.1933 151.346 33.6168 143.545 26.0953 138.711C22.6378 136.489 20.4956 132.854 19.5554 128.853L18.1748 122.978L5.66258 76.3685C3.01129 66.4922 8.23713 56.2067 17.7772 52.5246L140.024 5.34154C142.322 4.45481 144.763 4 147.226 4H207.5H370.063C381.109 4 390.063 12.9543 390.063 24V45.5V85Z" fill="url(#paint0_linear_211_9)" stroke="url(#paint1_linear_211_9)" stroke-width="8"/>
<g clip-path="url(#clip0_211_9)">
<path style="mix-blend-mode:multiply" d="M126 140.992C126 134.359 101.817 128.984 71.9936 128.984C42.1699 128.984 18 134.359 18 140.992C18 147.625 42.1827 153 71.9936 153C101.804 153 126 147.625 126 140.992Z" fill="url(#paint2_radial_211_9)"/>
<path d="M84.8944 84.4538C82.8514 83.607 79.806 84.7745 78.958 82.0804C78.5853 80.8873 78.7652 79.4504 78.7652 78.1675C78.7652 75.6016 79.2149 73.4848 80.063 71.1371L72.8159 70.5983C72.7902 70.5213 72.7774 70.4443 72.7517 70.3545L72.1991 70.393C72.0449 70.4058 71.865 70.4186 71.6851 70.4315H71.5438C71.441 70.4443 71.3639 70.4571 71.2997 70.4571H71.184H71.0812C71.017 70.4571 70.9142 70.4571 70.7985 70.4315H70.67C70.503 70.4058 70.3103 70.393 70.1561 70.3802L69.6035 70.3417C69.5778 70.4186 69.565 70.4956 69.5521 70.5854L62.305 71.1243C63.1531 73.472 63.6157 75.5888 63.6157 78.1546C63.6157 79.4376 63.7956 80.8616 63.4229 82.0675C62.5749 84.7617 59.5295 83.5942 57.4865 84.4409C54.8652 85.5314 54.7495 88.8413 54.8009 91.3174C54.8909 95.2559 56.7926 99.3099 58.7329 102.646C58.7971 102.761 58.8742 102.889 58.9513 103.005C60.9173 106.34 63.1274 109.509 65.2476 112.768C66.2627 114.307 67.3677 116.232 68.7169 117.502C69.1024 117.874 69.4622 118.092 69.8348 118.233C69.8348 118.284 69.8348 118.348 69.8348 118.4C70.3488 118.425 70.7857 118.451 71.1969 118.451C71.6081 118.451 72.0449 118.425 72.5589 118.4C72.5589 118.336 72.5589 118.284 72.5461 118.233C72.9187 118.092 73.2785 117.874 73.664 117.502C75.0132 116.244 76.1311 114.32 77.1333 112.768C79.2535 109.496 81.4636 106.34 83.4296 103.005C83.5067 102.876 83.5709 102.761 83.648 102.646C85.5883 99.3099 87.49 95.2559 87.58 91.3174C87.6314 88.8413 87.5157 85.5314 84.8944 84.4409V84.4538Z" fill="#F2B3B2"/>
<path style="mix-blend-mode:multiply" d="M84.8944 84.4538C82.8514 83.607 79.806 84.7745 78.958 82.0804C78.5853 80.8873 78.7652 79.4504 78.7652 78.1675C78.7652 75.6016 79.2149 73.4848 80.063 71.1371L72.8159 70.5983C72.7902 70.5213 72.7774 70.4443 72.7517 70.3545L72.1991 70.393C72.0449 70.4058 71.865 70.4186 71.6851 70.4315H71.5438C71.441 70.4443 71.3639 70.4571 71.2997 70.4571H71.184H71.0812C71.017 70.4571 70.9142 70.4571 70.7985 70.4315H70.67C70.503 70.4058 70.3103 70.393 70.1561 70.3802L69.6035 70.3417C69.5778 70.4186 69.565 70.4956 69.5521 70.5854L62.305 71.1243C63.1531 73.472 63.6157 75.5888 63.6157 78.1546C63.6157 79.4376 63.7956 80.8616 63.4229 82.0675C62.5749 84.7617 59.5295 83.5942 57.4865 84.4409C54.8652 85.5314 54.7495 88.8413 54.8009 91.3174C54.8909 95.2559 56.7926 99.3099 58.7329 102.646C58.7971 102.761 58.8742 102.889 58.9513 103.005C60.9173 106.34 63.1274 109.509 65.2476 112.768C66.2627 114.307 67.3677 116.232 68.7169 117.502C69.1024 117.874 69.4622 118.092 69.8348 118.233C69.8348 118.284 69.8348 118.348 69.8348 118.4C70.3488 118.425 70.7857 118.451 71.1969 118.451C71.6081 118.451 72.0449 118.425 72.5589 118.4C72.5589 118.336 72.5589 118.284 72.5461 118.233C72.9187 118.092 73.2785 117.874 73.664 117.502C75.0132 116.244 76.1311 114.32 77.1333 112.768C79.2535 109.496 81.4636 106.34 83.4296 103.005C83.5067 102.876 83.5709 102.761 83.648 102.646C85.5883 99.3099 87.49 95.2559 87.58 91.3174C87.6314 88.8413 87.5157 85.5314 84.8944 84.4409V84.4538Z" fill="url(#paint3_radial_211_9)"/>
<path style="mix-blend-mode:multiply" d="M87.58 91.3302C87.49 95.2687 85.5883 99.3227 83.648 102.658C83.5709 102.787 83.5067 102.902 83.4296 103.018C81.4636 106.366 79.2535 109.522 77.1333 112.781C76.1311 114.32 75.026 116.257 73.664 117.514C73.2785 117.874 72.9187 118.092 72.5461 118.246C72.5461 118.31 72.5461 118.361 72.5461 118.413C72.0192 118.451 71.5824 118.477 71.184 118.477C70.7857 118.477 70.336 118.451 69.822 118.413C69.822 118.361 69.822 118.31 69.822 118.246C69.4622 118.092 69.0896 117.874 68.7041 117.514C67.342 116.257 66.237 114.32 65.2347 112.781C63.1017 109.509 60.9044 106.353 58.9385 103.018C58.8614 102.889 58.7843 102.774 58.72 102.658C56.7797 99.3227 54.878 95.2687 54.7881 91.3302V91.189C54.7495 88.7387 54.9037 85.5185 57.4736 84.4537C59.5167 83.607 62.562 84.7745 63.4101 82.0932C63.7956 80.8872 63.6157 79.4632 63.6157 78.1803C63.6157 76.2559 63.3587 74.5753 62.8704 72.869C62.7034 72.2917 62.5106 71.7272 62.305 71.1499L69.5393 70.611C69.565 70.5341 69.5778 70.4571 69.6035 70.3801L70.1432 70.4186C70.2974 70.4443 70.4902 70.4571 70.67 70.4699H70.7985C70.9142 70.4828 71.0041 70.4828 71.0684 70.4956H71.1712H71.2868C71.3511 70.4956 71.4282 70.4956 71.5438 70.4828H71.6852C71.8522 70.4571 72.0321 70.4443 72.1863 70.4314L72.7388 70.393C72.7645 70.4828 72.7774 70.5597 72.8031 70.6239L80.0373 71.1627C79.2921 73.2025 78.8552 75.0756 78.7524 77.2309C78.7395 77.5516 78.7395 77.8724 78.7395 78.1931C78.7395 79.476 78.5468 80.9 78.9323 82.106C79.7803 84.8001 82.8257 83.6327 84.8687 84.4665C86.9375 85.3261 87.4515 87.5712 87.5543 89.7009C87.58 90.2653 87.58 90.8298 87.5543 91.343L87.58 91.3302Z" fill="url(#paint4_radial_211_9)"/>
<g style="mix-blend-mode:overlay" opacity="0.6">
<path d="M66.6225 95.7692C63.9498 96.1925 61.0587 93.755 58.7586 92.6902C57.615 92.1513 56.1758 91.7151 54.8009 91.1891C54.7624 88.7388 54.9166 85.5187 57.4865 84.4538C59.5296 83.6071 62.5749 84.7746 63.423 82.0933C63.8084 80.8873 63.6285 79.4633 63.6285 78.1804C63.6285 76.256 63.3716 74.5754 62.8833 72.8691C66.7253 72.0095 74.5121 74.1135 77.0948 73.254L78.1356 77.4234C80.5256 83.4916 68.8326 82.1574 65.0163 84.0946C56.3943 88.4822 65.8001 90.2013 66.6225 95.7692Z" fill="#1D1D1B"/>
</g>
<g style="mix-blend-mode:overlay" opacity="0.3">
<path d="M87.5671 89.6881C87.2844 89.9318 87.0275 90.1243 86.8219 90.2654C83.1726 92.6773 78.354 93.7549 74.088 94.4477C75.7456 92.0871 77.0434 88.6746 76.6965 85.8009C76.3752 85.7239 76.0925 85.7752 75.7713 85.6854C74.5763 83.6712 75.2059 80.5666 75.3601 79.1425L78.7652 77.2181C78.7524 77.5389 78.7524 77.8596 78.7524 78.1803C78.7524 79.4632 78.5596 80.8873 78.9451 82.0932C79.7932 84.7873 82.8385 83.6199 84.8816 84.4538C86.9504 85.3133 87.4643 87.5584 87.5671 89.6881Z" fill="white"/>
</g>
<path d="M114.153 92.5105C113.395 91.2019 112.521 90.0217 111.493 89.0723C106.058 84.0689 98.0652 88.2769 92.0645 85.0439L89.456 86.1601V92.7543L81.1552 93.075L71.1326 97.5267L69.9248 96.6672C64.1939 95.6665 58.4502 92.1 52.7193 90.7401L52.9121 86.1344L50.355 85.0439C44.3543 88.2769 36.3619 84.0689 30.9266 89.0723C29.8986 90.0088 29.0377 91.1891 28.2667 92.5105C23.6666 104.519 21.9833 117.643 21.7906 130.434C24.2191 135.475 29.1276 139.401 34.6272 139.658C34.7814 139.17 35.6038 139.055 36.2077 139.491C40.4866 142.544 50.7019 146.444 54.0043 147.432C58.977 148.92 63.076 149.164 67.6376 149.305C67.6376 149.395 67.6376 149.472 67.6376 149.549C68.884 149.485 70.0661 149.434 71.2097 149.408C72.3533 149.446 73.5355 149.485 74.7819 149.549C74.7819 149.472 74.7819 149.382 74.7819 149.305C79.3435 149.177 83.4425 148.92 88.4152 147.432C91.7175 146.444 101.933 142.544 106.212 139.491C106.816 139.055 107.638 139.157 107.792 139.658C113.292 139.401 118.213 135.475 120.629 130.434C120.423 117.643 118.753 104.519 114.153 92.5105Z" fill="white"/>
<path style="mix-blend-mode:multiply" d="M114.153 92.5105C113.395 91.2019 112.521 90.0217 111.493 89.0723C106.058 84.0689 98.0652 88.2769 92.0645 85.0439L89.456 86.1601V92.7543L81.1552 93.075L71.1326 97.5267L69.9248 96.6672C64.1939 95.6665 58.4502 92.1 52.7193 90.7401L52.9121 86.1344L50.355 85.0439C44.3543 88.2769 36.3619 84.0689 30.9266 89.0723C29.8986 90.0088 29.0377 91.1891 28.2667 92.5105C23.6666 104.519 21.9833 117.643 21.7906 130.434C24.2191 135.475 29.1276 139.401 34.6272 139.658C34.7814 139.17 35.6038 139.055 36.2077 139.491C40.4866 142.544 50.7019 146.444 54.0043 147.432C58.977 148.92 63.076 149.164 67.6376 149.305C67.6376 149.395 67.6376 149.472 67.6376 149.549C68.884 149.485 70.0661 149.434 71.2097 149.408C72.3533 149.446 73.5355 149.485 74.7819 149.549C74.7819 149.472 74.7819 149.382 74.7819 149.305C79.3435 149.177 83.4425 148.92 88.4152 147.432C91.7175 146.444 101.933 142.544 106.212 139.491C106.816 139.055 107.638 139.157 107.792 139.658C113.292 139.401 118.213 135.475 120.629 130.434C120.423 117.643 118.753 104.519 114.153 92.5105Z" fill="url(#paint5_radial_211_9)"/>
<g style="mix-blend-mode:multiply" opacity="0.2">
<path d="M93.0796 94.3579C91.422 92.2796 88.7365 91.0223 85.8453 89.9575C83.738 90.6888 81.0525 91.3174 78.444 92.1513C78.5083 93.8448 77.6088 95.4228 76.1697 96.308C79.1508 96.5774 82.4402 97.9116 85.2029 99.6949C87.1945 100.978 88.9164 102.492 90.06 104.005C90.6125 103.877 91.2164 103.852 91.8846 103.954C91.9874 103.967 92.0645 104.005 92.1544 104.018C92.9768 102.748 95.8808 100.901 96.0735 98.7968C95.9322 98.5916 93.6835 96.3336 93.0668 94.3451L93.0796 94.3579Z" fill="#1D1D1B"/>
</g>
<g style="mix-blend-mode:multiply" opacity="0.2">
<path d="M60.2234 91.7793C59.5552 92.5875 58.6429 93.1905 57.6021 93.3957C55.0322 93.9217 52.6936 92.2283 52.0897 89.7651C51.7556 88.4052 51.8327 87.1479 52.1796 85.9677C50.9589 86.5578 49.841 87.3275 48.8773 88.4308C47.7723 89.6753 46.4873 90.0473 45.3051 89.8164C43.5576 92.177 41.733 94.7556 40.3581 97.5011C40.8464 98.1425 41.1805 98.8995 41.3347 99.6949C44.0973 100.606 47.1041 102.274 48.8259 104.698C48.9159 104.673 48.993 104.647 49.0958 104.621C49.7639 104.48 50.355 104.493 50.9204 104.596C51.9997 103.03 53.6445 101.44 55.5847 100.08C59.8893 97.0392 65.5816 95.0892 69.3466 96.9109C69.4493 96.9622 69.5521 97.0264 69.6678 97.0905L69.3723 95.6793C67.1621 93.6908 63.6414 92.626 60.2234 91.7921V91.7793Z" fill="#1D1D1B"/>
</g>
<path style="mix-blend-mode:multiply" d="M114.153 92.5105C113.395 91.2019 112.521 90.0217 111.493 89.0723C106.058 84.0689 98.0652 88.2769 92.0645 85.0439L89.456 86.1601V92.7543L81.1552 93.075L71.1326 97.5267L69.9248 96.6672C64.1939 95.6665 58.4502 92.1 52.7193 90.7401L52.9121 86.1344L50.355 85.0439C44.3543 88.2769 36.3619 84.0689 30.9266 89.0723C29.8986 90.0088 29.0377 91.1891 28.2667 92.5105C23.6666 104.519 21.9833 117.643 21.7906 130.434C24.2191 135.475 29.1276 139.401 34.6272 139.658C34.7814 139.17 35.6038 139.055 36.2077 139.491C40.4866 142.544 50.7019 146.444 54.0043 147.432C58.977 148.92 63.076 149.164 67.6376 149.305C67.6376 149.395 67.6376 149.472 67.6376 149.549C68.884 149.485 70.0661 149.434 71.2097 149.408C72.3533 149.446 73.5355 149.485 74.7819 149.549C74.7819 149.472 74.7819 149.382 74.7819 149.305C79.3435 149.177 83.4425 148.92 88.4152 147.432C91.7175 146.444 101.933 142.544 106.212 139.491C106.816 139.055 107.638 139.157 107.792 139.658C113.292 139.401 118.213 135.475 120.629 130.434C120.423 117.643 118.753 104.519 114.153 92.5105Z" fill="url(#paint6_radial_211_9)"/>
<path style="mix-blend-mode:multiply" d="M120.629 130.434C120.513 130.677 120.385 130.921 120.256 131.165C117.815 135.706 113.318 139.183 108.281 139.619C108.126 139.645 107.959 139.658 107.792 139.671C107.638 139.183 106.829 139.068 106.225 139.504C106.083 139.594 105.955 139.696 105.814 139.799C104.67 140.556 103.205 141.364 101.586 142.159C96.8318 144.494 90.8182 146.727 88.4282 147.445C83.4555 148.933 79.3693 149.19 74.8078 149.318C74.8078 149.408 74.8078 149.485 74.7821 149.562C73.5357 149.498 72.3663 149.459 71.2099 149.421C70.0791 149.459 68.8841 149.498 67.6506 149.562C67.6377 149.485 67.6377 149.408 67.6377 149.318C63.0633 149.19 58.9772 148.933 54.0044 147.445C51.6144 146.739 45.6009 144.494 40.8465 142.159C39.0733 141.287 37.4671 140.402 36.2978 139.581C36.2721 139.555 36.2336 139.529 36.2079 139.517C35.6039 139.08 34.7944 139.196 34.6402 139.683C34.4732 139.683 34.3061 139.658 34.152 139.645C28.8451 139.17 24.155 135.334 21.8036 130.446C21.8421 128.201 21.9192 125.943 22.0606 123.685C22.6774 113.076 24.4763 102.415 28.2797 92.5233C29.0379 91.2148 29.9116 90.0345 30.9267 89.0851C34.7302 85.6084 39.7543 86.5963 44.4958 86.4167C46.5517 86.3269 48.5434 86.0446 50.368 85.0568L52.9379 86.1473L52.7323 90.7658C58.476 92.1256 64.2069 95.6921 69.9378 96.6928L71.1585 97.5396L81.1811 93.0878L89.4819 92.7671V86.1601L92.0903 85.0439C92.1931 85.0953 92.2831 85.1466 92.3859 85.1979C98.3609 88.1486 106.173 84.1459 111.519 89.0595C112.547 90.0088 113.408 91.1891 114.166 92.4977C118.766 104.493 120.449 117.63 120.642 130.421L120.629 130.434Z" fill="url(#paint7_radial_211_9)"/>
<g style="mix-blend-mode:overlay" opacity="0.1">
<path d="M120.629 130.434C120.513 130.677 120.385 130.921 120.256 131.165C119.434 125.879 118.265 120.85 116.157 115.872C113.369 109.304 111.57 101.594 106.443 96.4106C102.717 92.6644 93.4908 91.2661 89.4689 88.495L92.3729 85.2107C98.3479 88.1614 106.16 84.1587 111.506 89.0723C112.534 90.0216 113.395 91.2019 114.153 92.5105C118.753 104.506 120.436 117.643 120.629 130.434Z" fill="white"/>
</g>
<path d="M92.0516 17.1519C94.9813 15.3943 98.9646 17.6138 101.714 15.2275C107.844 19.2046 106.404 30.8791 104.708 36.7421C102.241 45.2863 93.2851 52.5604 88.2738 60.0398C85.3442 54.6388 88.4023 47.5314 88.6465 41.6685C88.9035 35.7029 87.6057 30.135 87.6057 24.131C88.6979 22.1938 89.6102 19.7691 91.0108 18.0628C91.332 17.6779 91.679 17.37 92.0516 17.1519Z" fill="#45290F"/>
<path style="mix-blend-mode:overlay" d="M104.708 36.7421C104.644 36.9731 104.567 37.204 104.503 37.4349C101.753 45.6841 93.1567 52.7658 88.2867 60.0527C85.357 54.6388 88.4152 47.5315 88.6594 41.6814C88.9035 35.7158 87.6185 30.1479 87.6185 24.1567C88.6979 22.2195 89.6231 19.7948 91.0108 18.0885C91.332 17.6908 91.679 17.3958 92.0388 17.1777C94.9813 15.4072 98.9646 17.6395 101.702 15.2661C102.832 16.0102 103.706 17.0109 104.374 18.1912C107.291 23.3741 106.083 31.9953 104.708 36.7678V36.7421Z" fill="url(#paint8_radial_211_9)"/>
<path d="M44.804 39.4876C42.3883 37.2297 38.8547 39.0642 37.8395 41.3991C36.7987 43.7854 37.8139 47.339 38.8161 49.6355C40.615 53.7408 44.6112 59.9116 49.16 54.4592L44.804 39.4876Z" fill="#DBA2A1"/>
<path style="mix-blend-mode:multiply" d="M49.16 54.4592C48.8901 54.7671 48.6331 55.0365 48.3761 55.2802C45.0224 58.4106 42.0285 55.447 40.0882 52.1628C39.5871 51.3032 39.1502 50.4308 38.8033 49.6482C38.1094 48.0446 37.4027 45.8765 37.3898 43.8879C37.3898 42.9899 37.5055 42.1432 37.8267 41.4119C38.8547 39.0642 42.3883 37.2296 44.7911 39.4875L44.8554 39.6928L49.16 54.472V54.4592Z" fill="url(#paint9_radial_211_9)"/>
<g style="mix-blend-mode:overlay" opacity="0.3">
<path d="M44.8682 39.68C44.7783 40.129 44.5341 40.5652 44.0844 40.9757C42.9151 42.079 39.8955 41.4376 38.4178 42.6692C38.0452 42.9642 37.7111 43.3876 37.3898 43.8623C37.3898 42.9771 37.5055 42.1304 37.8267 41.3991C38.8547 39.0514 42.3883 37.2168 44.7911 39.4747L44.8554 39.68H44.8682Z" fill="white"/>
</g>
<g style="mix-blend-mode:overlay" opacity="0.3">
<path d="M48.3762 55.2802C45.0225 58.4106 42.0285 55.447 40.0883 52.1628C40.4095 51.9575 40.6793 51.6752 40.9363 51.3673C42.2341 49.7252 42.6839 47.0439 41.9771 45.0811C42.7224 46.5692 44.4442 49.8535 45.7292 51.8035C46.3845 52.8042 47.5024 54.0102 48.3762 55.2802Z" fill="#1D1D1B"/>
</g>
<path d="M97.5897 39.4876C100.005 37.2297 103.539 39.0642 104.567 41.3991C105.608 43.7854 104.593 47.339 103.59 49.6355C101.791 53.7408 97.7953 59.9116 93.2466 54.4592L97.6026 39.4876H97.5897Z" fill="#DBA2A1"/>
<path style="mix-blend-mode:multiply" d="M104.824 45.5685C104.567 47.031 104.066 48.4936 103.565 49.6482C102.897 51.1492 101.946 52.9453 100.764 54.3308C98.8362 56.6144 96.3305 57.8075 93.5807 54.8825C93.4651 54.7542 93.3366 54.6131 93.2081 54.4591L97.564 39.4747C97.8082 39.2437 98.0523 39.077 98.3222 38.923C100.674 37.5759 103.616 39.2822 104.541 41.399C105.068 42.5921 105.068 44.0803 104.811 45.5685H104.824Z" fill="url(#paint10_radial_211_9)"/>
<g style="mix-blend-mode:overlay" opacity="0.3">
<path d="M100.776 54.3308C98.8489 56.6144 96.3433 57.8075 93.5935 54.8825C94.3131 53.3815 95.2382 51.8548 95.4567 50.6874L100.417 42.8744C100.507 45.7353 99.2987 48.4936 99.6328 51.4699C99.7998 53.0094 99.954 53.3173 100.776 54.3437V54.3308Z" fill="#1D1D1B"/>
</g>
<g style="mix-blend-mode:overlay" opacity="0.3">
<path d="M104.824 45.5685C103.886 42.7076 101.959 40.8859 97.7953 40.7832L98.335 38.923C100.686 37.5759 103.629 39.2822 104.554 41.399C105.081 42.5921 105.081 44.0803 104.824 45.5685Z" fill="white"/>
</g>
<path d="M99.787 25.4781L72.5332 22.2837C72.5075 22.181 72.4818 22.0784 72.4561 21.9758L71.1969 22.1169L69.9376 21.9758C69.8991 22.0656 69.8734 22.181 69.8605 22.2837C69.8605 22.2837 45.2152 18.0885 42.6068 25.4781C38.3407 37.6145 44.1872 56.0116 49.841 66.6598C53.3232 73.2155 58.8614 77.4234 67.6761 79.8225C78.4054 82.7475 88.1454 74.9602 92.5527 66.6726C98.2194 56.0116 104.066 37.6145 99.7999 25.4781H99.787Z" fill="#F2B3B2"/>
<path style="mix-blend-mode:multiply" d="M99.787 25.4781L72.5332 22.2837C72.5075 22.181 72.4818 22.0784 72.4561 21.9758L71.1969 22.1169L69.9376 21.9758C69.8991 22.0656 69.8734 22.181 69.8605 22.2837C69.8605 22.2837 45.2152 18.0885 42.6068 25.4781C38.3407 37.6145 44.1872 56.0116 49.841 66.6598C53.3232 73.2155 58.8614 77.4234 67.6761 79.8225C78.4054 82.7475 88.1454 74.9602 92.5527 66.6726C98.2194 56.0116 104.066 37.6145 99.7999 25.4781H99.787Z" fill="url(#paint11_radial_211_9)"/>
<path style="mix-blend-mode:multiply" d="M92.5527 66.6598C88.1454 74.9602 78.3926 82.7347 67.6633 79.8097C58.8485 77.4234 53.3232 73.2026 49.8282 66.6598C44.1615 56.0116 38.315 37.6145 42.5939 25.4781C45.2152 18.0885 69.8477 22.2837 69.8477 22.2837C69.8605 22.181 69.8991 22.0784 69.9248 21.9758L71.184 22.1169L72.4433 21.9758C72.4818 22.0656 72.5075 22.1682 72.5204 22.2837L99.7741 25.4781C100.686 28.0825 101.136 30.9819 101.226 34.0352C101.547 45.1709 96.9858 58.308 92.5399 66.6726L92.5527 66.6598Z" fill="url(#paint12_radial_211_9)"/>
<path style="mix-blend-mode:overlay" d="M92.5527 66.6597C89.2119 72.946 82.8128 78.9372 75.2445 80.1945C72.8288 80.5922 70.2846 80.5281 67.6633 79.8225C65.7744 79.3093 64.0397 78.7192 62.4464 78.0264C56.5742 75.5247 52.578 71.8171 49.8282 66.6726C44.1615 56.0243 38.315 37.6273 42.5939 25.4909C43.3135 23.4767 45.6778 22.3093 48.7617 21.7063C56.8697 20.0898 69.8477 22.2965 69.8477 22.2965C69.8605 22.1938 69.8991 22.0912 69.9248 21.9886L71.184 22.1297L72.4433 21.9886C72.4818 22.0784 72.5075 22.181 72.5204 22.2965L99.7742 25.4909C100.532 27.6334 100.969 29.9683 101.149 32.4315C101.984 43.888 97.1914 57.9102 92.527 66.6726L92.5527 66.6597Z" fill="url(#paint13_radial_211_9)"/>
<g style="mix-blend-mode:overlay" opacity="0.3">
<path d="M99.787 25.4653L72.5332 22.2708C72.5075 22.1682 72.4818 22.0655 72.4561 21.9629L71.1969 22.104L69.9376 21.9629C69.8991 22.0527 69.8734 22.1554 69.8605 22.2708C69.8605 22.2708 48.7488 18.6915 43.5448 24.0156C43.5448 24.0156 43.5448 24.0156 43.5448 24.0284C43.352 24.2337 43.1721 24.4518 43.0179 24.6827C43.0179 24.6827 43.0051 24.6955 42.9922 24.7084C42.8381 24.9521 42.7096 25.1959 42.6196 25.4524C38.3407 37.6017 44.2001 55.9987 49.8539 66.6469C52.5908 71.7914 56.5999 75.499 62.4721 78.0007C59.6323 75.8326 57.1652 73.2411 55.5462 70.47C51.1517 62.9521 46.4745 54.0102 46.513 45.1324C46.5259 40.2445 46.8985 34.6638 47.8365 29.468C56.0345 34.6638 66.6096 37.0372 75.7328 35.3951C82.4273 34.2019 87.8627 29.8015 94.1461 28.0824C99.106 26.7354 99.2602 31.0203 101.265 34.0223C101.188 30.969 100.738 28.0696 99.8127 25.4653H99.787Z" fill="#1D1D1B"/>
</g>
<g style="mix-blend-mode:overlay" opacity="0.1">
<path d="M92.5527 66.6597C89.2118 72.946 82.8128 78.9372 75.2444 80.1945C76.8892 77.975 78.5211 75.6914 79.4591 72.9075C82.7357 63.1702 83.6866 53.0864 85.4598 43.0412C86.4364 37.4477 85.2671 33.6887 90.6767 30.9818C92.4756 30.0837 94.8399 28.634 96.9344 29.2114C97.5126 29.3781 99.1445 31.1999 99.7099 31.5976C100.121 31.8927 100.648 32.1621 101.175 32.4186C102.01 43.8751 97.2171 57.8974 92.5527 66.6597Z" fill="white"/>
</g>
<path d="M75.2958 41.3606H67.085V43.1823H75.2958V41.3606Z" fill="#393D4F"/>
<path d="M106.88 7.74819C103.642 10.0061 101.894 12.1229 97.3584 11.8792C92.6684 11.6354 90.6767 10.1729 87.8498 6.67054C82.0547 -0.488135 71.7622 0.538198 62.7162 2.23165C55.5847 2.56521 47.7594 3.69417 41.476 7.0041C37.7368 8.97979 33.9333 11.5585 33.5478 16.1C33.3294 18.73 34.9099 21.3471 34.8199 24.0797C34.7043 27.8387 33.2652 30.5584 34.1004 34.5227C34.6658 37.1526 35.925 39.68 37.6211 42.0534C37.6854 41.8353 37.7368 41.6044 37.8267 41.3991C38.405 40.0905 39.7542 38.9359 41.2704 38.5767C40.8978 33.8812 41.2318 29.3525 42.5939 25.4781C42.7995 24.8751 43.1721 24.362 43.6475 23.9001C48.7359 26.0169 53.4003 27.3512 58.8614 28.493C66.7766 30.1479 74.2293 30.8792 82.0675 29.0703C87.6314 27.7873 93.2337 26.0554 98.8361 24.9649C100.34 24.6699 101.727 23.8745 102.961 22.8096C105.222 20.8468 106.957 17.9602 107.882 15.5355C108.987 12.6233 108.049 10.3782 106.841 7.76102L106.88 7.74819Z" fill="#45290F"/>
<path style="mix-blend-mode:overlay" d="M106.88 7.74819C103.642 10.0061 101.894 12.1229 97.3584 11.8792C92.6684 11.6354 90.6767 10.1729 87.8498 6.67054C82.0547 -0.488135 71.7622 0.538198 62.7162 2.23165C55.5847 2.56521 47.7594 3.69417 41.476 7.0041C37.7368 8.97979 33.9333 11.5585 33.5478 16.1C33.3294 18.73 34.9099 21.3471 34.8199 24.0797C34.7043 27.8387 33.2652 30.5584 34.1004 34.5227C34.6658 37.1526 35.925 39.68 37.6211 42.0534C37.6854 41.8353 37.7368 41.6044 37.8267 41.3991C38.405 40.0905 39.7542 38.9359 41.2704 38.5767C40.8978 33.8812 41.2318 29.3525 42.5939 25.4781C42.7995 24.8751 43.1721 24.362 43.6475 23.9001C48.7359 26.0169 53.4003 27.3512 58.8614 28.493C66.7766 30.1479 74.2293 30.8792 82.0675 29.0703C87.6314 27.7873 93.2337 26.0554 98.8361 24.9649C100.34 24.6699 101.727 23.8745 102.961 22.8096C105.222 20.8468 106.957 17.9602 107.882 15.5355C108.987 12.6233 108.049 10.3782 106.841 7.76102L106.88 7.74819Z" fill="url(#paint14_radial_211_9)"/>
<path style="mix-blend-mode:multiply" d="M106.88 7.74819C103.642 10.0061 101.894 12.1229 97.3584 11.8792C92.6684 11.6354 90.6767 10.1729 87.8498 6.67054C82.0547 -0.488135 71.7622 0.538198 62.7162 2.23165C55.5847 2.56521 47.7594 3.69417 41.476 7.0041C37.7368 8.97979 33.9333 11.5585 33.5478 16.1C33.3294 18.73 34.9099 21.3471 34.8199 24.0797C34.7043 27.8387 33.2652 30.5584 34.1004 34.5227C34.6658 37.1526 35.925 39.68 37.6211 42.0534C37.6854 41.8353 37.7368 41.6044 37.8267 41.3991C38.405 40.0905 39.7542 38.9359 41.2704 38.5767C40.8978 33.8812 41.2318 29.3525 42.5939 25.4781C42.7995 24.8751 43.1721 24.362 43.6475 23.9001C48.7359 26.0169 53.4003 27.3512 58.8614 28.493C66.7766 30.1479 74.2293 30.8792 82.0675 29.0703C87.6314 27.7873 93.2337 26.0554 98.8361 24.9649C100.34 24.6699 101.727 23.8745 102.961 22.8096C105.222 20.8468 106.957 17.9602 107.882 15.5355C108.987 12.6233 108.049 10.3782 106.841 7.76102L106.88 7.74819Z" fill="url(#paint15_radial_211_9)"/>
<path style="mix-blend-mode:multiply" d="M107.908 15.5226C106.996 17.9474 105.248 20.8339 102.986 22.7968C101.753 23.8616 100.365 24.6698 98.8618 24.9649C96.112 25.4909 93.3751 26.1837 90.6381 26.8893C87.7855 27.6334 84.9329 28.4031 82.0803 29.0702C74.2293 30.8792 66.7766 30.1479 58.8742 28.4801C53.4003 27.3511 48.7488 26.0169 43.6475 23.9001C43.1721 24.3619 42.7994 24.8751 42.5939 25.4653C41.2318 29.3525 40.8977 33.8684 41.2704 38.5638C39.7541 38.9359 38.4049 40.0777 37.8267 41.3863C37.7368 41.5915 37.6725 41.8224 37.6211 42.0534C36.5546 40.5524 35.6551 39 34.9998 37.3964C34.6143 36.447 34.3059 35.4977 34.1003 34.5226C33.2651 30.5584 34.7171 27.8386 34.8328 24.0669C34.9227 21.3343 33.3294 18.7299 33.5478 16.0871C33.9205 11.5584 37.7239 8.96694 41.476 6.99125C47.7722 3.68133 55.5975 2.53953 62.7162 2.2188C71.7622 0.512522 82.0546 -0.513812 87.8369 6.64486C90.6638 10.1601 92.6555 11.6098 97.3455 11.8535C101.894 12.0844 103.642 9.98045 106.867 7.72251C108.062 10.3397 109.013 12.5848 107.895 15.5098L107.908 15.5226Z" fill="url(#paint16_radial_211_9)"/>
<path style="mix-blend-mode:screen" d="M106.931 15.1506C107.715 13.0851 107.342 11.4558 106.443 9.33897C106.25 9.48009 106.07 9.62121 105.878 9.76233C103.616 11.4686 101.663 12.9311 98.0266 12.9311C97.7825 12.9311 97.5383 12.9311 97.2813 12.9183C92.1672 12.6489 89.9057 10.9041 87.0146 7.32479C84.1492 3.77111 79.7675 2.052 73.6254 2.052C69.8477 2.052 65.9029 2.70629 62.8832 3.27077H62.8061L62.7291 3.2836C53.9143 3.69414 47.1041 5.20798 41.9257 7.94059C38.3022 9.85214 34.8842 12.1742 34.5501 16.2026C34.5501 16.3309 34.5501 16.472 34.5501 16.6003C42.4268 7.23499 57.1138 3.54019 69.0253 6.09319C62.7676 7.13235 58.5915 11.3018 54.4154 14.4322C63.8084 17.5496 73.1885 16.5105 81.5407 12.341C81.5407 15.4713 78.4183 16.5105 76.3238 17.5496C85.7168 18.5888 96.1506 20.68 104.49 13.3802C106.212 16.8055 102.293 19.5253 101.419 22.6941C101.714 22.4889 102.01 22.2579 102.305 22.0014C104.194 20.3592 105.929 17.7934 106.944 15.1378L106.931 15.1506Z" fill="url(#paint17_linear_211_9)"/>
<path d="M84.3034 68.3789C83.4425 70.0082 84.2263 69.8157 83.1212 71.8941C82.119 73.7928 78.4183 77.0129 76.5937 77.6287C72.8159 78.9116 67.3549 75.3708 64.1425 73.8954C67.3035 73.5362 70.6829 72.7793 74.1009 71.6246C76.9149 70.6753 79.5619 69.5078 81.9262 68.2249C82.4273 67.9427 83.8022 68.6739 84.2905 68.3789H84.3034Z" fill="white"/>
<path d="M110.979 67.7758V74.0236C110.979 74.9601 109.707 75.6786 108.024 75.6914C104.631 75.7299 101.56 75.6786 98.7591 75.5631C97.0758 75.499 95.4953 75.4092 94.0176 75.2937C89.1733 74.9217 85.357 74.3187 82.2989 73.5618C81.8106 73.4463 81.1681 72.9844 81.1681 72.5226C80.8469 71.3808 80.8469 70.4443 81.1681 69.3025C81.1681 68.8278 81.8491 68.3916 82.3503 68.2633C85.4213 67.5064 89.2633 66.9034 94.1461 66.5442C95.6495 66.4287 97.2428 66.3518 98.939 66.2876C101.714 66.1722 104.785 66.1337 108.165 66.1593C109.797 66.1722 110.966 66.8778 110.966 67.7886L110.979 67.7758Z" fill="#452400"/>
<path style="mix-blend-mode:multiply" d="M110.979 67.7758V74.0236C110.979 74.9601 109.707 75.6786 108.024 75.6914C104.631 75.7299 101.56 75.6786 98.7591 75.5631C97.0758 75.499 95.4953 75.4092 94.0176 75.2937C89.1733 74.9217 85.357 74.3187 82.2989 73.5618C81.8106 73.4463 81.1681 72.9844 81.1681 72.5226C80.8469 71.3808 80.8469 70.4443 81.1681 69.3025C81.1681 68.8278 81.8491 68.3916 82.3503 68.2633C85.4213 67.5064 89.2633 66.9034 94.1461 66.5442C95.6495 66.4287 97.2428 66.3518 98.939 66.2876C101.714 66.1722 104.785 66.1337 108.165 66.1593C109.797 66.1722 110.966 66.8778 110.966 67.7886L110.979 67.7758Z" fill="url(#paint18_radial_211_9)"/>
<path style="mix-blend-mode:overlay" d="M110.979 67.7758V74.0236C110.979 74.9601 109.707 75.6786 108.024 75.6914C104.631 75.7299 101.56 75.6786 98.7591 75.5631C97.0758 75.499 95.4953 75.4092 94.0176 75.2937C89.1733 74.9217 85.357 74.3187 82.2989 73.5618C81.8106 73.4463 81.1681 72.9844 81.1681 72.5226C80.8469 71.3808 80.8469 70.4443 81.1681 69.3025C81.1681 68.8278 81.8491 68.3916 82.3503 68.2633C85.4213 67.5064 89.2633 66.9034 94.1461 66.5442C95.6495 66.4287 97.2428 66.3518 98.939 66.2876C101.714 66.1722 104.785 66.1337 108.165 66.1593C109.797 66.1722 110.966 66.8778 110.966 67.7886L110.979 67.7758Z" fill="url(#paint19_radial_211_9)"/>
<g style="mix-blend-mode:overlay" opacity="0.3">
<path d="M108.178 66.1466C104.798 66.1081 101.727 66.1466 98.9518 66.2749C97.2428 66.339 95.6495 66.4288 94.1589 66.5314C89.2761 66.9035 85.4341 67.4936 82.3631 68.2505C81.8748 68.3788 81.1809 68.815 81.1809 69.2897C80.9625 70.0595 80.8983 70.7394 80.9882 71.445C81.0268 71.0986 81.0781 70.7522 81.1809 70.3802C81.1809 69.8927 81.862 69.4693 82.3631 69.341C85.4341 68.5841 89.2761 67.9811 94.1589 67.6091C95.6623 67.4936 97.2557 67.4038 98.9518 67.3525C101.727 67.237 104.798 67.1986 108.178 67.2242C109.81 67.237 110.979 67.9426 110.979 68.8535V67.7759C110.979 66.865 109.81 66.1594 108.178 66.1466Z" fill="white"/>
</g>
<g style="mix-blend-mode:overlay" opacity="0.3">
<path d="M109.167 74.1392C105.775 74.1776 102.704 74.1263 99.9027 74.0109C98.2194 73.9339 96.6389 73.8441 95.1612 73.7286C90.3298 73.3566 86.5007 72.7536 83.4425 71.9967C82.9542 71.8812 82.3117 71.4322 82.3117 70.9575C82.0419 70.0082 82.0162 69.1999 82.1832 68.3019C81.7206 68.4687 81.1681 68.8664 81.1681 69.2897C80.8469 70.4315 80.8469 71.3681 81.1681 72.5099C81.1681 72.9845 81.8106 73.4335 82.2989 73.549C85.357 74.3059 89.1733 74.9089 94.0176 75.281C95.5081 75.3964 97.0758 75.4862 98.7591 75.5504C101.547 75.6658 104.618 75.7171 108.024 75.6787C109.707 75.6658 110.979 74.9474 110.979 74.0109V73.7799C110.478 73.998 109.861 74.1263 109.167 74.1392Z" fill="#1D1D1B"/>
</g>
<path d="M98.7719 75.5632C97.2814 75.7428 95.4824 75.6401 94.0304 75.2937C93.5679 72.3944 93.6193 69.4308 94.1589 66.5443C95.6366 66.3005 97.4613 66.2107 98.9518 66.2877C98.2065 69.341 98.1423 72.5098 98.7719 75.576V75.5632Z" fill="#ED9600"/>
<path style="mix-blend-mode:overlay" d="M98.5278 74.1007C98.592 74.5882 98.6691 75.0757 98.7719 75.576C97.2814 75.7557 95.4953 75.6402 94.0305 75.2938C93.9534 74.832 93.8891 74.3701 93.8506 73.9211C93.5936 71.4707 93.6964 68.9818 94.159 66.5443C95.6366 66.3134 97.4613 66.2107 98.9518 66.2877C98.3222 68.8536 98.1808 71.5092 98.5278 74.1135V74.1007Z" fill="url(#paint20_radial_211_9)"/>
<path style="mix-blend-mode:multiply" d="M98.5278 74.1007C98.592 74.5882 98.6691 75.0757 98.7719 75.576C97.2814 75.7557 95.4953 75.6402 94.0305 75.2938C93.9534 74.832 93.8891 74.3701 93.8506 73.9211C93.5936 71.4707 93.6964 68.9818 94.159 66.5443C95.6366 66.3134 97.4613 66.2107 98.9518 66.2877C98.3222 68.8536 98.1808 71.5092 98.5278 74.1135V74.1007Z" fill="url(#paint21_radial_211_9)"/>
<g style="mix-blend-mode:overlay" opacity="0.3">
<path d="M98.3607 71.4707L93.722 71.5477C93.722 72.3431 93.7734 73.1257 93.8505 73.9082C95.3539 74.1392 97.0372 74.2033 98.5278 74.1007C98.4121 73.2283 98.3736 72.3559 98.3607 71.4707Z" fill="#1D1D1B"/>
</g>
<path d="M109.013 70.919C109.013 68.52 109.591 66.5828 110.298 66.5828C111.005 66.5828 111.583 68.52 111.583 70.919C111.583 73.3181 111.005 75.2553 110.298 75.2553C109.591 75.2553 109.013 73.3181 109.013 70.919Z" fill="#878787"/>
<path style="mix-blend-mode:multiply" d="M109.013 70.919C109.013 68.52 109.591 66.5828 110.298 66.5828C111.005 66.5828 111.583 68.52 111.583 70.919C111.583 73.3181 111.005 75.2553 110.298 75.2553C109.591 75.2553 109.013 73.3181 109.013 70.919Z" fill="url(#paint22_radial_211_9)"/>
<path style="mix-blend-mode:overlay" d="M110.298 68.6868C110.902 68.6868 111.403 70.0851 111.531 71.9582C111.557 71.6246 111.57 71.2654 111.57 70.9062C111.57 68.5072 110.992 66.5699 110.285 66.5699C109.578 66.5699 109 68.5072 109 70.9062C109 71.2654 109.026 71.6246 109.052 71.9582C109.193 70.0851 109.694 68.6868 110.285 68.6868H110.298Z" fill="url(#paint23_radial_211_9)"/>
<path d="M101.393 70.919C101.393 72.3173 99.1189 73.4591 96.3305 73.4591C93.5422 73.4591 91.2678 72.3173 91.2678 70.919C91.2678 69.5206 93.5293 68.3788 96.3305 68.3788C99.1317 68.3788 101.393 69.5206 101.393 70.919Z" fill="#EDCD00"/>
<path style="mix-blend-mode:multiply" d="M101.393 70.919C101.393 72.3173 99.1189 73.4591 96.3305 73.4591C93.5422 73.4591 91.2678 72.3173 91.2678 70.919C91.2678 69.5206 93.5293 68.3788 96.3305 68.3788C99.1317 68.3788 101.393 69.5206 101.393 70.919Z" fill="url(#paint24_radial_211_9)"/>
<path style="mix-blend-mode:hard-light" d="M96.3305 68.3788C93.6963 68.3788 91.5376 69.3923 91.3063 70.688C92.0902 69.79 93.8762 69.1485 95.9579 69.1485C98.759 69.1485 101.021 70.2903 101.021 71.6887C101.021 71.7657 100.982 71.8427 100.969 71.9068C101.239 71.5989 101.393 71.2654 101.393 70.9061C101.393 69.5078 99.1188 68.366 96.3305 68.366V68.3788Z" fill="url(#paint25_radial_211_9)"/>
<path d="M68.3186 41.4632C65.5945 38.025 50.7533 37.4349 47.4767 41.553C46.1147 43.2721 45.2923 45.4403 45.2923 47.8137C45.2923 53.3687 49.8153 57.8846 55.3791 57.8846C58.0133 57.8846 63.6414 55.7806 65.4403 54.1384C67.8046 51.9703 70.7214 48.1601 70.3617 46.0432C70.0661 44.337 69.3465 42.7846 68.3186 41.4889V41.4632Z" fill="#44495E"/>
<path style="mix-blend-mode:screen" d="M67.1236 42.2201C66.0828 40.9116 62.0095 39.9237 57.6664 39.9237C53.3232 39.9237 49.841 40.8602 48.6846 42.3099C48.0549 43.0925 47.5795 43.9649 47.2711 44.8886C54.454 45.1067 61.6883 46.1587 66.8152 50.4565C68.1644 48.7117 69.0382 47.0054 68.8968 46.1459C68.6527 44.7218 68.0359 43.3619 67.1364 42.2201H67.1236Z" fill="url(#paint26_linear_211_9)"/>
<path d="M74.0752 41.4632C76.7993 38.025 91.6404 37.4349 94.917 41.553C96.2791 43.2721 97.1015 45.4403 97.1015 47.8137C97.1015 53.3687 92.5913 57.8846 87.0146 57.8846C84.3805 57.8846 78.7524 55.7806 76.9406 54.1384C74.5763 51.9703 71.6595 48.1601 72.0192 46.0432C72.3148 44.337 73.0344 42.7846 74.0623 41.4889L74.0752 41.4632Z" fill="#44495E"/>
<path style="mix-blend-mode:screen" d="M93.722 42.3613C92.5656 40.9116 89.0448 39.9751 84.7402 39.9751C80.4357 39.9751 76.3238 40.9629 75.283 42.2843C74.4735 43.3107 73.9081 44.5166 73.6254 45.7739C81.2837 45.5045 89.1219 47.6598 93.8762 52.9069C94.9556 51.4572 95.5981 49.6868 95.5981 47.7496C95.5981 45.8124 94.9427 43.9265 93.722 42.3742V42.3613Z" fill="url(#paint27_linear_211_9)"/>
<path d="M89.2376 82.183C86.2437 80.4511 82.1447 80.8744 78.7267 79.7583C78.701 80.5665 78.7267 81.3619 78.958 82.0804C79.2407 82.9913 79.7932 83.4659 80.4742 83.7225C80.4742 83.7225 80.5642 83.7225 80.6027 83.7225C81.2067 84.0304 81.9262 83.9919 82.6458 84.0432C84.0207 84.4923 85.3056 85.5186 86.8733 87.4558C83.3268 90.2012 74.3579 92.4335 71.1969 97.1546C68.0359 92.4335 59.067 90.2012 55.5205 87.4558C57.0882 85.5186 58.3731 84.5051 59.7352 84.0561C60.4804 84.0048 61.2128 83.9534 61.8425 83.7353C61.8682 83.7353 61.881 83.7353 61.9067 83.7353C61.971 83.7097 62.0352 83.6712 62.0995 83.6327C62.0995 83.6327 62.0995 83.6327 62.1123 83.6327C62.6905 83.3505 63.1531 82.9143 63.4101 82.0932C63.6414 81.3748 63.6671 80.5665 63.6414 79.7711C60.2234 80.8873 56.1244 80.4639 53.1305 82.1958C50.1494 85.0567 45.4851 88.5848 42.1313 92.8569C42.4911 93.5881 42.6582 94.3836 42.6582 95.2046C45.1767 96.6543 47.7851 98.8866 48.993 101.606C49.0829 101.606 49.1729 101.581 49.2757 101.581C49.9567 101.581 50.5349 101.709 51.0746 101.914C52.4366 100.606 54.3769 99.3741 56.5485 98.4247C61.3799 96.3079 67.3421 95.5382 70.6701 98.0784C70.85 98.2066 71.0299 98.3734 71.184 98.5274C71.3382 98.3734 71.5181 98.2066 71.698 98.0784C75.0261 95.5382 80.9882 96.3079 85.8196 98.4247C87.9912 99.3741 89.9315 100.593 91.2935 101.914C91.8332 101.709 92.4114 101.581 93.0924 101.581C93.1952 101.581 93.2723 101.606 93.3751 101.606C94.5701 98.8866 97.1786 96.6543 99.7099 95.2046C99.7099 94.3964 99.877 93.5881 100.237 92.8569C96.883 88.5848 92.2187 85.0567 89.2376 82.1958V82.183Z" fill="#1E2930"/>
<path style="mix-blend-mode:overlay" d="M100.237 92.8569C99.877 93.5881 99.7099 94.3836 99.7099 95.2046C99.0674 95.5767 98.4121 96 97.7697 96.4747C95.9322 97.8218 94.2617 99.5794 93.3751 101.606C93.2852 101.606 93.1952 101.581 93.0924 101.581C92.4114 101.581 91.8332 101.709 91.2935 101.914C89.9315 100.606 87.9912 99.3741 85.8196 98.4247C80.9882 96.3079 75.0132 95.5382 71.698 98.0784C71.5181 98.2066 71.3382 98.3734 71.184 98.5274C71.0299 98.3734 70.85 98.2066 70.6701 98.0784C67.3421 95.5382 61.367 96.3079 56.5485 98.4247C54.3769 99.3741 52.4366 100.593 51.0746 101.914C50.5349 101.709 49.9567 101.581 49.2757 101.581C49.1729 101.581 49.0958 101.606 48.993 101.606C47.798 98.8866 45.1895 96.6543 42.6582 95.2046C42.6582 94.3964 42.4911 93.5881 42.1313 92.8569C45.4851 88.5848 50.1494 85.0567 53.1305 82.1958C56.1244 80.4639 60.2234 80.8873 63.6414 79.7711C63.6799 80.5794 63.6414 81.3748 63.4101 82.0932C63.166 82.9014 62.7034 83.3505 62.1123 83.6327H62.0866C62.0095 83.6584 61.9581 83.6969 61.8939 83.7225C61.8939 83.7225 61.8553 83.7225 61.8168 83.7225C61.1871 83.9406 60.4547 83.9919 59.7095 84.0432C58.3474 84.5051 57.0625 85.5058 55.4948 87.443C59.0413 90.1884 68.0102 92.4207 71.1712 97.1418C74.2422 92.549 82.8 90.3167 86.5392 87.6739C86.642 87.5969 86.7448 87.5199 86.8476 87.443C85.2799 85.5058 83.9821 84.4794 82.6201 84.0432C81.9005 83.9919 81.1681 84.0432 80.577 83.7225C80.5385 83.7225 80.4871 83.7225 80.4485 83.7225C79.7675 83.4659 79.215 82.9913 78.9323 82.0804C78.701 81.3619 78.6753 80.5537 78.701 79.7583C82.119 80.8744 86.2308 80.4511 89.2119 82.183C92.1801 85.0439 96.8573 88.5719 100.211 92.844L100.237 92.8569Z" fill="url(#paint28_radial_211_9)"/>
<path style="mix-blend-mode:overlay" d="M71.2097 97.1418C71.184 97.5908 71.184 98.0527 71.1969 98.5017C71.0427 98.3606 70.8628 98.1938 70.6829 98.0655C69.5007 97.1547 67.9845 96.68 66.2884 96.5389C63.243 96.2438 59.6709 97.052 56.5613 98.4119C54.3897 99.3613 52.4495 100.58 51.0874 101.901C50.5477 101.696 49.9695 101.568 49.2885 101.568C49.1857 101.568 49.1086 101.594 49.0058 101.594C47.8108 98.8738 45.2023 96.6415 42.671 95.1918C42.671 94.3836 42.504 93.5753 42.1442 92.844C45.4979 88.5719 50.1622 85.0439 53.1433 82.183C56.1373 80.4511 60.2362 80.8744 63.6542 79.7583C63.6928 80.5665 63.6542 81.3619 63.4229 82.0804C63.1788 82.8886 62.7162 83.3376 62.1251 83.6199H62.0994C62.0223 83.6455 61.9709 83.684 61.9067 83.7097C61.9067 83.7097 61.8681 83.7097 61.8296 83.7097C61.2 83.9278 60.4675 83.9791 59.7223 84.0304C59.3111 84.1715 58.8999 84.364 58.4887 84.6206C57.5507 85.1979 56.5998 86.0831 55.5205 87.4301C59.0669 90.1756 68.0359 92.4079 71.1969 97.129C71.1969 97.129 71.2226 97.1162 71.2226 97.1033L71.2097 97.1418Z" fill="url(#paint29_radial_211_9)"/>
<g style="mix-blend-mode:overlay" opacity="0.3">
<path d="M66.5068 96.5645C67.5733 96.2951 68.8583 96.231 69.8862 96.6415C70.4131 96.8468 70.8243 97.0264 71.2097 97.2573C71.2097 97.2188 71.2097 97.1803 71.2097 97.1419C71.2097 97.1419 71.1969 97.1547 71.184 97.1675C68.0231 92.4464 59.0541 90.2141 55.5077 87.4687C56.587 86.1216 57.5379 85.2364 58.4759 84.6591C57.1395 84.3897 53.0534 85.1594 52.4623 85.7367C52.4623 85.7367 52.1411 90.8299 50.3679 92.9724C54.7495 92.9211 57.9491 92.4336 62.138 94.3323C63.6028 94.9866 64.9906 95.6665 66.2755 96.5261C66.3526 96.5261 66.4169 96.5517 66.494 96.5517L66.5068 96.5645Z" fill="white"/>
</g>
<path d="M72.1735 96.6927L71.0427 97.3855L69.9762 96.6927H67.4577V130.882H74.9233V96.6927H72.1735Z" fill="#334652"/>
<path style="mix-blend-mode:multiply" opacity="0.7" d="M74.9233 96.7056V130.882H67.4577V96.7056H69.9762L71.0427 97.3855L72.1735 96.7056H74.9233Z" fill="url(#paint30_radial_211_9)"/>
<path d="M73.4713 122.544C73.4713 123.762 72.4818 124.75 71.2483 124.75C70.0147 124.75 69.0253 123.762 69.0253 122.544C69.0253 121.325 70.0147 120.324 71.2483 120.324C72.4818 120.324 73.4713 121.312 73.4713 122.544Z" fill="#F5F5F5"/>
<path d="M73.4713 110.574C73.4713 111.793 72.4818 112.793 71.2483 112.793C70.0147 112.793 69.0253 111.806 69.0253 110.574C69.0253 109.342 70.0147 108.354 71.2483 108.354C72.4818 108.354 73.4713 109.342 73.4713 110.574Z" fill="#F5F5F5"/>
<g style="mix-blend-mode:overlay" opacity="0.3">
<path d="M90.6382 26.8893C87.7856 27.6334 84.933 28.4031 82.0804 29.0702C74.2294 30.8791 66.7767 30.1479 58.8742 28.4801C53.4004 27.3511 48.7488 26.0169 43.6476 23.9001C43.1722 24.3619 42.7995 24.8751 42.5939 25.4652C41.2319 29.3525 40.8978 33.8683 41.2704 38.5638C39.7542 38.9359 38.405 40.0777 37.8268 41.3862C37.7368 41.5915 37.6726 41.8224 37.6212 42.0534C36.5547 40.5523 35.6552 39 34.9999 37.3964C38.7905 33.0729 39.5229 23.5024 36.3876 19.4227C41.0648 14.1756 58.4502 24.4646 63.8984 26.0939C68.3315 27.4153 72.302 27.8643 77.1205 28.0952C79.3563 28.1979 81.7206 28.711 84.0721 28.4544C86.552 28.1979 88.4024 26.7097 90.5868 26.0554C90.7153 26.3376 90.741 26.607 90.651 26.8636L90.6382 26.8893Z" fill="#1D1D1B"/>
</g>
<g style="mix-blend-mode:overlay" opacity="0.3">
<path d="M104.708 36.7422C104.644 36.9731 104.567 37.204 104.503 37.4349C104.529 31.8414 104.785 26.4147 103.526 20.8212L104.374 18.1783C107.291 23.3613 106.083 31.9825 104.708 36.755V36.7422Z" fill="white"/>
</g>
<g style="mix-blend-mode:overlay" opacity="0.3">
<path d="M100.237 92.8568C99.877 93.5881 99.7099 94.3835 99.7099 95.2046C99.0675 95.5766 98.4121 96 97.7697 96.4747C94.1847 93.3443 90.9594 89.9446 86.6163 87.7508C86.6035 87.7508 86.5778 87.7252 86.5649 87.7252C86.6677 87.6482 86.7705 87.5712 86.8733 87.4942C85.3057 85.557 84.0079 84.5307 82.6458 84.0945C81.9262 84.0432 81.1938 84.0945 80.6027 83.7738C80.5642 83.7738 80.5128 83.7738 80.4742 83.7738C79.7932 83.5172 79.2407 83.0425 78.958 82.1317C78.7267 81.4132 78.701 80.605 78.7267 79.8096C82.1447 80.9257 86.2565 80.5023 89.2376 82.2343C92.2058 85.0952 96.8831 88.6232 100.237 92.8953V92.8568Z" fill="white"/>
</g>
<g style="mix-blend-mode:overlay" opacity="0.3">
<path d="M74.9232 96.7056V130.882H72.9958C72.5075 128.419 72.5075 124.917 72.5846 123.596C73.0215 114.769 72.9444 105.699 72.9315 96.7056H74.9232Z" fill="white"/>
</g>
<g style="mix-blend-mode:overlay" opacity="0.6">
<path d="M108.268 139.619C108.114 139.645 107.946 139.658 107.779 139.67C107.625 139.183 106.816 139.068 106.212 139.504C105.03 140.35 103.385 141.261 101.573 142.159C103.603 137.682 104.246 131.344 104.246 127.508C104.246 123.352 102.909 116.103 105.299 112.614C105.145 122.03 107.317 130.754 108.281 139.632L108.268 139.619Z" fill="#1D1D1B"/>
</g>
<g style="mix-blend-mode:overlay" opacity="0.6">
<path d="M40.8207 142.134C39.0475 141.261 37.4413 140.376 36.272 139.555C36.2463 139.529 36.2077 139.504 36.182 139.491C35.5781 139.055 34.7686 139.17 34.6144 139.658C34.4473 139.658 34.2803 139.632 34.1261 139.619C35.1027 130.729 37.2742 122.018 37.1072 112.588C39.4972 116.09 38.1737 123.326 38.1608 127.483C38.1608 131.332 38.7905 137.643 40.8335 142.121L40.8207 142.134Z" fill="#1D1D1B"/>
</g>
<g style="mix-blend-mode:overlay" opacity="0.1">
<path d="M30.6311 106.404C31.7361 111.959 31.1707 119.978 34.0362 124.583C34.6144 116.822 33.7021 105.75 40.8593 100.567C38.7134 97.501 37.1072 92.6387 39.4201 89.2134C40.2168 88.0331 34.987 88.5847 34.653 88.713C33.0982 89.3417 31.3506 91.9203 30.6953 93.3315C28.8064 97.3855 29.7958 102.209 30.6311 106.392V106.404Z" fill="white"/>
</g>
<g style="mix-blend-mode:overlay" opacity="0.1">
<path d="M105.788 139.786C104.644 140.543 103.179 141.351 101.56 142.146C96.806 144.481 90.7924 146.714 88.4024 147.432C83.4296 148.92 79.3435 149.177 74.7819 149.305C74.7819 149.395 74.7819 149.472 74.7562 149.549C73.5098 149.485 72.3405 149.446 71.1841 149.408C70.0533 149.446 68.8583 149.485 67.6248 149.549C67.6119 149.472 67.6119 149.395 67.6119 149.305C63.0375 149.177 58.9513 148.92 53.9786 147.432C50.6891 146.457 40.6023 142.596 36.272 139.555L35.1926 132.435C37.0815 145.149 60.6989 146.983 70.1433 146.496C84.0593 145.803 92.5271 140.119 104.618 134.051C105.312 136.065 105.698 137.951 105.788 139.786Z" fill="#1D1D1B"/>
</g>
<g style="mix-blend-mode:overlay" opacity="0.1">
<path d="M44.4571 86.4037C41.219 88.5334 35.411 90.3551 33.7534 92.844C29.5902 99.0405 27.5086 108.521 25.2856 115.667C24.3605 118.605 23.5124 121.62 22.0219 123.672C22.6386 113.063 24.4376 102.402 28.241 92.5104C28.9991 91.2019 29.8729 90.0216 30.888 89.0722C34.6915 85.5955 39.7156 86.5834 44.4571 86.4037Z" fill="white"/>
</g>
<g style="mix-blend-mode:overlay" opacity="0.1">
<path d="M78.4954 104.839C78.1228 117.13 82.7486 128.727 80.667 141.223C87.7856 141.916 97.6026 137.31 100.005 130.998C102.537 124.365 101.2 116.309 100.854 109.073C93.645 110.792 84.2006 98.0783 79.5491 100.157L78.5083 104.839H78.4954Z" fill="white"/>
</g>
<g style="mix-blend-mode:overlay" opacity="0.1">
<path d="M59.8508 140.633C56.8311 137.515 50.5477 138.234 46.6415 136.309C43.1721 134.603 43.609 129.664 43.352 126.456C43.0436 122.697 42.9151 118.9 42.1699 115.205C42.1313 115.013 41.8358 115.013 41.7972 115.205C40.3581 121.543 37.6468 132.73 42.7995 138.118C46.256 141.736 55.0322 144.34 59.6709 142.095C60.2234 141.826 60.2491 141.043 59.8508 140.633Z" fill="white"/>
</g>
</g>
<defs>
<linearGradient id="paint0_linear_211_9" x1="153" y1="119.5" x2="362" y2="251" gradientUnits="userSpaceOnUse">
<stop stop-color="#7339BB"/>
<stop offset="1" stop-color="#1A0653"/>
</linearGradient>
<linearGradient id="paint1_linear_211_9" x1="243.5" y1="119.5" x2="298" y2="247.5" gradientUnits="userSpaceOnUse">
<stop stop-color="#EE7F39"/>
<stop offset="1" stop-color="#FFD391"/>
</linearGradient>
<radialGradient id="paint2_radial_211_9" cx="0" cy="0" r="1" gradientUnits="userSpaceOnUse" gradientTransform="translate(71.997 148.343) scale(53.9996 11.9279)">
<stop stop-color="#707070"/>
<stop offset="0.1" stop-color="#868686"/>
<stop offset="0.3" stop-color="#B1B1B1"/>
<stop offset="0.5" stop-color="#D3D3D3"/>
<stop offset="0.68" stop-color="#EBEBEB"/>
<stop offset="0.86" stop-color="#F9F9F9"/>
<stop offset="1" stop-color="white"/>
</radialGradient>
<radialGradient id="paint3_radial_211_9" cx="0" cy="0" r="1" gradientUnits="userSpaceOnUse" gradientTransform="translate(114.68 38.6665) scale(90.4861 90.343)">
<stop offset="0.66" stop-color="white"/>
<stop offset="0.7" stop-color="#FBF7F7"/>
<stop offset="0.74" stop-color="#F2E2E2"/>
<stop offset="0.8" stop-color="#E3C0C0"/>
<stop offset="0.84" stop-color="#D9A9A9"/>
<stop offset="0.93" stop-color="#ECD6D6"/>
<stop offset="1" stop-color="white"/>
</radialGradient>
<radialGradient id="paint4_radial_211_9" cx="0" cy="0" r="1" gradientUnits="userSpaceOnUse" gradientTransform="translate(72.2377 127.072) scale(60.5468 60.451)">
<stop offset="0.66" stop-color="white"/>
<stop offset="0.7" stop-color="#FBF7F7"/>
<stop offset="0.74" stop-color="#F2E2E2"/>
<stop offset="0.8" stop-color="#E3C0C0"/>
<stop offset="0.84" stop-color="#D9A9A9"/>
<stop offset="0.93" stop-color="#ECD6D6"/>
<stop offset="1" stop-color="white"/>
</radialGradient>
<radialGradient id="paint5_radial_211_9" cx="0" cy="0" r="1" gradientUnits="userSpaceOnUse" gradientTransform="translate(83.0184 58.308) scale(156.173 155.926)">
<stop offset="0.44" stop-color="white"/>
<stop offset="0.48" stop-color="#F8F8F8"/>
<stop offset="0.53" stop-color="#E4E4E4"/>
<stop offset="0.6" stop-color="#C5C5C5"/>
<stop offset="0.67" stop-color="#999999"/>
<stop offset="0.76" stop-color="#616161"/>
<stop offset="0.85" stop-color="#B5B5B5"/>
<stop offset="0.92" stop-color="#EAEAEA"/>
<stop offset="0.95" stop-color="white"/>
</radialGradient>
<radialGradient id="paint6_radial_211_9" cx="0" cy="0" r="1" gradientUnits="userSpaceOnUse" gradientTransform="translate(115.014 121.504) scale(107.062 106.893)">
<stop offset="0.44" stop-color="white"/>
<stop offset="0.59" stop-color="#FCFCFC"/>
<stop offset="0.65" stop-color="#F5F5F5"/>
<stop offset="0.7" stop-color="#E9E9E9"/>
<stop offset="0.74" stop-color="#D7D7D7"/>
<stop offset="0.76" stop-color="#CCCCCC"/>
<stop offset="0.87" stop-color="#EAEAEA"/>
<stop offset="0.95" stop-color="white"/>
</radialGradient>
<radialGradient id="paint7_radial_211_9" cx="0" cy="0" r="1" gradientUnits="userSpaceOnUse" gradientTransform="translate(23.2042 127.752) scale(107.049 106.88)">
<stop offset="0.44" stop-color="white"/>
<stop offset="0.59" stop-color="#FCFCFC"/>
<stop offset="0.65" stop-color="#F5F5F5"/>
<stop offset="0.7" stop-color="#E9E9E9"/>
<stop offset="0.74" stop-color="#D7D7D7"/>
<stop offset="0.76" stop-color="#CCCCCC"/>
<stop offset="0.87" stop-color="#EAEAEA"/>
<stop offset="0.95" stop-color="white"/>
</radialGradient>
<radialGradient id="paint8_radial_211_9" cx="0" cy="0" r="1" gradientUnits="userSpaceOnUse" gradientTransform="translate(121.014 17.3573) scale(26.0459 26.0047)">
<stop stop-color="white"/>
<stop offset="0.14" stop-color="#F8F8F8"/>
<stop offset="0.34" stop-color="#E5E5E5"/>
<stop offset="0.58" stop-color="#C6C6C6"/>
<stop offset="0.85" stop-color="#9B9B9B"/>
<stop offset="1" stop-color="#808080"/>
</radialGradient>
<radialGradient id="paint9_radial_211_9" cx="0" cy="0" r="1" gradientUnits="userSpaceOnUse" gradientTransform="translate(16.3167 48.9939) scale(33.7942 33.7407)">
<stop offset="0.66" stop-color="white"/>
<stop offset="0.7" stop-color="#FBF7F7"/>
<stop offset="0.74" stop-color="#F2E2E2"/>
<stop offset="0.8" stop-color="#E3C0C0"/>
<stop offset="0.84" stop-color="#D9A9A9"/>
<stop offset="0.93" stop-color="#ECD6D6"/>
<stop offset="1" stop-color="white"/>
</radialGradient>
<radialGradient id="paint10_radial_211_9" cx="0" cy="0" r="1" gradientUnits="userSpaceOnUse" gradientTransform="translate(126.077 51.0851) scale(33.7942 33.7407)">
<stop offset="0.66" stop-color="white"/>
<stop offset="0.7" stop-color="#FBF7F7"/>
<stop offset="0.74" stop-color="#F2E2E2"/>
<stop offset="0.8" stop-color="#E3C0C0"/>
<stop offset="0.84" stop-color="#D9A9A9"/>
<stop offset="0.93" stop-color="#ECD6D6"/>
<stop offset="1" stop-color="white"/>
</radialGradient>
<radialGradient id="paint11_radial_211_9" cx="0" cy="0" r="1" gradientUnits="userSpaceOnUse" gradientTransform="translate(140.584 23.0663) scale(125.886 125.687)">
<stop offset="0.66" stop-color="white"/>
<stop offset="0.7" stop-color="#FBF7F7"/>
<stop offset="0.74" stop-color="#F2E2E2"/>
<stop offset="0.8" stop-color="#E3C0C0"/>
<stop offset="0.84" stop-color="#D9A9A9"/>
<stop offset="0.93" stop-color="#ECD6D6"/>
<stop offset="1" stop-color="white"/>
</radialGradient>
<radialGradient id="paint12_radial_211_9" cx="0" cy="0" r="1" gradientUnits="userSpaceOnUse" gradientTransform="translate(73.2785 -52.7926) scale(87.9805 87.8413)">
<stop offset="0.66" stop-color="white"/>
<stop offset="0.7" stop-color="#FBF7F7"/>
<stop offset="0.74" stop-color="#F2E2E2"/>
<stop offset="0.8" stop-color="#E3C0C0"/>
<stop offset="0.84" stop-color="#D9A9A9"/>
<stop offset="0.93" stop-color="#ECD6D6"/>
<stop offset="1" stop-color="white"/>
</radialGradient>
<radialGradient id="paint13_radial_211_9" cx="0" cy="0" r="1" gradientUnits="userSpaceOnUse" gradientTransform="translate(117.095 52.4065) scale(43.2642 43.1958)">
<stop stop-color="white"/>
<stop offset="0.14" stop-color="#F8F8F8"/>
<stop offset="0.34" stop-color="#E5E5E5"/>
<stop offset="0.58" stop-color="#C6C6C6"/>
<stop offset="0.85" stop-color="#9B9B9B"/>
<stop offset="1" stop-color="#808080"/>
</radialGradient>
<radialGradient id="paint14_radial_211_9" cx="0" cy="0" r="1" gradientUnits="userSpaceOnUse" gradientTransform="translate(98.3221 -34.4854) scale(78.4847 78.3606)">
<stop stop-color="white"/>
<stop offset="0.14" stop-color="#F8F8F8"/>
<stop offset="0.34" stop-color="#E5E5E5"/>
<stop offset="0.58" stop-color="#C6C6C6"/>
<stop offset="0.85" stop-color="#9B9B9B"/>
<stop offset="1" stop-color="#808080"/>
</radialGradient>
<radialGradient id="paint15_radial_211_9" cx="0" cy="0" r="1" gradientUnits="userSpaceOnUse" gradientTransform="translate(74.0623 -20.4118) scale(65.1469 65.0439)">
<stop offset="0.7" stop-color="white"/>
<stop offset="0.84" stop-color="#C78907"/>
<stop offset="0.87" stop-color="#D19E34"/>
<stop offset="0.94" stop-color="#EBD5A6"/>
<stop offset="1" stop-color="white"/>
</radialGradient>
<radialGradient id="paint16_radial_211_9" cx="0" cy="0" r="1" gradientUnits="userSpaceOnUse" gradientTransform="translate(-2.09668 61.0919) scale(57.3473 57.2566)">
<stop offset="0.7" stop-color="white"/>
<stop offset="0.84" stop-color="#C78907"/>
<stop offset="0.87" stop-color="#D19E34"/>
<stop offset="0.94" stop-color="#EBD5A6"/>
<stop offset="1" stop-color="white"/>
</radialGradient>
<linearGradient id="paint17_linear_211_9" x1="66.4683" y1="26.5172" x2="83.1136" y2="-17.2606" gradientUnits="userSpaceOnUse">
<stop offset="0.16"/>
<stop offset="0.23" stop-color="#0A0A0A"/>
<stop offset="0.35" stop-color="#252525"/>
<stop offset="0.51" stop-color="#525252"/>
<stop offset="0.7" stop-color="#8F8F8F"/>
<stop offset="0.91" stop-color="#DDDDDD"/>
<stop offset="1" stop-color="white"/>
</linearGradient>
<radialGradient id="paint18_radial_211_9" cx="0" cy="0" r="1" gradientUnits="userSpaceOnUse" gradientTransform="translate(96.0607 48.4166) scale(34.0897 34.0358)">
<stop offset="0.7" stop-color="white"/>
<stop offset="0.84" stop-color="#C78907"/>
<stop offset="0.87" stop-color="#D19E34"/>
<stop offset="0.94" stop-color="#EBD5A6"/>
<stop offset="1" stop-color="white"/>
</radialGradient>
<radialGradient id="paint19_radial_211_9" cx="0" cy="0" r="1" gradientUnits="userSpaceOnUse" gradientTransform="translate(108.756 54.6644) scale(25.2621 25.2221)">
<stop stop-color="white"/>
<stop offset="0.14" stop-color="#F8F8F8"/>
<stop offset="0.34" stop-color="#E5E5E5"/>
<stop offset="0.58" stop-color="#C6C6C6"/>
<stop offset="0.85" stop-color="#9B9B9B"/>
<stop offset="1" stop-color="#808080"/>
</radialGradient>
<radialGradient id="paint20_radial_211_9" cx="0" cy="0" r="1" gradientUnits="userSpaceOnUse" gradientTransform="translate(100.134 62.4261) scale(11.4489 11.4308)">
<stop stop-color="white"/>
<stop offset="0.14" stop-color="#F8F8F8"/>
<stop offset="0.34" stop-color="#E5E5E5"/>
<stop offset="0.58" stop-color="#C6C6C6"/>
<stop offset="0.85" stop-color="#9B9B9B"/>
<stop offset="1" stop-color="#808080"/>
</radialGradient>
<radialGradient id="paint21_radial_211_9" cx="0" cy="0" r="1" gradientUnits="userSpaceOnUse" gradientTransform="translate(98.1166 63.0419) scale(15.3037 15.2795)">
<stop offset="0.7" stop-color="white"/>
<stop offset="0.84" stop-color="#C78907"/>
<stop offset="0.87" stop-color="#D19E34"/>
<stop offset="0.94" stop-color="#EBD5A6"/>
<stop offset="1" stop-color="white"/>
</radialGradient>
<radialGradient id="paint22_radial_211_9" cx="0" cy="0" r="1" gradientUnits="userSpaceOnUse" gradientTransform="translate(109.912 63.2344) scale(14.2629 14.2404)">
<stop offset="0.44" stop-color="white"/>
<stop offset="0.48" stop-color="#F8F8F8"/>
<stop offset="0.53" stop-color="#E4E4E4"/>
<stop offset="0.6" stop-color="#C5C5C5"/>
<stop offset="0.67" stop-color="#999999"/>
<stop offset="0.76" stop-color="#616161"/>
<stop offset="0.85" stop-color="#B5B5B5"/>
<stop offset="0.92" stop-color="#EAEAEA"/>
<stop offset="0.95" stop-color="white"/>
</radialGradient>
<radialGradient id="paint23_radial_211_9" cx="0" cy="0" r="1" gradientUnits="userSpaceOnUse" gradientTransform="translate(110.94 65.441) scale(6.55324 6.54288)">
<stop stop-color="white"/>
<stop offset="0.14" stop-color="#F8F8F8"/>
<stop offset="0.34" stop-color="#E5E5E5"/>
<stop offset="0.58" stop-color="#C6C6C6"/>
<stop offset="0.85" stop-color="#9B9B9B"/>
<stop offset="1" stop-color="#808080"/>
</radialGradient>
<radialGradient id="paint24_radial_211_9" cx="0" cy="0" r="1" gradientUnits="userSpaceOnUse" gradientTransform="translate(96.9216 62.9136) scale(13.402 13.3808)">
<stop offset="0.7" stop-color="white"/>
<stop offset="0.84" stop-color="#C78907"/>
<stop offset="0.87" stop-color="#D19E34"/>
<stop offset="0.94" stop-color="#EBD5A6"/>
<stop offset="1" stop-color="white"/>
</radialGradient>
<radialGradient id="paint25_radial_211_9" cx="0" cy="0" r="1" gradientUnits="userSpaceOnUse" gradientTransform="translate(98.8361 67.5577) scale(10.7422 10.7252)">
<stop stop-color="#DBFFA1"/>
<stop offset="1" stop-color="#808080"/>
</radialGradient>
<linearGradient id="paint26_linear_211_9" x1="58.0775" y1="50.4565" x2="58.0775" y2="39.9237" gradientUnits="userSpaceOnUse">
<stop offset="0.16"/>
<stop offset="0.23" stop-color="#0A0A0A"/>
<stop offset="0.35" stop-color="#252525"/>
<stop offset="0.51" stop-color="#525252"/>
<stop offset="0.7" stop-color="#8F8F8F"/>
<stop offset="0.91" stop-color="#DDDDDD"/>
<stop offset="1" stop-color="white"/>
</linearGradient>
<linearGradient id="paint27_linear_211_9" x1="84.6117" y1="52.8941" x2="84.6117" y2="39.9751" gradientUnits="userSpaceOnUse">
<stop offset="0.16"/>
<stop offset="0.23" stop-color="#0A0A0A"/>
<stop offset="0.35" stop-color="#252525"/>
<stop offset="0.51" stop-color="#525252"/>
<stop offset="0.7" stop-color="#8F8F8F"/>
<stop offset="0.91" stop-color="#DDDDDD"/>
<stop offset="1" stop-color="white"/>
</linearGradient>
<radialGradient id="paint28_radial_211_9" cx="0" cy="0" r="1" gradientUnits="userSpaceOnUse" gradientTransform="translate(103.925 72.6125) scale(29.0913 29.0452)">
<stop stop-color="white"/>
<stop offset="0.14" stop-color="#F8F8F8"/>
<stop offset="0.34" stop-color="#E5E5E5"/>
<stop offset="0.58" stop-color="#C6C6C6"/>
<stop offset="0.85" stop-color="#9B9B9B"/>
<stop offset="1" stop-color="#808080"/>
</radialGradient>
<radialGradient id="paint29_radial_211_9" cx="0" cy="0" r="1" gradientUnits="userSpaceOnUse" gradientTransform="translate(72.2377 93.1263) scale(23.4246 23.3876)">
<stop stop-color="white"/>
<stop offset="0.14" stop-color="#F8F8F8"/>
<stop offset="0.34" stop-color="#E5E5E5"/>
<stop offset="0.58" stop-color="#C6C6C6"/>
<stop offset="0.85" stop-color="#9B9B9B"/>
<stop offset="1" stop-color="#808080"/>
</radialGradient>
<radialGradient id="paint30_radial_211_9" cx="0" cy="0" r="1" gradientUnits="userSpaceOnUse" gradientTransform="translate(72.2377 138.695) scale(54.2634 54.1776)">
<stop offset="0.44" stop-color="white"/>
<stop offset="0.48" stop-color="#F8FBFC"/>
<stop offset="0.53" stop-color="#E4F0F4"/>
<stop offset="0.6" stop-color="#C5DFE8"/>
<stop offset="0.67" stop-color="#99C6D7"/>
<stop offset="0.75" stop-color="#61A8C1"/>
<stop offset="0.76" stop-color="#61A8C1"/>
<stop offset="0.86" stop-color="#B5D6E2"/>
<stop offset="0.92" stop-color="#EAF3F7"/>
<stop offset="0.95" stop-color="white"/>
</radialGradient>
<clipPath id="clip0_211_9">
<rect width="108" height="152" fill="white" transform="translate(18 1)"/>
</clipPath>
</defs>
</svg>
