<svg xmlns="http://www.w3.org/2000/svg" width="108" height="152" viewBox="0 0 108 152" fill="none">
  <g clip-path="url(#clip0_0_1887)">
    <path style="mix-blend-mode:multiply" d="M108 139.992C108 133.359 83.8173 127.984 53.9936 127.984C24.1699 127.984 0 133.359 0 139.992C0 146.625 24.1827 152 53.9936 152C83.8044 152 108 146.625 108 139.992Z" fill="url(#paint0_radial_0_1887)"/>
    <path d="M66.8945 83.4538C64.8514 82.607 61.8061 83.7745 60.958 81.0804C60.5854 79.8873 60.7653 78.4504 60.7653 77.1675C60.7653 74.6016 61.215 72.4848 62.0631 70.1371L54.816 69.5983C54.7903 69.5213 54.7774 69.4443 54.7517 69.3545L54.1992 69.393C54.045 69.4058 53.8651 69.4186 53.6852 69.4315H53.5439C53.4411 69.4443 53.364 69.4571 53.2997 69.4571H53.1841H53.0813C53.017 69.4571 52.9142 69.4571 52.7986 69.4315H52.6701C52.5031 69.4058 52.3103 69.393 52.1561 69.3802L51.6036 69.3417C51.5779 69.4186 51.565 69.4956 51.5522 69.5854L44.3051 70.1243C45.1531 72.472 45.6157 74.5888 45.6157 77.1546C45.6157 78.4376 45.7956 79.8616 45.423 81.0675C44.5749 83.7617 41.5296 82.5942 39.4865 83.4409C36.8652 84.5314 36.7496 87.8413 36.801 90.3174C36.8909 94.2559 38.7926 98.3099 40.7329 101.646C40.7972 101.761 40.8743 101.889 40.9514 102.005C42.9173 105.34 45.1274 108.509 47.2476 111.768C48.2627 113.307 49.3678 115.232 50.717 116.502C51.1025 116.874 51.4622 117.092 51.8349 117.233C51.8349 117.284 51.8349 117.348 51.8349 117.4C52.3489 117.425 52.7857 117.451 53.1969 117.451C53.6081 117.451 54.045 117.425 54.559 117.4C54.559 117.336 54.559 117.284 54.5461 117.233C54.9188 117.092 55.2785 116.874 55.664 116.502C57.0132 115.244 58.1311 113.32 59.1334 111.768C61.2536 108.496 63.4637 105.34 65.4296 102.005C65.5067 101.876 65.571 101.761 65.6481 101.646C67.5884 98.3099 69.4901 94.2559 69.58 90.3174C69.6314 87.8413 69.5158 84.5314 66.8945 83.4409V83.4538Z" fill="#F2B3B2"/>
    <path style="mix-blend-mode:multiply" d="M66.8945 83.4538C64.8514 82.607 61.8061 83.7745 60.958 81.0804C60.5854 79.8873 60.7653 78.4504 60.7653 77.1675C60.7653 74.6016 61.215 72.4848 62.0631 70.1371L54.816 69.5983C54.7903 69.5213 54.7774 69.4443 54.7517 69.3545L54.1992 69.393C54.045 69.4058 53.8651 69.4186 53.6852 69.4315H53.5439C53.4411 69.4443 53.364 69.4571 53.2997 69.4571H53.1841H53.0813C53.017 69.4571 52.9142 69.4571 52.7986 69.4315H52.6701C52.5031 69.4058 52.3103 69.393 52.1561 69.3802L51.6036 69.3417C51.5779 69.4186 51.565 69.4956 51.5522 69.5854L44.3051 70.1243C45.1531 72.472 45.6157 74.5888 45.6157 77.1546C45.6157 78.4376 45.7956 79.8616 45.423 81.0675C44.5749 83.7617 41.5296 82.5942 39.4865 83.4409C36.8652 84.5314 36.7496 87.8413 36.801 90.3174C36.8909 94.2559 38.7926 98.3099 40.7329 101.646C40.7972 101.761 40.8743 101.889 40.9514 102.005C42.9173 105.34 45.1274 108.509 47.2476 111.768C48.2627 113.307 49.3678 115.232 50.717 116.502C51.1025 116.874 51.4622 117.092 51.8349 117.233C51.8349 117.284 51.8349 117.348 51.8349 117.4C52.3489 117.425 52.7857 117.451 53.1969 117.451C53.6081 117.451 54.045 117.425 54.559 117.4C54.559 117.336 54.559 117.284 54.5461 117.233C54.9188 117.092 55.2785 116.874 55.664 116.502C57.0132 115.244 58.1311 113.32 59.1334 111.768C61.2536 108.496 63.4637 105.34 65.4296 102.005C65.5067 101.876 65.571 101.761 65.6481 101.646C67.5884 98.3099 69.4901 94.2559 69.58 90.3174C69.6314 87.8413 69.5158 84.5314 66.8945 83.4409V83.4538Z" fill="url(#paint1_radial_0_1887)"/>
    <path style="mix-blend-mode:multiply" d="M69.5801 90.3302C69.4902 94.2687 67.5884 98.3227 65.6482 101.658C65.5711 101.787 65.5068 101.902 65.4297 102.018C63.4637 105.366 61.2536 108.522 59.1335 111.781C58.1312 113.32 57.0261 115.257 55.6641 116.514C55.2786 116.874 54.9188 117.092 54.5462 117.246C54.5462 117.31 54.5462 117.361 54.5462 117.413C54.0194 117.451 53.5825 117.477 53.1841 117.477C52.7858 117.477 52.3361 117.451 51.8221 117.413C51.8221 117.361 51.8221 117.31 51.8221 117.246C51.4623 117.092 51.0897 116.874 50.7042 116.514C49.3421 115.257 48.2371 113.32 47.2348 111.781C45.1018 108.509 42.9046 105.353 40.9386 102.018C40.8615 101.889 40.7844 101.774 40.7201 101.658C38.7799 98.3227 36.8781 94.2687 36.7882 90.3302V90.189C36.7496 87.7387 36.9038 84.5185 39.4737 83.4537C41.5168 82.607 44.5621 83.7745 45.4102 81.0932C45.7957 79.8872 45.6158 78.4632 45.6158 77.1803C45.6158 75.2559 45.3588 73.5753 44.8705 71.869C44.7035 71.2917 44.5107 70.7272 44.3051 70.1499L51.5394 69.611C51.5651 69.5341 51.578 69.4571 51.6037 69.3801L52.1433 69.4186C52.2975 69.4443 52.4903 69.4571 52.6702 69.4699H52.7987C52.9143 69.4828 53.0043 69.4828 53.0685 69.4956H53.1713H53.2869C53.3512 69.4956 53.4283 69.4956 53.5439 69.4828H53.6853C53.8523 69.4571 54.0322 69.4443 54.1864 69.4314L54.7389 69.393C54.7646 69.4828 54.7775 69.5597 54.8032 69.6239L62.0374 70.1627C61.2922 72.2025 60.8553 74.0756 60.7525 76.2309C60.7396 76.5516 60.7397 76.8724 60.7397 77.1931C60.7397 78.476 60.5469 79.9 60.9324 81.106C61.7805 83.8001 64.8258 82.6327 66.8689 83.4665C68.9376 84.3261 69.4516 86.5712 69.5544 88.7009C69.5801 89.2653 69.5801 89.8298 69.5544 90.343L69.5801 90.3302Z" fill="url(#paint2_radial_0_1887)"/>
    <g style="mix-blend-mode:overlay" opacity="0.6">
      <path d="M48.6225 94.7692C45.9498 95.1925 43.0587 92.755 40.7587 91.6902C39.615 91.1513 38.1759 90.7151 36.801 90.1891C36.7625 87.7388 36.9167 84.5187 39.4866 83.4538C41.5296 82.6071 44.575 83.7746 45.423 81.0933C45.8085 79.8873 45.6286 78.4633 45.6286 77.1804C45.6286 75.256 45.3716 73.5754 44.8833 71.8691C48.7253 71.0095 56.5121 73.1135 59.0949 72.254L60.1357 76.4234C62.5257 82.4916 50.8327 81.1574 47.0164 83.0946C38.3943 87.4822 47.8002 89.2013 48.6225 94.7692Z" fill="#1D1D1B"/>
    </g>
    <g style="mix-blend-mode:overlay" opacity="0.3">
      <path d="M69.5673 88.6881C69.2846 88.9318 69.0276 89.1243 68.822 89.2654C65.1727 91.6773 60.3542 92.7549 56.0881 93.4477C57.7457 91.0871 59.0435 87.6746 58.6966 84.8009C58.3753 84.7239 58.0927 84.7752 57.7714 84.6854C56.5764 82.6712 57.206 79.5666 57.3602 78.1425L60.7654 76.2181C60.7525 76.5389 60.7525 76.8596 60.7525 77.1803C60.7525 78.4632 60.5598 79.8873 60.9452 81.0932C61.7933 83.7873 64.8386 82.6199 66.8817 83.4538C68.9505 84.3133 69.4645 86.5584 69.5673 88.6881Z" fill="white"/>
    </g>
    <path d="M96.1528 91.5105C95.3947 90.2019 94.5209 89.0217 93.493 88.0723C88.0576 83.0689 80.0652 87.2769 74.0645 84.0439L71.4561 85.1601V91.7543L63.1553 92.075L53.1327 96.5267L51.9249 95.6672C46.194 94.6665 40.4503 91.1 34.7194 89.7401L34.9121 85.1344L32.3551 84.0439C26.3544 87.2769 18.362 83.0689 12.9266 88.0723C11.8987 89.0088 11.0378 90.1891 10.2668 91.5105C5.66668 103.519 3.98339 116.643 3.79065 129.434C6.2192 134.475 11.1277 138.401 16.6273 138.658C16.7815 138.17 17.6039 138.055 18.2078 138.491C22.4867 141.544 32.702 145.444 36.0043 146.432C40.9771 147.92 45.0761 148.164 49.6376 148.305C49.6376 148.395 49.6376 148.472 49.6376 148.549C50.884 148.485 52.0662 148.434 53.2098 148.408C54.3534 148.446 55.5356 148.485 56.782 148.549C56.782 148.472 56.782 148.382 56.782 148.305C61.3435 148.177 65.4425 147.92 70.4153 146.432C73.7176 145.444 83.9329 141.544 88.2118 138.491C88.8158 138.055 89.6381 138.157 89.7923 138.658C95.2919 138.401 100.213 134.475 102.629 129.434C102.423 116.643 100.753 103.519 96.1528 91.5105Z" fill="white"/>
    <path style="mix-blend-mode:multiply" d="M96.1528 91.5105C95.3947 90.2019 94.5209 89.0217 93.493 88.0723C88.0576 83.0689 80.0652 87.2769 74.0645 84.0439L71.4561 85.1601V91.7543L63.1553 92.075L53.1327 96.5267L51.9249 95.6672C46.194 94.6665 40.4503 91.1 34.7194 89.7401L34.9121 85.1344L32.3551 84.0439C26.3544 87.2769 18.362 83.0689 12.9266 88.0723C11.8987 89.0088 11.0378 90.1891 10.2668 91.5105C5.66668 103.519 3.98339 116.643 3.79065 129.434C6.2192 134.475 11.1277 138.401 16.6273 138.658C16.7815 138.17 17.6039 138.055 18.2078 138.491C22.4867 141.544 32.702 145.444 36.0043 146.432C40.9771 147.92 45.0761 148.164 49.6376 148.305C49.6376 148.395 49.6376 148.472 49.6376 148.549C50.884 148.485 52.0662 148.434 53.2098 148.408C54.3534 148.446 55.5356 148.485 56.782 148.549C56.782 148.472 56.782 148.382 56.782 148.305C61.3435 148.177 65.4425 147.92 70.4153 146.432C73.7176 145.444 83.9329 141.544 88.2118 138.491C88.8158 138.055 89.6381 138.157 89.7923 138.658C95.2919 138.401 100.213 134.475 102.629 129.434C102.423 116.643 100.753 103.519 96.1528 91.5105Z" fill="url(#paint3_radial_0_1887)"/>
    <g style="mix-blend-mode:multiply" opacity="0.2">
      <path d="M75.0796 93.3579C73.422 91.2796 70.7365 90.0223 67.8453 88.9575C65.738 89.6888 63.0525 90.3174 60.444 91.1513C60.5083 92.8448 59.6088 94.4228 58.1697 95.308C61.1508 95.5774 64.4402 96.9116 67.2029 98.6949C69.1945 99.9778 70.9164 101.492 72.06 103.005C72.6125 102.877 73.2164 102.852 73.8846 102.954C73.9874 102.967 74.0645 103.005 74.1544 103.018C74.9768 101.748 77.8808 99.9008 78.0735 97.7968C77.9322 97.5916 75.6835 95.3336 75.0668 93.3451L75.0796 93.3579Z" fill="#1D1D1B"/>
    </g>
    <g style="mix-blend-mode:multiply" opacity="0.2">
      <path d="M42.2235 90.7793C41.5553 91.5875 40.643 92.1905 39.6022 92.3957C37.0323 92.9217 34.6937 91.2283 34.0897 88.7651C33.7557 87.4052 33.8328 86.1479 34.1797 84.9677C32.959 85.5578 31.8411 86.3275 30.8774 87.4308C29.7723 88.6753 28.4874 89.0473 27.3052 88.8164C25.5577 91.177 23.7331 93.7556 22.3582 96.5011C22.8464 97.1425 23.1805 97.8995 23.3347 98.6949C26.0974 99.6057 29.1041 101.274 30.826 103.698C30.9159 103.673 30.993 103.647 31.0958 103.621C31.764 103.48 32.3551 103.493 32.9204 103.596C33.9998 102.03 35.6445 100.44 37.5848 99.0797C41.8894 96.0392 47.5817 94.0892 51.3466 95.9109C51.4494 95.9622 51.5522 96.0264 51.6679 96.0905L51.3723 94.6793C49.1622 92.6908 45.6414 91.626 42.2235 90.7921V90.7793Z" fill="#1D1D1B"/>
    </g>
    <path style="mix-blend-mode:multiply" d="M96.1528 91.5105C95.3947 90.2019 94.5209 89.0217 93.493 88.0723C88.0576 83.0689 80.0652 87.2769 74.0645 84.0439L71.4561 85.1601V91.7543L63.1553 92.075L53.1327 96.5267L51.9249 95.6672C46.194 94.6665 40.4503 91.1 34.7194 89.7401L34.9121 85.1344L32.3551 84.0439C26.3544 87.2769 18.362 83.0689 12.9266 88.0723C11.8987 89.0088 11.0378 90.1891 10.2668 91.5105C5.66668 103.519 3.98339 116.643 3.79065 129.434C6.2192 134.475 11.1277 138.401 16.6273 138.658C16.7815 138.17 17.6039 138.055 18.2078 138.491C22.4867 141.544 32.702 145.444 36.0043 146.432C40.9771 147.92 45.0761 148.164 49.6376 148.305C49.6376 148.395 49.6376 148.472 49.6376 148.549C50.884 148.485 52.0662 148.434 53.2098 148.408C54.3534 148.446 55.5356 148.485 56.782 148.549C56.782 148.472 56.782 148.382 56.782 148.305C61.3435 148.177 65.4425 147.92 70.4153 146.432C73.7176 145.444 83.9329 141.544 88.2118 138.491C88.8158 138.055 89.6381 138.157 89.7923 138.658C95.2919 138.401 100.213 134.475 102.629 129.434C102.423 116.643 100.753 103.519 96.1528 91.5105Z" fill="url(#paint4_radial_0_1887)"/>
    <path style="mix-blend-mode:multiply" d="M102.629 129.434C102.514 129.677 102.385 129.921 102.257 130.165C99.8151 134.706 95.3178 138.183 90.2808 138.619C90.1266 138.645 89.9596 138.658 89.7925 138.671C89.6383 138.183 88.8288 138.068 88.2249 138.504C88.0835 138.594 87.955 138.696 87.8137 138.799C86.6701 139.556 85.2053 140.364 83.5862 141.159C78.8319 143.494 72.8183 145.727 70.4283 146.445C65.4556 147.933 61.3694 148.19 56.8079 148.318C56.8079 148.408 56.8079 148.485 56.7822 148.562C55.5358 148.498 54.3665 148.459 53.21 148.421C52.0793 148.459 50.8843 148.498 49.6507 148.562C49.6379 148.485 49.6379 148.408 49.6379 148.318C45.0634 148.19 40.9773 147.933 36.0045 146.445C33.6145 145.739 27.601 143.494 22.8467 141.159C21.0734 140.287 19.4672 139.402 18.2979 138.581C18.2722 138.555 18.2337 138.529 18.208 138.517C17.6041 138.08 16.7945 138.196 16.6404 138.683C16.4733 138.683 16.3063 138.658 16.1521 138.645C10.8452 138.17 6.15517 134.334 3.80371 129.446C3.84226 127.201 3.91936 124.943 4.0607 122.685C4.67748 112.076 6.47641 101.415 10.2799 91.5233C11.038 90.2148 11.9117 89.0345 12.9269 88.0851C16.7303 84.6084 21.7545 85.5963 26.4959 85.4167C28.5518 85.3269 30.5435 85.0446 32.3681 84.0568L34.938 85.1473L34.7324 89.7658C40.4762 91.1256 46.207 94.6921 51.9379 95.6928L53.1586 96.5396L63.1812 92.0878L71.482 91.7671V85.1601L74.0904 84.0439C74.1932 84.0953 74.2832 84.1466 74.386 84.1979C80.361 87.1486 88.1735 83.1459 93.5189 88.0595C94.5468 89.0088 95.4078 90.1891 96.1659 91.4977C100.766 103.493 102.449 116.63 102.642 129.421L102.629 129.434Z" fill="url(#paint5_radial_0_1887)"/>
    <g style="mix-blend-mode:overlay" opacity="0.1">
      <path d="M102.629 129.434C102.513 129.677 102.385 129.921 102.256 130.165C101.434 124.879 100.265 119.85 98.1573 114.872C95.3689 108.304 93.57 100.594 88.4431 95.4106C84.7167 91.6644 75.4908 90.2661 71.4689 87.495L74.3729 84.2107C80.3479 87.1614 88.1604 83.1587 93.5058 88.0723C94.5337 89.0216 95.3946 90.2019 96.1528 91.5105C100.753 103.506 102.436 116.643 102.629 129.434Z" fill="white"/>
    </g>
    <path d="M74.0518 16.1519C76.9815 14.3943 80.9648 16.6138 83.7146 14.2275C89.8438 18.2046 88.4047 29.8791 86.7085 35.7421C84.2414 44.2863 75.2853 51.5604 70.274 59.0398C67.3443 53.6388 70.4025 46.5314 70.6467 40.6685C70.9036 34.7029 69.6058 29.135 69.6058 23.131C70.6981 21.1938 71.6104 18.7691 73.011 17.0628C73.3322 16.6779 73.6791 16.37 74.0518 16.1519Z" fill="#45290F"/>
    <path style="mix-blend-mode:overlay" d="M86.7085 35.7421C86.6442 35.9731 86.5671 36.204 86.5029 36.4349C83.7531 44.6841 75.1568 51.7658 70.2868 59.0527C67.3572 53.6388 70.4153 46.5315 70.6595 40.6814C70.9036 34.7158 69.6187 29.1479 69.6187 23.1567C70.698 21.2195 71.6232 18.7948 73.0109 17.0885C73.3322 16.6908 73.6791 16.3958 74.0389 16.1777C76.9814 14.4072 80.9648 16.6395 83.7017 14.2661C84.8325 15.0102 85.7062 16.0109 86.3744 17.1912C89.2912 22.3741 88.0834 30.9953 86.7085 35.7678V35.7421Z" fill="url(#paint6_radial_0_1887)"/>
    <path d="M26.8042 38.4876C24.3885 36.2297 20.8548 38.0642 19.8397 40.3991C18.7989 42.7854 19.814 46.339 20.8163 48.6355C22.6152 52.7408 26.6114 58.9116 31.1601 53.4592L26.8042 38.4876Z" fill="#DBA2A1"/>
    <path style="mix-blend-mode:multiply" d="M31.1602 53.4592C30.8903 53.7671 30.6333 54.0365 30.3763 54.2802C27.0226 57.4106 24.0287 54.447 22.0884 51.1628C21.5873 50.3032 21.1504 49.4308 20.8035 48.6482C20.1096 47.0446 19.4029 44.8765 19.39 42.8879C19.39 41.9899 19.5057 41.1432 19.8269 40.4119C20.8549 38.0642 24.3885 36.2296 26.7913 38.4875L26.8556 38.6928L31.1602 53.472V53.4592Z" fill="url(#paint7_radial_0_1887)"/>
    <g style="mix-blend-mode:overlay" opacity="0.3">
      <path d="M26.8684 38.68C26.7785 39.129 26.5343 39.5652 26.0846 39.9757C24.9153 41.079 21.8957 40.4376 20.418 41.6692C20.0453 41.9642 19.7113 42.3876 19.39 42.8623C19.39 41.9771 19.5057 41.1304 19.8269 40.3991C20.8549 38.0514 24.3885 36.2168 26.7913 38.4747L26.8556 38.68H26.8684Z" fill="white"/>
    </g>
    <g style="mix-blend-mode:overlay" opacity="0.3">
      <path d="M30.3763 54.2802C27.0226 57.4106 24.0287 54.447 22.0884 51.1628C22.4096 50.9575 22.6795 50.6752 22.9364 50.3673C24.2342 48.7252 24.684 46.0439 23.9773 44.0811C24.7225 45.5692 26.4444 48.8535 27.7293 50.8035C28.3846 51.8042 29.5025 53.0102 30.3763 54.2802Z" fill="#1D1D1B"/>
    </g>
    <path d="M79.5898 38.4876C82.0055 36.2297 85.5392 38.0642 86.5671 40.3991C87.6079 42.7854 86.5928 46.339 85.5905 48.6355C83.7916 52.7408 79.7954 58.9116 75.2467 53.4592L79.6027 38.4876H79.5898Z" fill="#DBA2A1"/>
    <path style="mix-blend-mode:multiply" d="M86.8241 44.5685C86.5671 46.031 86.0659 47.4936 85.5648 48.6482C84.8966 50.1492 83.9458 51.9453 82.7636 53.3308C80.8362 55.6144 78.3306 56.8075 75.5808 53.8825C75.4651 53.7542 75.3366 53.6131 75.2081 53.4591L79.5641 38.4747C79.8082 38.2437 80.0524 38.077 80.3222 37.923C82.6737 36.5759 85.6162 38.2822 86.5414 40.399C87.0682 41.5921 87.0682 43.0803 86.8112 44.5685H86.8241Z" fill="url(#paint8_radial_0_1887)"/>
    <g style="mix-blend-mode:overlay" opacity="0.3">
      <path d="M82.7765 53.3308C80.8491 55.6144 78.3434 56.8075 75.5936 53.8825C76.3132 52.3815 77.2384 50.8548 77.4568 49.6874L82.4167 41.8744C82.5067 44.7353 81.2988 47.4936 81.6329 50.4699C81.7999 52.0094 81.9541 52.3173 82.7765 53.3437V53.3308Z" fill="#1D1D1B"/>
    </g>
    <g style="mix-blend-mode:overlay" opacity="0.3">
      <path d="M86.8241 44.5685C85.8861 41.7076 83.9586 39.8859 79.7954 39.7832L80.3351 37.923C82.6865 36.5759 85.6291 38.2822 86.5542 40.399C87.0811 41.5921 87.0811 43.0803 86.8241 44.5685Z" fill="white"/>
    </g>
    <path d="M81.7871 24.4781L54.5333 21.2837C54.5076 21.181 54.4819 21.0784 54.4562 20.9758L53.1969 21.1169L51.9377 20.9758C51.8991 21.0656 51.8734 21.181 51.8606 21.2837C51.8606 21.2837 27.2153 17.0885 24.6068 24.4781C20.3408 36.6145 26.1873 55.0116 31.8411 65.6598C35.3233 72.2155 40.8614 76.4234 49.6762 78.8225C60.4055 81.7475 70.1454 73.9602 74.5528 65.6726C80.2194 55.0116 86.0659 36.6145 81.7999 24.4781H81.7871Z" fill="#F2B3B2"/>
    <path style="mix-blend-mode:multiply" d="M81.7871 24.4781L54.5333 21.2837C54.5076 21.181 54.4819 21.0784 54.4562 20.9758L53.1969 21.1169L51.9377 20.9758C51.8991 21.0656 51.8734 21.181 51.8606 21.2837C51.8606 21.2837 27.2153 17.0885 24.6068 24.4781C20.3408 36.6145 26.1873 55.0116 31.8411 65.6598C35.3233 72.2155 40.8614 76.4234 49.6762 78.8225C60.4055 81.7475 70.1454 73.9602 74.5528 65.6726C80.2194 55.0116 86.0659 36.6145 81.7999 24.4781H81.7871Z" fill="url(#paint9_radial_0_1887)"/>
    <path style="mix-blend-mode:multiply" d="M74.5528 65.6598C70.1454 73.9602 60.3927 81.7347 49.6633 78.8097C40.8486 76.4234 35.3233 72.2026 31.8282 65.6598C26.1616 55.0116 20.3151 36.6145 24.594 24.4781C27.2153 17.0885 51.8477 21.2837 51.8477 21.2837C51.8606 21.181 51.8991 21.0784 51.9248 20.9758L53.1841 21.1169L54.4433 20.9758C54.4819 21.0656 54.5076 21.1682 54.5204 21.2837L81.7742 24.4781C82.6865 27.0825 83.1362 29.9819 83.2262 33.0352C83.5474 44.1709 78.9859 57.308 74.5399 65.6726L74.5528 65.6598Z" fill="url(#paint10_radial_0_1887)"/>
    <path style="mix-blend-mode:overlay" d="M74.5528 65.6597C71.2119 71.946 64.8129 77.9372 57.2445 79.1945C54.8288 79.5922 52.2846 79.5281 49.6633 78.8225C47.7745 78.3093 46.0398 77.7192 44.4464 77.0264C38.5742 74.5247 34.578 70.8171 31.8282 65.6726C26.1616 55.0243 20.3151 36.6273 24.594 24.4909C25.3135 22.4767 27.6778 21.3093 30.7617 20.7063C38.8698 19.0898 51.8477 21.2965 51.8477 21.2965C51.8606 21.1938 51.8991 21.0912 51.9248 20.9886L53.1841 21.1297L54.4433 20.9886C54.4819 21.0784 54.5076 21.181 54.5204 21.2965L81.7742 24.4909C82.5323 26.6334 82.9692 28.9683 83.1491 31.4315C83.9843 42.888 79.1915 56.9102 74.5271 65.6726L74.5528 65.6597Z" fill="url(#paint11_radial_0_1887)"/>
    <g style="mix-blend-mode:overlay" opacity="0.3">
      <path d="M81.7871 24.4653L54.5334 21.2708C54.5077 21.1682 54.482 21.0655 54.4563 20.9629L53.197 21.104L51.9378 20.9629C51.8992 21.0527 51.8735 21.1554 51.8607 21.2708C51.8607 21.2708 30.7489 17.6915 25.5449 23.0156C25.5449 23.0156 25.5449 23.0156 25.5449 23.0284C25.3522 23.2337 25.1723 23.4518 25.0181 23.6827C25.0181 23.6827 25.0052 23.6955 24.9924 23.7084C24.8382 23.9521 24.7097 24.1959 24.6197 24.4524C20.3409 36.6017 26.2002 54.9987 31.854 65.6469C34.5909 70.7914 38.6 74.499 44.4722 77.0007C41.6325 74.8326 39.1654 72.2411 37.5463 69.47C33.1518 61.9521 28.4746 53.0102 28.5131 44.1324C28.526 39.2445 28.8986 33.6638 29.8366 28.468C38.0346 33.6638 48.6097 36.0372 57.7329 34.3951C64.4275 33.2019 69.8628 28.8015 76.1462 27.0824C81.1061 25.7354 81.2603 30.0203 83.2648 33.0223C83.1877 29.969 82.738 27.0696 81.8128 24.4653H81.7871Z" fill="#1D1D1B"/>
    </g>
    <g style="mix-blend-mode:overlay" opacity="0.1">
      <path d="M74.5529 65.6597C71.212 71.946 64.813 77.9372 57.2446 79.1945C58.8894 76.975 60.5213 74.6914 61.4593 71.9075C64.7359 62.1702 65.6867 52.0864 67.46 42.0412C68.4365 36.4477 67.2672 32.6887 72.6769 29.9818C74.4758 29.0837 76.8401 27.634 78.9346 28.2114C79.5128 28.3781 81.1447 30.1999 81.7101 30.5976C82.1213 30.8927 82.6481 31.1621 83.1749 31.4186C84.0101 42.8751 79.2173 56.8974 74.5529 65.6597Z" fill="white"/>
    </g>
    <path d="M57.296 40.3606H49.0852V42.1823H57.296V40.3606Z" fill="#393D4F"/>
    <path d="M88.88 6.74819C85.642 9.00612 83.8944 11.1229 79.3586 10.8792C74.6685 10.6354 72.6768 9.1729 69.8499 5.67054C64.0548 -1.48814 53.7624 -0.461802 44.7163 1.23165C37.5849 1.56521 29.7595 2.69417 23.4761 6.0041C19.7369 7.97979 15.9335 10.5585 15.548 15.1C15.3295 17.73 16.91 20.3471 16.8201 23.0797C16.7044 26.8387 15.2653 29.5584 16.1005 33.5227C16.6659 36.1526 17.9251 38.68 19.6213 41.0534C19.6855 40.8353 19.7369 40.6044 19.8269 40.3991C20.4051 39.0905 21.7543 37.9359 23.2705 37.5767C22.8979 32.8812 23.232 28.3525 24.594 24.4781C24.7996 23.8751 25.1722 23.362 25.6477 22.9001C30.7361 25.0169 35.4004 26.3512 40.8615 27.493C48.7768 29.1479 56.2295 29.8792 64.0677 28.0703C69.6315 26.7873 75.2339 25.0554 80.8363 23.9649C82.3396 23.6699 83.7274 22.8745 84.9609 21.8096C87.2225 19.8468 88.9571 16.9602 89.8823 14.5355C90.9873 11.6233 90.0493 9.37817 88.8415 6.76102L88.88 6.74819Z" fill="#45290F"/>
    <path style="mix-blend-mode:overlay" d="M88.88 6.74819C85.642 9.00612 83.8944 11.1229 79.3586 10.8792C74.6685 10.6354 72.6768 9.1729 69.8499 5.67054C64.0548 -1.48814 53.7624 -0.461802 44.7163 1.23165C37.5849 1.56521 29.7595 2.69417 23.4761 6.0041C19.7369 7.97979 15.9335 10.5585 15.548 15.1C15.3295 17.73 16.91 20.3471 16.8201 23.0797C16.7044 26.8387 15.2653 29.5584 16.1005 33.5227C16.6659 36.1526 17.9251 38.68 19.6213 41.0534C19.6855 40.8353 19.7369 40.6044 19.8269 40.3991C20.4051 39.0905 21.7543 37.9359 23.2705 37.5767C22.8979 32.8812 23.232 28.3525 24.594 24.4781C24.7996 23.8751 25.1722 23.362 25.6477 22.9001C30.7361 25.0169 35.4004 26.3512 40.8615 27.493C48.7768 29.1479 56.2295 29.8792 64.0677 28.0703C69.6315 26.7873 75.2339 25.0554 80.8363 23.9649C82.3396 23.6699 83.7274 22.8745 84.9609 21.8096C87.2225 19.8468 88.9571 16.9602 89.8823 14.5355C90.9873 11.6233 90.0493 9.37817 88.8415 6.76102L88.88 6.74819Z" fill="url(#paint12_radial_0_1887)"/>
    <path style="mix-blend-mode:multiply" d="M88.88 6.74819C85.642 9.00612 83.8944 11.1229 79.3586 10.8792C74.6685 10.6354 72.6768 9.1729 69.8499 5.67054C64.0548 -1.48814 53.7624 -0.461802 44.7163 1.23165C37.5849 1.56521 29.7595 2.69417 23.4761 6.0041C19.7369 7.97979 15.9335 10.5585 15.548 15.1C15.3295 17.73 16.91 20.3471 16.8201 23.0797C16.7044 26.8387 15.2653 29.5584 16.1005 33.5227C16.6659 36.1526 17.9251 38.68 19.6213 41.0534C19.6855 40.8353 19.7369 40.6044 19.8269 40.3991C20.4051 39.0905 21.7543 37.9359 23.2705 37.5767C22.8979 32.8812 23.232 28.3525 24.594 24.4781C24.7996 23.8751 25.1722 23.362 25.6477 22.9001C30.7361 25.0169 35.4004 26.3512 40.8615 27.493C48.7768 29.1479 56.2295 29.8792 64.0677 28.0703C69.6315 26.7873 75.2339 25.0554 80.8363 23.9649C82.3396 23.6699 83.7274 22.8745 84.9609 21.8096C87.2225 19.8468 88.9571 16.9602 89.8823 14.5355C90.9873 11.6233 90.0493 9.37817 88.8415 6.76102L88.88 6.74819Z" fill="url(#paint13_radial_0_1887)"/>
    <path style="mix-blend-mode:multiply" d="M89.908 14.5226C88.9956 16.9474 87.2481 19.8339 84.9866 21.7968C83.753 22.8616 82.3653 23.6698 80.8619 23.9649C78.1121 24.4909 75.3752 25.1837 72.6382 25.8893C69.7856 26.6334 66.9331 27.4031 64.0805 28.0702C56.2294 29.8792 48.7767 29.1479 40.8743 27.4801C35.4004 26.3511 30.7489 25.0169 25.6476 22.9001C25.1722 23.3619 24.7996 23.8751 24.594 24.4653C23.2319 28.3525 22.8978 32.8684 23.2705 37.5638C21.7542 37.9359 20.405 39.0777 19.8268 40.3863C19.7369 40.5915 19.6726 40.8224 19.6212 41.0534C18.5547 39.5524 17.6553 38 16.9999 36.3964C16.6144 35.447 16.3061 34.4977 16.1005 33.5226C15.2652 29.5584 16.7172 26.8386 16.8329 23.0669C16.9228 20.3343 15.3295 17.7299 15.5479 15.0871C15.9206 10.5584 19.724 7.96694 23.4761 5.99125C29.7723 2.68133 37.5977 1.53953 44.7163 1.2188C53.7623 -0.487478 64.0548 -1.51381 69.837 5.64486C72.6639 9.16006 74.6556 10.6098 79.3457 10.8535C83.8944 11.0844 85.6419 8.98045 88.8671 6.72251C90.0621 9.33966 91.013 11.5848 89.8951 14.5098L89.908 14.5226Z" fill="url(#paint14_radial_0_1887)"/>
    <path style="mix-blend-mode:screen" d="M88.9314 14.1506C89.7152 12.0851 89.3426 10.4558 88.4431 8.33897C88.2504 8.48009 88.0704 8.62121 87.8777 8.76233C85.6162 10.4686 83.6631 11.9311 80.0267 11.9311C79.7825 11.9311 79.5384 11.9311 79.2814 11.9183C74.1673 11.6489 71.9058 9.90413 69.0147 6.32479C66.1492 2.77111 61.7675 1.052 55.6255 1.052C51.8477 1.052 47.9029 1.70629 44.8833 2.27077H44.8062L44.7291 2.2836C35.9144 2.69414 29.1041 4.20798 23.9258 6.94059C20.3022 8.85214 16.8843 11.1742 16.5502 15.2026C16.5502 15.3309 16.5502 15.472 16.5502 15.6003C24.4269 6.23499 39.1139 2.54019 51.0254 5.09319C44.7677 6.13235 40.5916 10.3018 36.4155 13.4322C45.8085 16.5496 55.1886 15.5105 63.5408 11.341C63.5408 14.4713 60.4183 15.5105 58.3239 16.5496C67.7169 17.5888 78.1506 19.68 86.49 12.3802C88.2118 15.8055 84.2927 18.5253 83.4189 21.6941C83.7145 21.4889 84.01 21.2579 84.3055 21.0014C86.1944 19.3592 87.9291 16.7934 88.9442 14.1378L88.9314 14.1506Z" fill="url(#paint15_linear_0_1887)"/>
    <path d="M66.3034 67.3789C65.4425 69.0082 66.2263 68.8157 65.1213 70.8941C64.119 72.7928 60.4184 76.0129 58.5937 76.6287C54.816 77.9116 49.355 74.3708 46.1426 72.8954C49.3036 72.5362 52.683 71.7793 56.1009 70.6246C58.915 69.6753 61.562 68.5078 63.9263 67.2249C64.4274 66.9427 65.8023 67.6739 66.2906 67.3789H66.3034Z" fill="white"/>
    <path d="M92.979 66.7758V73.0236C92.979 73.9601 91.7069 74.6786 90.0236 74.6914C86.6313 74.7299 83.5603 74.6786 80.7591 74.5631C79.0758 74.499 77.4954 74.4092 76.0177 74.2937C71.1734 73.9217 67.3571 73.3187 64.2989 72.5618C63.8107 72.4463 63.1682 71.9844 63.1682 71.5226C62.8469 70.3808 62.8469 69.4443 63.1682 68.3025C63.1682 67.8278 63.8492 67.3916 64.3503 67.2633C67.4214 66.5064 71.2634 65.9034 76.1462 65.5442C77.6496 65.4287 79.2429 65.3518 80.939 65.2876C83.7145 65.1722 86.7855 65.1337 90.165 65.1593C91.7968 65.1722 92.9662 65.8778 92.9662 66.7886L92.979 66.7758Z" fill="#452400"/>
    <path style="mix-blend-mode:multiply" d="M92.979 66.7758V73.0236C92.979 73.9601 91.7069 74.6786 90.0236 74.6914C86.6313 74.7299 83.5603 74.6786 80.7591 74.5631C79.0758 74.499 77.4954 74.4092 76.0177 74.2937C71.1734 73.9217 67.3571 73.3187 64.2989 72.5618C63.8107 72.4463 63.1682 71.9844 63.1682 71.5226C62.8469 70.3808 62.8469 69.4443 63.1682 68.3025C63.1682 67.8278 63.8492 67.3916 64.3503 67.2633C67.4214 66.5064 71.2634 65.9034 76.1462 65.5442C77.6496 65.4287 79.2429 65.3518 80.939 65.2876C83.7145 65.1722 86.7855 65.1337 90.165 65.1593C91.7968 65.1722 92.9662 65.8778 92.9662 66.7886L92.979 66.7758Z" fill="url(#paint16_radial_0_1887)"/>
    <path style="mix-blend-mode:overlay" d="M92.979 66.7758V73.0236C92.979 73.9601 91.7069 74.6786 90.0236 74.6914C86.6313 74.7299 83.5603 74.6786 80.7591 74.5631C79.0758 74.499 77.4954 74.4092 76.0177 74.2937C71.1734 73.9217 67.3571 73.3187 64.2989 72.5618C63.8107 72.4463 63.1682 71.9844 63.1682 71.5226C62.8469 70.3808 62.8469 69.4443 63.1682 68.3025C63.1682 67.8278 63.8492 67.3916 64.3503 67.2633C67.4214 66.5064 71.2634 65.9034 76.1462 65.5442C77.6496 65.4287 79.2429 65.3518 80.939 65.2876C83.7145 65.1722 86.7855 65.1337 90.165 65.1593C91.7968 65.1722 92.9662 65.8778 92.9662 66.7886L92.979 66.7758Z" fill="url(#paint17_radial_0_1887)"/>
    <g style="mix-blend-mode:overlay" opacity="0.3">
      <path d="M90.1779 65.1466C86.7984 65.1081 83.7274 65.1466 80.9519 65.2749C79.2429 65.339 77.6496 65.4288 76.1591 65.5314C71.2763 65.9035 67.4343 66.4936 64.3632 67.2505C63.8749 67.3788 63.1811 67.815 63.1811 68.2897C62.9626 69.0595 62.8984 69.7394 62.9883 70.445C63.0269 70.0986 63.0783 69.7522 63.1811 69.3802C63.1811 68.8927 63.8621 68.4693 64.3632 68.341C67.4343 67.5841 71.2763 66.9811 76.1591 66.6091C77.6624 66.4936 79.2558 66.4038 80.9519 66.3525C83.7274 66.237 86.7984 66.1986 90.1779 66.2242C91.8097 66.237 92.979 66.9426 92.979 67.8535V66.7759C92.979 65.865 91.8097 65.1594 90.1779 65.1466Z" fill="white"/>
    </g>
    <g style="mix-blend-mode:overlay" opacity="0.3">
      <path d="M91.1672 73.1392C87.775 73.1776 84.7039 73.1263 81.9027 73.0109C80.2195 72.9339 78.639 72.8441 77.1613 72.7286C72.3299 72.3566 68.5007 71.7536 65.4425 70.9967C64.9543 70.8812 64.3118 70.4322 64.3118 69.9575C64.0419 69.0082 64.0162 68.1999 64.1833 67.3019C63.7207 67.4687 63.1682 67.8664 63.1682 68.2897C62.8469 69.4315 62.8469 70.3681 63.1682 71.5099C63.1682 71.9845 63.8107 72.4335 64.2989 72.549C67.3571 73.3059 71.1734 73.9089 76.0177 74.281C77.5082 74.3964 79.0758 74.4862 80.7591 74.5504C83.5475 74.6658 86.6185 74.7171 90.0236 74.6787C91.7069 74.6658 92.979 73.9474 92.979 73.0109V72.7799C92.4779 72.998 91.8611 73.1263 91.1672 73.1392Z" fill="#1D1D1B"/>
    </g>
    <path d="M80.772 74.5632C79.2815 74.7428 77.4826 74.6401 76.0306 74.2937C75.568 71.3944 75.6194 68.4308 76.1591 65.5443C77.6368 65.3005 79.4614 65.2107 80.9519 65.2877C80.2067 68.341 80.1424 71.5098 80.772 74.576V74.5632Z" fill="#ED9600"/>
    <path style="mix-blend-mode:overlay" d="M80.5278 73.1007C80.592 73.5882 80.6691 74.0757 80.7719 74.576C79.2814 74.7557 77.4953 74.6402 76.0305 74.2938C75.9534 73.832 75.8891 73.3701 75.8506 72.9211C75.5936 70.4707 75.6964 67.9818 76.159 65.5443C77.6366 65.3134 79.4613 65.2107 80.9518 65.2877C80.3222 67.8536 80.1808 70.5092 80.5278 73.1135V73.1007Z" fill="url(#paint18_radial_0_1887)"/>
    <path style="mix-blend-mode:multiply" d="M80.5278 73.1007C80.592 73.5882 80.6691 74.0757 80.7719 74.576C79.2814 74.7557 77.4953 74.6402 76.0305 74.2938C75.9534 73.832 75.8891 73.3701 75.8506 72.9211C75.5936 70.4707 75.6964 67.9818 76.159 65.5443C77.6366 65.3134 79.4613 65.2107 80.9518 65.2877C80.3222 67.8536 80.1808 70.5092 80.5278 73.1135V73.1007Z" fill="url(#paint19_radial_0_1887)"/>
    <g style="mix-blend-mode:overlay" opacity="0.3">
      <path d="M80.3608 70.4707L75.7222 70.5477C75.7222 71.3431 75.7736 72.1257 75.8507 72.9082C77.3541 73.1392 79.0373 73.2033 80.5279 73.1007C80.4122 72.2283 80.3737 71.3559 80.3608 70.4707Z" fill="#1D1D1B"/>
    </g>
    <path d="M91.0131 69.919C91.0131 67.52 91.5913 65.5828 92.298 65.5828C93.0047 65.5828 93.583 67.52 93.583 69.919C93.583 72.3181 93.0047 74.2553 92.298 74.2553C91.5913 74.2553 91.0131 72.3181 91.0131 69.919Z" fill="#878787"/>
    <path style="mix-blend-mode:multiply" d="M91.0131 69.919C91.0131 67.52 91.5913 65.5828 92.298 65.5828C93.0047 65.5828 93.583 67.52 93.583 69.919C93.583 72.3181 93.0047 74.2553 92.298 74.2553C91.5913 74.2553 91.0131 72.3181 91.0131 69.919Z" fill="url(#paint20_radial_0_1887)"/>
    <path style="mix-blend-mode:overlay" d="M92.2979 67.6868C92.9018 67.6868 93.403 69.0851 93.5315 70.9582C93.5572 70.6246 93.57 70.2654 93.57 69.9062C93.57 67.5072 92.9918 65.5699 92.2851 65.5699C91.5783 65.5699 91.0001 67.5072 91.0001 69.9062C91.0001 70.2654 91.0258 70.6246 91.0515 70.9582C91.1929 69.0851 91.694 67.6868 92.2851 67.6868H92.2979Z" fill="url(#paint21_radial_0_1887)"/>
    <path d="M83.3932 69.919C83.3932 71.3173 81.1189 72.4591 78.3305 72.4591C75.5422 72.4591 73.2678 71.3173 73.2678 69.919C73.2678 68.5206 75.5293 67.3788 78.3305 67.3788C81.1317 67.3788 83.3932 68.5206 83.3932 69.919Z" fill="#EDCD00"/>
    <path style="mix-blend-mode:multiply" d="M83.3932 69.919C83.3932 71.3173 81.1189 72.4591 78.3305 72.4591C75.5422 72.4591 73.2678 71.3173 73.2678 69.919C73.2678 68.5206 75.5293 67.3788 78.3305 67.3788C81.1317 67.3788 83.3932 68.5206 83.3932 69.919Z" fill="url(#paint22_radial_0_1887)"/>
    <path style="mix-blend-mode:hard-light" d="M78.3305 67.3788C75.6964 67.3788 73.5377 68.3923 73.3064 69.688C74.0902 68.79 75.8763 68.1485 77.9579 68.1485C80.7591 68.1485 83.0206 69.2903 83.0206 70.6887C83.0206 70.7657 82.9821 70.8427 82.9692 70.9068C83.2391 70.5989 83.3933 70.2654 83.3933 69.9061C83.3933 68.5078 81.1189 67.366 78.3305 67.366V67.3788Z" fill="url(#paint23_radial_0_1887)"/>
    <path d="M50.3186 40.4632C47.5946 37.025 32.7534 36.4349 29.4768 40.553C28.1147 42.2721 27.2924 44.4403 27.2924 46.8137C27.2924 52.3687 31.8154 56.8846 37.3792 56.8846C40.0134 56.8846 45.6414 54.7806 47.4404 53.1384C49.8047 50.9703 52.7215 47.1601 52.3617 45.0432C52.0662 43.337 51.3466 41.7846 50.3186 40.4889V40.4632Z" fill="#44495E"/>
    <path style="mix-blend-mode:screen" d="M49.1237 41.2201C48.0829 39.9116 44.0096 38.9237 39.6665 38.9237C35.3234 38.9237 31.8411 39.8602 30.6847 41.3099C30.0551 42.0925 29.5796 42.9649 29.2712 43.8886C36.4541 44.1067 43.6884 45.1587 48.8153 49.4565C50.1645 47.7117 51.0383 46.0054 50.8969 45.1459C50.6528 43.7218 50.036 42.3619 49.1366 41.2201H49.1237Z" fill="url(#paint24_linear_0_1887)"/>
    <path d="M56.0752 40.4632C58.7993 37.025 73.6405 36.4349 76.9171 40.553C78.2792 42.2721 79.1015 44.4403 79.1015 46.8137C79.1015 52.3687 74.5913 56.8846 69.0147 56.8846C66.3805 56.8846 60.7524 54.7806 58.9407 53.1384C56.5764 50.9703 53.6595 47.1601 54.0193 45.0432C54.3148 43.337 55.0344 41.7846 56.0624 40.4889L56.0752 40.4632Z" fill="#44495E"/>
    <path style="mix-blend-mode:screen" d="M75.7221 41.3613C74.5656 39.9116 71.0449 38.9751 66.7403 38.9751C62.4357 38.9751 58.3239 39.9629 57.2831 41.2843C56.4736 42.3107 55.9082 43.5166 55.6255 44.7739C63.2838 44.5045 71.122 46.6598 75.8763 51.9069C76.9556 50.4572 77.5981 48.6868 77.5981 46.7496C77.5981 44.8124 76.9428 42.9265 75.7221 41.3742V41.3613Z" fill="url(#paint25_linear_0_1887)"/>
    <path d="M71.2376 81.183C68.2437 79.4511 64.1447 79.8744 60.7267 78.7583C60.701 79.5665 60.7267 80.3619 60.958 81.0804C61.2407 81.9913 61.7932 82.4659 62.4742 82.7225C62.4742 82.7225 62.5642 82.7225 62.6027 82.7225C63.2067 83.0304 63.9262 82.9919 64.6458 83.0432C66.0207 83.4923 67.3056 84.5186 68.8733 86.4558C65.3268 89.2012 56.3579 91.4335 53.1969 96.1546C50.0359 91.4335 41.067 89.2012 37.5205 86.4558C39.0882 84.5186 40.3731 83.5051 41.7352 83.0561C42.4804 83.0048 43.2128 82.9534 43.8425 82.7353C43.8682 82.7353 43.881 82.7353 43.9067 82.7353C43.971 82.7097 44.0352 82.6712 44.0995 82.6327C44.0995 82.6327 44.0995 82.6327 44.1123 82.6327C44.6905 82.3505 45.1531 81.9143 45.4101 81.0932C45.6414 80.3748 45.6671 79.5665 45.6414 78.7711C42.2234 79.8873 38.1244 79.4639 35.1305 81.1958C32.1494 84.0567 27.4851 87.5848 24.1313 91.8569C24.4911 92.5881 24.6582 93.3836 24.6582 94.2046C27.1767 95.6543 29.7851 97.8866 30.993 100.606C31.0829 100.606 31.1729 100.581 31.2757 100.581C31.9567 100.581 32.5349 100.709 33.0746 100.914C34.4366 99.6057 36.3769 98.3741 38.5485 97.4247C43.3799 95.3079 49.3421 94.5382 52.6701 97.0784C52.85 97.2066 53.0299 97.3734 53.184 97.5274C53.3382 97.3734 53.5181 97.2066 53.698 97.0784C57.0261 94.5382 62.9882 95.3079 67.8196 97.4247C69.9912 98.3741 71.9315 99.5929 73.2935 100.914C73.8332 100.709 74.4114 100.581 75.0924 100.581C75.1952 100.581 75.2723 100.606 75.3751 100.606C76.5701 97.8866 79.1786 95.6543 81.7099 94.2046C81.7099 93.3964 81.877 92.5881 82.2368 91.8569C78.883 87.5848 74.2187 84.0567 71.2376 81.1958V81.183Z" fill="#1E2930"/>
    <path style="mix-blend-mode:overlay" d="M82.2368 91.8569C81.877 92.5881 81.7099 93.3836 81.7099 94.2046C81.0674 94.5767 80.4121 95 79.7697 95.4747C77.9322 96.8218 76.2617 98.5794 75.3751 100.606C75.2852 100.606 75.1952 100.581 75.0924 100.581C74.4114 100.581 73.8332 100.709 73.2935 100.914C71.9315 99.6057 69.9912 98.3741 67.8196 97.4247C62.9882 95.3079 57.0132 94.5382 53.698 97.0784C53.5181 97.2066 53.3382 97.3734 53.184 97.5274C53.0299 97.3734 52.85 97.2066 52.6701 97.0784C49.3421 94.5382 43.367 95.3079 38.5485 97.4247C36.3769 98.3741 34.4366 99.5929 33.0746 100.914C32.5349 100.709 31.9567 100.581 31.2757 100.581C31.1729 100.581 31.0958 100.606 30.993 100.606C29.798 97.8866 27.1895 95.6543 24.6582 94.2046C24.6582 93.3964 24.4911 92.5881 24.1313 91.8569C27.4851 87.5848 32.1494 84.0567 35.1305 81.1958C38.1244 79.4639 42.2234 79.8873 45.6414 78.7711C45.6799 79.5794 45.6414 80.3748 45.4101 81.0932C45.166 81.9014 44.7034 82.3505 44.1123 82.6327H44.0866C44.0095 82.6584 43.9581 82.6969 43.8939 82.7225C43.8939 82.7225 43.8553 82.7225 43.8168 82.7225C43.1871 82.9406 42.4547 82.9919 41.7095 83.0432C40.3474 83.5051 39.0625 84.5058 37.4948 86.443C41.0413 89.1884 50.0102 91.4207 53.1712 96.1418C56.2422 91.549 64.8 89.3167 68.5392 86.6739C68.642 86.5969 68.7448 86.5199 68.8476 86.443C67.2799 84.5058 65.9821 83.4794 64.6201 83.0432C63.9005 82.9919 63.1681 83.0432 62.577 82.7225C62.5385 82.7225 62.4871 82.7225 62.4485 82.7225C61.7675 82.4659 61.215 81.9913 60.9323 81.0804C60.701 80.3619 60.6753 79.5537 60.701 78.7583C64.119 79.8744 68.2308 79.4511 71.2119 81.183C74.1801 84.0439 78.8573 87.5719 82.2111 91.844L82.2368 91.8569Z" fill="url(#paint26_radial_0_1887)"/>
    <path style="mix-blend-mode:overlay" d="M53.2098 96.1418C53.1841 96.5908 53.1841 97.0527 53.197 97.5017C53.0428 97.3606 52.8629 97.1938 52.683 97.0655C51.5009 96.1547 49.9846 95.68 48.2885 95.5389C45.2432 95.2438 41.671 96.052 38.5614 97.4119C36.3899 98.3613 34.4496 99.58 33.0875 100.901C32.5479 100.696 31.9696 100.568 31.2886 100.568C31.1858 100.568 31.1087 100.594 31.0059 100.594C29.8109 97.8738 27.2025 95.6415 24.6711 94.1918C24.6711 93.3836 24.5041 92.5753 24.1443 91.844C27.498 87.5719 32.1624 84.0439 35.1435 81.183C38.1374 79.4511 42.2364 79.8744 45.6543 78.7583C45.6929 79.5665 45.6543 80.3619 45.423 81.0804C45.1789 81.8886 44.7163 82.3376 44.1252 82.6199H44.0996C44.0225 82.6455 43.9711 82.684 43.9068 82.7097C43.9068 82.7097 43.8683 82.7097 43.8297 82.7097C43.2001 82.9278 42.4677 82.9791 41.7224 83.0304C41.3112 83.1715 40.9 83.364 40.4888 83.6206C39.5508 84.1979 38.6 85.0831 37.5206 86.4301C41.0671 89.1756 50.036 91.4079 53.197 96.129C53.197 96.129 53.2227 96.1162 53.2227 96.1033L53.2098 96.1418Z" fill="url(#paint27_radial_0_1887)"/>
    <g style="mix-blend-mode:overlay" opacity="0.3">
      <path d="M48.5069 95.5645C49.5734 95.2951 50.8583 95.231 51.8863 95.6415C52.4131 95.8468 52.8243 96.0264 53.2098 96.2573C53.2098 96.2188 53.2098 96.1803 53.2098 96.1419C53.2098 96.1419 53.1969 96.1547 53.1841 96.1675C50.0231 91.4464 41.0542 89.2141 37.5077 86.4687C38.5871 85.1216 39.5379 84.2364 40.4759 83.6591C39.1396 83.3897 35.0535 84.1594 34.4624 84.7367C34.4624 84.7367 34.1411 89.8299 32.3679 91.9724C36.7496 91.9211 39.9491 91.4336 44.1381 93.3323C45.6029 93.9866 46.9906 94.6665 48.2756 95.5261C48.3527 95.5261 48.4169 95.5517 48.494 95.5517L48.5069 95.5645Z" fill="white"/>
    </g>
    <path d="M54.1735 95.6927L53.0428 96.3855L51.9763 95.6927H49.4578V129.882H56.9233V95.6927H54.1735Z" fill="#334652"/>
    <path style="mix-blend-mode:multiply" opacity="0.7" d="M56.9233 95.7056V129.882H49.4578V95.7056H51.9763L53.0428 96.3855L54.1735 95.7056H56.9233Z" fill="url(#paint28_radial_0_1887)"/>
    <path d="M55.4713 121.544C55.4713 122.762 54.4819 123.75 53.2484 123.75C52.0148 123.75 51.0254 122.762 51.0254 121.544C51.0254 120.325 52.0148 119.324 53.2484 119.324C54.4819 119.324 55.4713 120.312 55.4713 121.544Z" fill="#F5F5F5"/>
    <path d="M55.4713 109.574C55.4713 110.793 54.4819 111.793 53.2484 111.793C52.0148 111.793 51.0254 110.806 51.0254 109.574C51.0254 108.342 52.0148 107.354 53.2484 107.354C54.4819 107.354 55.4713 108.342 55.4713 109.574Z" fill="#F5F5F5"/>
    <g style="mix-blend-mode:overlay" opacity="0.3">
      <path d="M72.6382 25.8893C69.7856 26.6334 66.933 27.4031 64.0804 28.0702C56.2294 29.8791 48.7767 29.1479 40.8742 27.4801C35.4004 26.3511 30.7488 25.0169 25.6476 22.9001C25.1722 23.3619 24.7995 23.8751 24.5939 24.4652C23.2319 28.3525 22.8978 32.8683 23.2704 37.5638C21.7542 37.9359 20.405 39.0777 19.8268 40.3862C19.7368 40.5915 19.6726 40.8224 19.6212 41.0534C18.5547 39.5523 17.6552 38 16.9999 36.3964C20.7905 32.0729 21.5229 22.5024 18.3876 18.4227C23.0648 13.1756 40.4502 23.4646 45.8984 25.0939C50.3315 26.4153 54.302 26.8643 59.1205 27.0952C61.3563 27.1979 63.7206 27.711 66.0721 27.4544C68.552 27.1979 70.4024 25.7097 72.5868 25.0554C72.7153 25.3376 72.741 25.607 72.651 25.8636L72.6382 25.8893Z" fill="#1D1D1B"/>
    </g>
    <g style="mix-blend-mode:overlay" opacity="0.3">
      <path d="M86.7084 35.7422C86.6442 35.9731 86.5671 36.204 86.5028 36.4349C86.5285 30.8414 86.7855 25.4147 85.5262 19.8212L86.3743 17.1783C89.2912 22.3613 88.0833 30.9825 86.7084 35.755V35.7422Z" fill="white"/>
    </g>
    <g style="mix-blend-mode:overlay" opacity="0.3">
      <path d="M82.2368 91.8568C81.877 92.5881 81.71 93.3835 81.71 94.2046C81.0675 94.5766 80.4122 95 79.7697 95.4747C76.1847 92.3443 72.9595 88.9446 68.6164 86.7508C68.6035 86.7508 68.5778 86.7252 68.565 86.7252C68.6678 86.6482 68.7706 86.5712 68.8734 86.4942C67.3057 84.557 66.0079 83.5307 64.6459 83.0945C63.9263 83.0432 63.1939 83.0945 62.6028 82.7738C62.5643 82.7738 62.5129 82.7738 62.4743 82.7738C61.7933 82.5172 61.2408 82.0425 60.9581 81.1317C60.7268 80.4132 60.7011 79.605 60.7268 78.8096C64.1447 79.9257 68.2566 79.5023 71.2377 81.2343C74.2059 84.0952 78.8831 87.6232 82.2368 91.8953V91.8568Z" fill="white"/>
    </g>
    <g style="mix-blend-mode:overlay" opacity="0.3">
      <path d="M56.9233 95.7056V129.882H54.9959C54.5076 127.419 54.5076 123.917 54.5847 122.596C55.0216 113.769 54.9445 104.699 54.9317 95.7056H56.9233Z" fill="white"/>
    </g>
    <g style="mix-blend-mode:overlay" opacity="0.6">
      <path d="M90.2677 138.619C90.1135 138.645 89.9465 138.658 89.7794 138.67C89.6252 138.183 88.8157 138.068 88.2118 138.504C87.0296 139.35 85.3849 140.261 83.5731 141.159C85.6033 136.682 86.2458 130.344 86.2458 126.508C86.2458 122.352 84.9095 115.103 87.2995 111.614C87.1453 121.03 89.3168 129.754 90.2806 138.632L90.2677 138.619Z" fill="#1D1D1B"/>
    </g>
    <g style="mix-blend-mode:overlay" opacity="0.6">
      <path d="M22.8208 141.134C21.0476 140.261 19.4414 139.376 18.2721 138.555C18.2464 138.529 18.2078 138.504 18.1821 138.491C17.5782 138.055 16.7687 138.17 16.6145 138.658C16.4475 138.658 16.2804 138.632 16.1262 138.619C17.1028 129.729 19.2743 121.018 19.1073 111.588C21.4973 115.09 20.1738 122.326 20.161 126.483C20.161 130.332 20.7906 136.643 22.8337 141.121L22.8208 141.134Z" fill="#1D1D1B"/>
    </g>
    <g style="mix-blend-mode:overlay" opacity="0.1">
      <path d="M12.6311 105.404C13.7362 110.959 13.1708 118.978 16.0362 123.583C16.6145 115.822 15.7022 104.75 22.8593 99.5672C20.7135 96.501 19.1073 91.6387 21.4202 88.2134C22.2168 87.0331 16.9871 87.5847 16.653 87.713C15.0982 88.3417 13.3507 90.9203 12.6954 92.3315C10.8065 96.3855 11.7959 101.209 12.6311 105.392V105.404Z" fill="white"/>
    </g>
    <g style="mix-blend-mode:overlay" opacity="0.1">
      <path d="M87.7878 138.786C86.6441 139.543 85.1793 140.351 83.5603 141.146C78.806 143.481 72.7924 145.714 70.4024 146.432C65.4296 147.92 61.3435 148.177 56.7819 148.305C56.7819 148.395 56.7819 148.472 56.7562 148.549C55.5098 148.485 54.3405 148.446 53.1841 148.408C52.0533 148.446 50.8583 148.485 49.6248 148.549C49.6119 148.472 49.6119 148.395 49.6119 148.305C45.0375 148.177 40.9513 147.92 35.9786 146.432C32.6891 145.457 22.6023 141.596 18.272 138.555L17.1926 131.435C19.0815 144.149 42.6989 145.983 52.1433 145.496C66.0593 144.803 74.5271 139.119 86.6185 133.051C87.3123 135.065 87.6978 136.951 87.7878 138.786Z" fill="#1D1D1B"/>
    </g>
    <g style="mix-blend-mode:overlay" opacity="0.1">
      <path d="M26.4572 85.4037C23.2191 87.5334 17.4111 89.3551 15.7536 91.844C11.5903 98.0405 9.50871 107.521 7.28574 114.667C6.36058 117.605 5.51251 120.62 4.02197 122.672C4.63875 112.063 6.43768 101.402 10.2411 91.5104C10.9992 90.2019 11.873 89.0216 12.8881 88.0722C16.6916 84.5955 21.7157 85.5834 26.4572 85.4037Z" fill="white"/>
    </g>
    <g style="mix-blend-mode:overlay" opacity="0.1">
      <path d="M60.4955 103.839C60.1228 116.13 64.7487 127.727 62.667 140.223C69.7857 140.916 79.6027 136.31 82.0055 129.998C84.5369 123.365 83.2005 115.309 82.8536 108.073C75.645 109.792 66.2007 97.0783 61.5491 99.1566L60.5083 103.839H60.4955Z" fill="white"/>
    </g>
    <g style="mix-blend-mode:overlay" opacity="0.1">
      <path d="M41.8509 139.633C38.8313 136.515 32.5479 137.234 28.6416 135.309C25.1723 133.603 25.6091 128.664 25.3521 125.456C25.0438 121.697 24.9153 117.9 24.17 114.205C24.1314 114.013 23.8359 114.013 23.7974 114.205C22.3582 120.543 19.647 131.73 24.7996 137.118C28.2561 140.736 37.0323 143.34 41.671 141.095C42.2235 140.826 42.2492 140.043 41.8509 139.633Z" fill="white"/>
    </g>
  </g>
  <defs>
    <radialGradient id="paint0_radial_0_1887" cx="0" cy="0" r="1" gradientUnits="userSpaceOnUse" gradientTransform="translate(53.997 147.343) scale(53.9996 11.9279)">
      <stop stop-color="#707070"/>
      <stop offset="0.1" stop-color="#868686"/>
      <stop offset="0.3" stop-color="#B1B1B1"/>
      <stop offset="0.5" stop-color="#D3D3D3"/>
      <stop offset="0.68" stop-color="#EBEBEB"/>
      <stop offset="0.86" stop-color="#F9F9F9"/>
      <stop offset="1" stop-color="white"/>
    </radialGradient>
    <radialGradient id="paint1_radial_0_1887" cx="0" cy="0" r="1" gradientUnits="userSpaceOnUse" gradientTransform="translate(96.6796 37.6665) scale(90.4861 90.343)">
      <stop offset="0.66" stop-color="white"/>
      <stop offset="0.7" stop-color="#FBF7F7"/>
      <stop offset="0.74" stop-color="#F2E2E2"/>
      <stop offset="0.8" stop-color="#E3C0C0"/>
      <stop offset="0.84" stop-color="#D9A9A9"/>
      <stop offset="0.93" stop-color="#ECD6D6"/>
      <stop offset="1" stop-color="white"/>
    </radialGradient>
    <radialGradient id="paint2_radial_0_1887" cx="0" cy="0" r="1" gradientUnits="userSpaceOnUse" gradientTransform="translate(54.2378 126.072) scale(60.5468 60.451)">
      <stop offset="0.66" stop-color="white"/>
      <stop offset="0.7" stop-color="#FBF7F7"/>
      <stop offset="0.74" stop-color="#F2E2E2"/>
      <stop offset="0.8" stop-color="#E3C0C0"/>
      <stop offset="0.84" stop-color="#D9A9A9"/>
      <stop offset="0.93" stop-color="#ECD6D6"/>
      <stop offset="1" stop-color="white"/>
    </radialGradient>
    <radialGradient id="paint3_radial_0_1887" cx="0" cy="0" r="1" gradientUnits="userSpaceOnUse" gradientTransform="translate(65.0185 57.308) scale(156.173 155.926)">
      <stop offset="0.44" stop-color="white"/>
      <stop offset="0.48" stop-color="#F8F8F8"/>
      <stop offset="0.53" stop-color="#E4E4E4"/>
      <stop offset="0.6" stop-color="#C5C5C5"/>
      <stop offset="0.67" stop-color="#999999"/>
      <stop offset="0.76" stop-color="#616161"/>
      <stop offset="0.85" stop-color="#B5B5B5"/>
      <stop offset="0.92" stop-color="#EAEAEA"/>
      <stop offset="0.95" stop-color="white"/>
    </radialGradient>
    <radialGradient id="paint4_radial_0_1887" cx="0" cy="0" r="1" gradientUnits="userSpaceOnUse" gradientTransform="translate(97.0137 120.504) scale(107.062 106.893)">
      <stop offset="0.44" stop-color="white"/>
      <stop offset="0.59" stop-color="#FCFCFC"/>
      <stop offset="0.65" stop-color="#F5F5F5"/>
      <stop offset="0.7" stop-color="#E9E9E9"/>
      <stop offset="0.74" stop-color="#D7D7D7"/>
      <stop offset="0.76" stop-color="#CCCCCC"/>
      <stop offset="0.87" stop-color="#EAEAEA"/>
      <stop offset="0.95" stop-color="white"/>
    </radialGradient>
    <radialGradient id="paint5_radial_0_1887" cx="0" cy="0" r="1" gradientUnits="userSpaceOnUse" gradientTransform="translate(5.2043 126.752) scale(107.049 106.88)">
      <stop offset="0.44" stop-color="white"/>
      <stop offset="0.59" stop-color="#FCFCFC"/>
      <stop offset="0.65" stop-color="#F5F5F5"/>
      <stop offset="0.7" stop-color="#E9E9E9"/>
      <stop offset="0.74" stop-color="#D7D7D7"/>
      <stop offset="0.76" stop-color="#CCCCCC"/>
      <stop offset="0.87" stop-color="#EAEAEA"/>
      <stop offset="0.95" stop-color="white"/>
    </radialGradient>
    <radialGradient id="paint6_radial_0_1887" cx="0" cy="0" r="1" gradientUnits="userSpaceOnUse" gradientTransform="translate(103.015 16.3573) scale(26.0459 26.0047)">
      <stop stop-color="white"/>
      <stop offset="0.14" stop-color="#F8F8F8"/>
      <stop offset="0.34" stop-color="#E5E5E5"/>
      <stop offset="0.58" stop-color="#C6C6C6"/>
      <stop offset="0.85" stop-color="#9B9B9B"/>
      <stop offset="1" stop-color="#808080"/>
    </radialGradient>
    <radialGradient id="paint7_radial_0_1887" cx="0" cy="0" r="1" gradientUnits="userSpaceOnUse" gradientTransform="translate(-1.68315 47.9939) scale(33.7942 33.7407)">
      <stop offset="0.66" stop-color="white"/>
      <stop offset="0.7" stop-color="#FBF7F7"/>
      <stop offset="0.74" stop-color="#F2E2E2"/>
      <stop offset="0.8" stop-color="#E3C0C0"/>
      <stop offset="0.84" stop-color="#D9A9A9"/>
      <stop offset="0.93" stop-color="#ECD6D6"/>
      <stop offset="1" stop-color="white"/>
    </radialGradient>
    <radialGradient id="paint8_radial_0_1887" cx="0" cy="0" r="1" gradientUnits="userSpaceOnUse" gradientTransform="translate(108.077 50.0851) scale(33.7942 33.7407)">
      <stop offset="0.66" stop-color="white"/>
      <stop offset="0.7" stop-color="#FBF7F7"/>
      <stop offset="0.74" stop-color="#F2E2E2"/>
      <stop offset="0.8" stop-color="#E3C0C0"/>
      <stop offset="0.84" stop-color="#D9A9A9"/>
      <stop offset="0.93" stop-color="#ECD6D6"/>
      <stop offset="1" stop-color="white"/>
    </radialGradient>
    <radialGradient id="paint9_radial_0_1887" cx="0" cy="0" r="1" gradientUnits="userSpaceOnUse" gradientTransform="translate(122.584 22.0663) scale(125.886 125.687)">
      <stop offset="0.66" stop-color="white"/>
      <stop offset="0.7" stop-color="#FBF7F7"/>
      <stop offset="0.74" stop-color="#F2E2E2"/>
      <stop offset="0.8" stop-color="#E3C0C0"/>
      <stop offset="0.84" stop-color="#D9A9A9"/>
      <stop offset="0.93" stop-color="#ECD6D6"/>
      <stop offset="1" stop-color="white"/>
    </radialGradient>
    <radialGradient id="paint10_radial_0_1887" cx="0" cy="0" r="1" gradientUnits="userSpaceOnUse" gradientTransform="translate(55.2785 -53.7926) scale(87.9805 87.8413)">
      <stop offset="0.66" stop-color="white"/>
      <stop offset="0.7" stop-color="#FBF7F7"/>
      <stop offset="0.74" stop-color="#F2E2E2"/>
      <stop offset="0.8" stop-color="#E3C0C0"/>
      <stop offset="0.84" stop-color="#D9A9A9"/>
      <stop offset="0.93" stop-color="#ECD6D6"/>
      <stop offset="1" stop-color="white"/>
    </radialGradient>
    <radialGradient id="paint11_radial_0_1887" cx="0" cy="0" r="1" gradientUnits="userSpaceOnUse" gradientTransform="translate(99.0953 51.4065) scale(43.2642 43.1958)">
      <stop stop-color="white"/>
      <stop offset="0.14" stop-color="#F8F8F8"/>
      <stop offset="0.34" stop-color="#E5E5E5"/>
      <stop offset="0.58" stop-color="#C6C6C6"/>
      <stop offset="0.85" stop-color="#9B9B9B"/>
      <stop offset="1" stop-color="#808080"/>
    </radialGradient>
    <radialGradient id="paint12_radial_0_1887" cx="0" cy="0" r="1" gradientUnits="userSpaceOnUse" gradientTransform="translate(80.3223 -35.4854) scale(78.4847 78.3606)">
      <stop stop-color="white"/>
      <stop offset="0.14" stop-color="#F8F8F8"/>
      <stop offset="0.34" stop-color="#E5E5E5"/>
      <stop offset="0.58" stop-color="#C6C6C6"/>
      <stop offset="0.85" stop-color="#9B9B9B"/>
      <stop offset="1" stop-color="#808080"/>
    </radialGradient>
    <radialGradient id="paint13_radial_0_1887" cx="0" cy="0" r="1" gradientUnits="userSpaceOnUse" gradientTransform="translate(56.0624 -21.4118) scale(65.1469 65.0439)">
      <stop offset="0.7" stop-color="white"/>
      <stop offset="0.84" stop-color="#C78907"/>
      <stop offset="0.87" stop-color="#D19E34"/>
      <stop offset="0.94" stop-color="#EBD5A6"/>
      <stop offset="1" stop-color="white"/>
    </radialGradient>
    <radialGradient id="paint14_radial_0_1887" cx="0" cy="0" r="1" gradientUnits="userSpaceOnUse" gradientTransform="translate(-20.0966 60.0919) scale(57.3473 57.2566)">
      <stop offset="0.7" stop-color="white"/>
      <stop offset="0.84" stop-color="#C78907"/>
      <stop offset="0.87" stop-color="#D19E34"/>
      <stop offset="0.94" stop-color="#EBD5A6"/>
      <stop offset="1" stop-color="white"/>
    </radialGradient>
    <linearGradient id="paint15_linear_0_1887" x1="48.4683" y1="25.5172" x2="65.1137" y2="-18.2606" gradientUnits="userSpaceOnUse">
      <stop offset="0.16"/>
      <stop offset="0.23" stop-color="#0A0A0A"/>
      <stop offset="0.35" stop-color="#252525"/>
      <stop offset="0.51" stop-color="#525252"/>
      <stop offset="0.7" stop-color="#8F8F8F"/>
      <stop offset="0.91" stop-color="#DDDDDD"/>
      <stop offset="1" stop-color="white"/>
    </linearGradient>
    <radialGradient id="paint16_radial_0_1887" cx="0" cy="0" r="1" gradientUnits="userSpaceOnUse" gradientTransform="translate(78.0607 47.4166) scale(34.0897 34.0358)">
      <stop offset="0.7" stop-color="white"/>
      <stop offset="0.84" stop-color="#C78907"/>
      <stop offset="0.87" stop-color="#D19E34"/>
      <stop offset="0.94" stop-color="#EBD5A6"/>
      <stop offset="1" stop-color="white"/>
    </radialGradient>
    <radialGradient id="paint17_radial_0_1887" cx="0" cy="0" r="1" gradientUnits="userSpaceOnUse" gradientTransform="translate(90.756 53.6644) scale(25.2621 25.2221)">
      <stop stop-color="white"/>
      <stop offset="0.14" stop-color="#F8F8F8"/>
      <stop offset="0.34" stop-color="#E5E5E5"/>
      <stop offset="0.58" stop-color="#C6C6C6"/>
      <stop offset="0.85" stop-color="#9B9B9B"/>
      <stop offset="1" stop-color="#808080"/>
    </radialGradient>
    <radialGradient id="paint18_radial_0_1887" cx="0" cy="0" r="1" gradientUnits="userSpaceOnUse" gradientTransform="translate(82.134 61.4261) scale(11.4489 11.4308)">
      <stop stop-color="white"/>
      <stop offset="0.14" stop-color="#F8F8F8"/>
      <stop offset="0.34" stop-color="#E5E5E5"/>
      <stop offset="0.58" stop-color="#C6C6C6"/>
      <stop offset="0.85" stop-color="#9B9B9B"/>
      <stop offset="1" stop-color="#808080"/>
    </radialGradient>
    <radialGradient id="paint19_radial_0_1887" cx="0" cy="0" r="1" gradientUnits="userSpaceOnUse" gradientTransform="translate(80.1166 62.0419) scale(15.3037 15.2795)">
      <stop offset="0.7" stop-color="white"/>
      <stop offset="0.84" stop-color="#C78907"/>
      <stop offset="0.87" stop-color="#D19E34"/>
      <stop offset="0.94" stop-color="#EBD5A6"/>
      <stop offset="1" stop-color="white"/>
    </radialGradient>
    <radialGradient id="paint20_radial_0_1887" cx="0" cy="0" r="1" gradientUnits="userSpaceOnUse" gradientTransform="translate(91.9125 62.2344) scale(14.2629 14.2404)">
      <stop offset="0.44" stop-color="white"/>
      <stop offset="0.48" stop-color="#F8F8F8"/>
      <stop offset="0.53" stop-color="#E4E4E4"/>
      <stop offset="0.6" stop-color="#C5C5C5"/>
      <stop offset="0.67" stop-color="#999999"/>
      <stop offset="0.76" stop-color="#616161"/>
      <stop offset="0.85" stop-color="#B5B5B5"/>
      <stop offset="0.92" stop-color="#EAEAEA"/>
      <stop offset="0.95" stop-color="white"/>
    </radialGradient>
    <radialGradient id="paint21_radial_0_1887" cx="0" cy="0" r="1" gradientUnits="userSpaceOnUse" gradientTransform="translate(92.9404 64.441) scale(6.55324 6.54288)">
      <stop stop-color="white"/>
      <stop offset="0.14" stop-color="#F8F8F8"/>
      <stop offset="0.34" stop-color="#E5E5E5"/>
      <stop offset="0.58" stop-color="#C6C6C6"/>
      <stop offset="0.85" stop-color="#9B9B9B"/>
      <stop offset="1" stop-color="#808080"/>
    </radialGradient>
    <radialGradient id="paint22_radial_0_1887" cx="0" cy="0" r="1" gradientUnits="userSpaceOnUse" gradientTransform="translate(78.9216 61.9136) scale(13.402 13.3808)">
      <stop offset="0.7" stop-color="white"/>
      <stop offset="0.84" stop-color="#C78907"/>
      <stop offset="0.87" stop-color="#D19E34"/>
      <stop offset="0.94" stop-color="#EBD5A6"/>
      <stop offset="1" stop-color="white"/>
    </radialGradient>
    <radialGradient id="paint23_radial_0_1887" cx="0" cy="0" r="1" gradientUnits="userSpaceOnUse" gradientTransform="translate(80.8362 66.5577) scale(10.7422 10.7252)">
      <stop stop-color="#DBFFA1"/>
      <stop offset="1" stop-color="#808080"/>
    </radialGradient>
    <linearGradient id="paint24_linear_0_1887" x1="40.0777" y1="49.4565" x2="40.0777" y2="38.9237" gradientUnits="userSpaceOnUse">
      <stop offset="0.16"/>
      <stop offset="0.23" stop-color="#0A0A0A"/>
      <stop offset="0.35" stop-color="#252525"/>
      <stop offset="0.51" stop-color="#525252"/>
      <stop offset="0.7" stop-color="#8F8F8F"/>
      <stop offset="0.91" stop-color="#DDDDDD"/>
      <stop offset="1" stop-color="white"/>
    </linearGradient>
    <linearGradient id="paint25_linear_0_1887" x1="66.6118" y1="51.8941" x2="66.6118" y2="38.9751" gradientUnits="userSpaceOnUse">
      <stop offset="0.16"/>
      <stop offset="0.23" stop-color="#0A0A0A"/>
      <stop offset="0.35" stop-color="#252525"/>
      <stop offset="0.51" stop-color="#525252"/>
      <stop offset="0.7" stop-color="#8F8F8F"/>
      <stop offset="0.91" stop-color="#DDDDDD"/>
      <stop offset="1" stop-color="white"/>
    </linearGradient>
    <radialGradient id="paint26_radial_0_1887" cx="0" cy="0" r="1" gradientUnits="userSpaceOnUse" gradientTransform="translate(85.9246 71.6125) scale(29.0913 29.0452)">
      <stop stop-color="white"/>
      <stop offset="0.14" stop-color="#F8F8F8"/>
      <stop offset="0.34" stop-color="#E5E5E5"/>
      <stop offset="0.58" stop-color="#C6C6C6"/>
      <stop offset="0.85" stop-color="#9B9B9B"/>
      <stop offset="1" stop-color="#808080"/>
    </radialGradient>
    <radialGradient id="paint27_radial_0_1887" cx="0" cy="0" r="1" gradientUnits="userSpaceOnUse" gradientTransform="translate(54.2378 92.1263) scale(23.4246 23.3876)">
      <stop stop-color="white"/>
      <stop offset="0.14" stop-color="#F8F8F8"/>
      <stop offset="0.34" stop-color="#E5E5E5"/>
      <stop offset="0.58" stop-color="#C6C6C6"/>
      <stop offset="0.85" stop-color="#9B9B9B"/>
      <stop offset="1" stop-color="#808080"/>
    </radialGradient>
    <radialGradient id="paint28_radial_0_1887" cx="0" cy="0" r="1" gradientUnits="userSpaceOnUse" gradientTransform="translate(54.2378 137.695) scale(54.2634 54.1776)">
      <stop offset="0.44" stop-color="white"/>
      <stop offset="0.48" stop-color="#F8FBFC"/>
      <stop offset="0.53" stop-color="#E4F0F4"/>
      <stop offset="0.6" stop-color="#C5DFE8"/>
      <stop offset="0.67" stop-color="#99C6D7"/>
      <stop offset="0.75" stop-color="#61A8C1"/>
      <stop offset="0.76" stop-color="#61A8C1"/>
      <stop offset="0.86" stop-color="#B5D6E2"/>
      <stop offset="0.92" stop-color="#EAF3F7"/>
      <stop offset="0.95" stop-color="white"/>
    </radialGradient>
    <clipPath id="clip0_0_1887">
      <rect width="108" height="152" fill="white"/>
    </clipPath>
  </defs>
</svg>