<svg width="74" height="87" viewBox="0 0 74 87" fill="none" xmlns="http://www.w3.org/2000/svg">
<circle cx="37" cy="50" r="34" fill="url(#paint0_linear_221_18)" stroke="url(#paint1_linear_221_18)" stroke-width="6"/>
<g clip-path="url(#clip0_221_18)">
<path style="mix-blend-mode:multiply" d="M66 76.4429C66 72.8212 52.7891 69.8859 36.4965 69.8859C20.2039 69.8859 7 72.8212 7 76.4429C7 80.0647 20.2109 83 36.4965 83C52.782 83 66 80.0647 66 76.4429Z" fill="url(#paint2_radial_221_18)"/>
<path d="M43.5443 45.5701C42.4281 45.1078 40.7645 45.7453 40.3012 44.2741C40.0976 43.6226 40.1959 42.838 40.1959 42.1375C40.1959 40.7364 40.4416 39.5805 40.9049 38.2985L36.9458 38.0043C36.9318 37.9623 36.9248 37.9202 36.9107 37.8712L36.6089 37.8922C36.5246 37.8992 36.4264 37.9062 36.3281 37.9132H36.2509C36.1947 37.9202 36.1526 37.9272 36.1175 37.9272H36.0543H35.9982C35.9631 37.9272 35.9069 37.9272 35.8437 37.9132H35.7735C35.6823 37.8992 35.577 37.8922 35.4928 37.8852L35.1909 37.8642C35.1769 37.9062 35.1698 37.9483 35.1628 37.9973L31.2038 38.2915C31.6671 39.5735 31.9198 40.7294 31.9198 42.1305C31.9198 42.831 32.018 43.6086 31.8145 44.2671C31.3512 45.7383 29.6875 45.1008 28.5714 45.5631C27.1394 46.1586 27.0762 47.966 27.1043 49.318C27.1534 51.4687 28.1923 53.6824 29.2523 55.5038C29.2874 55.5668 29.3295 55.6369 29.3716 55.6999C30.4456 57.5214 31.653 59.2517 32.8113 61.0311C33.3658 61.8717 33.9695 62.9225 34.7066 63.616C34.9171 63.8192 35.1137 63.9383 35.3173 64.0154C35.3173 64.0434 35.3173 64.0784 35.3173 64.1064C35.598 64.1204 35.8367 64.1345 36.0613 64.1345C36.286 64.1345 36.5246 64.1204 36.8054 64.1064C36.8054 64.0714 36.8054 64.0434 36.7984 64.0154C37.002 63.9383 37.1985 63.8192 37.4091 63.616C38.1462 62.9295 38.7569 61.8787 39.3044 61.0311C40.4627 59.2447 41.67 57.5214 42.744 55.6999C42.7861 55.6299 42.8212 55.5668 42.8634 55.5038C43.9233 53.6824 44.9622 51.4687 45.0114 49.318C45.0395 47.966 44.9763 46.1586 43.5443 45.5631V45.5701Z" fill="#F2B3B2"/>
<path style="mix-blend-mode:multiply" d="M43.5443 45.5701C42.4281 45.1078 40.7645 45.7453 40.3012 44.2741C40.0976 43.6226 40.1959 42.838 40.1959 42.1375C40.1959 40.7364 40.4416 39.5805 40.9049 38.2985L36.9458 38.0043C36.9318 37.9623 36.9248 37.9202 36.9107 37.8712L36.6089 37.8922C36.5246 37.8992 36.4264 37.9062 36.3281 37.9132H36.2509C36.1947 37.9202 36.1526 37.9272 36.1175 37.9272H36.0543H35.9982C35.9631 37.9272 35.9069 37.9272 35.8437 37.9132H35.7735C35.6823 37.8992 35.577 37.8922 35.4928 37.8852L35.1909 37.8642C35.1769 37.9062 35.1698 37.9483 35.1628 37.9973L31.2038 38.2915C31.6671 39.5735 31.9198 40.7294 31.9198 42.1305C31.9198 42.831 32.018 43.6086 31.8145 44.2671C31.3512 45.7383 29.6875 45.1008 28.5714 45.5631C27.1394 46.1586 27.0762 47.966 27.1043 49.318C27.1534 51.4687 28.1923 53.6824 29.2523 55.5038C29.2874 55.5668 29.3295 55.6369 29.3716 55.6999C30.4456 57.5214 31.653 59.2517 32.8113 61.0311C33.3658 61.8717 33.9695 62.9225 34.7066 63.616C34.9171 63.8192 35.1137 63.9383 35.3173 64.0154C35.3173 64.0434 35.3173 64.0784 35.3173 64.1064C35.598 64.1204 35.8367 64.1345 36.0613 64.1345C36.286 64.1345 36.5246 64.1204 36.8054 64.1064C36.8054 64.0714 36.8054 64.0434 36.7984 64.0154C37.002 63.9383 37.1985 63.8192 37.4091 63.616C38.1462 62.9295 38.7569 61.8787 39.3044 61.0311C40.4627 59.2447 41.67 57.5214 42.744 55.6999C42.7861 55.6299 42.8212 55.5668 42.8634 55.5038C43.9233 53.6824 44.9622 51.4687 45.0114 49.318C45.0395 47.966 44.9763 46.1586 43.5443 45.5631V45.5701Z" fill="url(#paint3_radial_221_18)"/>
<path style="mix-blend-mode:multiply" d="M45.0113 49.325C44.9621 51.4757 43.9232 53.6894 42.8633 55.5108C42.8212 55.5809 42.7861 55.6439 42.7439 55.707C41.6699 57.5354 40.4626 59.2587 39.3043 61.0381C38.7568 61.8787 38.1531 62.9365 37.409 63.6231C37.1984 63.8192 37.0019 63.9383 36.7983 64.0224C36.7983 64.0574 36.7983 64.0854 36.7983 64.1134C36.5105 64.1345 36.2718 64.1485 36.0542 64.1485C35.8366 64.1485 35.5909 64.1345 35.3102 64.1134C35.3102 64.0854 35.3102 64.0574 35.3102 64.0224C35.1136 63.9383 34.91 63.8192 34.6994 63.6231C33.9554 62.9365 33.3517 61.8787 32.8041 61.0381C31.6389 59.2517 30.4385 57.5284 29.3645 55.707C29.3224 55.6369 29.2803 55.5739 29.2452 55.5108C28.1852 53.6894 27.1463 51.4757 27.0972 49.325V49.248C27.0761 47.9099 27.1604 46.1516 28.5643 45.5701C29.6804 45.1078 31.3441 45.7453 31.8074 44.2811C32.0179 43.6226 31.9197 42.845 31.9197 42.1445C31.9197 41.0937 31.7793 40.176 31.5125 39.2443C31.4213 38.929 31.316 38.6208 31.2037 38.3055L35.1557 38.0113C35.1698 37.9693 35.1768 37.9272 35.1908 37.8852L35.4856 37.9062C35.5699 37.9202 35.6752 37.9272 35.7735 37.9343H35.8436C35.9068 37.9413 35.956 37.9413 35.9911 37.9483H36.0472H36.1104C36.1455 37.9483 36.1876 37.9483 36.2508 37.9413H36.328C36.4193 37.9272 36.5175 37.9202 36.6018 37.9132L36.9036 37.8922C36.9176 37.9413 36.9247 37.9833 36.9387 38.0183L40.8908 38.3125C40.4836 39.4264 40.245 40.4492 40.1888 41.6261C40.1818 41.8012 40.1818 41.9764 40.1818 42.1515C40.1818 42.852 40.0765 43.6296 40.2871 44.2882C40.7504 45.7593 42.414 45.1218 43.5301 45.5771C44.6603 46.0465 44.9411 47.2725 44.9972 48.4353C45.0113 48.7436 45.0113 49.0518 44.9972 49.332L45.0113 49.325Z" fill="url(#paint4_radial_221_18)"/>
<g style="mix-blend-mode:overlay" opacity="0.6">
<path d="M33.5623 51.7489C32.1022 51.9801 30.5228 50.649 29.2663 50.0676C28.6416 49.7734 27.8554 49.5352 27.1043 49.248C27.0832 47.9099 27.1674 46.1516 28.5714 45.5701C29.6875 45.1078 31.3511 45.7453 31.8144 44.2811C32.025 43.6226 31.9268 42.845 31.9268 42.1445C31.9268 41.0937 31.7864 40.176 31.5196 39.2443C33.6185 38.7749 37.8724 39.9238 39.2833 39.4544L39.8519 41.7312C41.1576 45.0447 34.7697 44.3162 32.6849 45.374C27.9747 47.7698 33.1131 48.7086 33.5623 51.7489Z" fill="#1D1D1B"/>
</g>
<g style="mix-blend-mode:overlay" opacity="0.3">
<path d="M45.0042 48.4283C44.8498 48.5614 44.7094 48.6665 44.5971 48.7436C42.6035 50.0606 39.9711 50.6491 37.6406 51.0273C38.5462 49.7384 39.2551 47.8749 39.0656 46.3057C38.8901 46.2637 38.7357 46.2917 38.5602 46.2427C37.9074 45.1428 38.2513 43.4475 38.3356 42.6699L40.1958 41.6191C40.1888 41.7942 40.1887 41.9694 40.1887 42.1445C40.1887 42.845 40.0835 43.6226 40.294 44.2811C40.7573 45.7523 42.421 45.1148 43.5371 45.5701C44.6673 46.0395 44.9481 47.2654 45.0042 48.4283Z" fill="white"/>
</g>
<path d="M59.5279 49.9695C59.1138 49.255 58.6364 48.6105 58.0748 48.0921C55.1055 45.36 50.7393 47.6577 47.4612 45.8924L46.0362 46.5019V50.1026L41.5015 50.2778L36.0262 52.7086L35.3663 52.2393C32.2356 51.6929 29.0978 49.7454 25.9671 49.0028L26.0723 46.4878L24.6754 45.8924C21.3973 47.6577 17.0311 45.36 14.0618 48.0921C13.5002 48.6035 13.0299 49.248 12.6087 49.9695C10.0957 56.5266 9.1761 63.6931 9.0708 70.6775C10.3975 73.4306 13.079 75.5743 16.0834 75.7144C16.1676 75.4482 16.6169 75.3851 16.9468 75.6233C19.2844 77.2906 24.865 79.4202 26.669 79.9597C29.3856 80.7723 31.6249 80.9054 34.1168 80.9824C34.1168 81.0315 34.1168 81.0735 34.1168 81.1155C34.7977 81.0805 35.4436 81.0525 36.0683 81.0385C36.693 81.0595 37.3389 81.0805 38.0198 81.1155C38.0198 81.0735 38.0198 81.0245 38.0198 80.9824C40.5117 80.9124 42.751 80.7723 45.4676 79.9597C47.2716 79.4202 52.8522 77.2906 55.1898 75.6233C55.5197 75.3851 55.969 75.4412 56.0532 75.7144C59.0576 75.5743 61.7461 73.4306 63.0658 70.6775C62.9535 63.6931 62.0409 56.5266 59.5279 49.9695Z" fill="white"/>
<path style="mix-blend-mode:multiply" d="M59.5279 49.9695C59.1138 49.255 58.6364 48.6105 58.0748 48.0921C55.1055 45.36 50.7393 47.6577 47.4612 45.8924L46.0362 46.5019V50.1026L41.5015 50.2778L36.0262 52.7086L35.3663 52.2393C32.2356 51.6929 29.0978 49.7454 25.9671 49.0028L26.0723 46.4878L24.6754 45.8924C21.3973 47.6577 17.0311 45.36 14.0618 48.0921C13.5002 48.6035 13.0299 49.248 12.6087 49.9695C10.0957 56.5266 9.1761 63.6931 9.0708 70.6775C10.3975 73.4306 13.079 75.5743 16.0834 75.7144C16.1676 75.4482 16.6169 75.3851 16.9468 75.6233C19.2844 77.2906 24.865 79.4202 26.669 79.9597C29.3856 80.7723 31.6249 80.9054 34.1168 80.9824C34.1168 81.0315 34.1168 81.0735 34.1168 81.1155C34.7977 81.0805 35.4436 81.0525 36.0683 81.0385C36.693 81.0595 37.3389 81.0805 38.0198 81.1155C38.0198 81.0735 38.0198 81.0245 38.0198 80.9824C40.5117 80.9124 42.751 80.7723 45.4676 79.9597C47.2716 79.4202 52.8522 77.2906 55.1898 75.6233C55.5197 75.3851 55.969 75.4412 56.0532 75.7144C59.0576 75.5743 61.7461 73.4306 63.0658 70.6775C62.9535 63.6931 62.0409 56.5266 59.5279 49.9695Z" fill="url(#paint5_radial_221_18)"/>
<g style="mix-blend-mode:multiply" opacity="0.2">
<path d="M48.0157 50.9783C47.1101 49.8434 45.643 49.1569 44.0636 48.5755C42.9124 48.9748 41.4453 49.318 40.0203 49.7734C40.0554 50.6981 39.564 51.5598 38.7778 52.0431C40.4064 52.1902 42.2034 52.9188 43.7126 53.8926C44.8007 54.5931 45.7413 55.4197 46.3661 56.2464C46.6679 56.1763 46.9978 56.1623 47.3628 56.2183C47.419 56.2254 47.4611 56.2464 47.5103 56.2534C47.9595 55.5598 49.5459 54.5511 49.6512 53.4022C49.574 53.2901 48.3456 52.0571 48.0086 50.9713L48.0157 50.9783Z" fill="#1D1D1B"/>
</g>
<g style="mix-blend-mode:multiply" opacity="0.2">
<path d="M30.0665 49.5702C29.7014 50.0116 29.203 50.3408 28.6345 50.4529C27.2305 50.7401 25.953 49.8154 25.623 48.4704C25.4405 47.7278 25.4826 47.0413 25.6722 46.3968C25.0053 46.719 24.3946 47.1393 23.8681 47.7418C23.2644 48.4213 22.5625 48.6245 21.9167 48.4984C20.962 49.7874 19.9652 51.1955 19.2141 52.6946C19.4809 53.0449 19.6634 53.4582 19.7476 53.8926C21.2568 54.3899 22.8994 55.3006 23.84 56.6247C23.8892 56.6106 23.9313 56.5966 23.9875 56.5826C24.3525 56.5056 24.6754 56.5126 24.9842 56.5686C25.5739 55.714 26.4724 54.8453 27.5324 54.1027C29.884 52.4424 32.9936 51.3776 35.0504 52.3724C35.1066 52.4004 35.1627 52.4354 35.2259 52.4705L35.0644 51.6999C33.8571 50.614 31.9337 50.0326 30.0665 49.5772V49.5702Z" fill="#1D1D1B"/>
</g>
<path style="mix-blend-mode:multiply" d="M59.5279 49.9695C59.1138 49.255 58.6364 48.6105 58.0748 48.0921C55.1055 45.36 50.7393 47.6577 47.4612 45.8924L46.0362 46.5019V50.1026L41.5015 50.2778L36.0262 52.7086L35.3663 52.2393C32.2356 51.6929 29.0978 49.7454 25.9671 49.0028L26.0723 46.4878L24.6754 45.8924C21.3973 47.6577 17.0311 45.36 14.0618 48.0921C13.5002 48.6035 13.0299 49.248 12.6087 49.9695C10.0957 56.5266 9.1761 63.6931 9.0708 70.6775C10.3975 73.4306 13.079 75.5743 16.0834 75.7144C16.1676 75.4482 16.6169 75.3851 16.9468 75.6233C19.2844 77.2906 24.865 79.4202 26.669 79.9597C29.3856 80.7723 31.6249 80.9054 34.1168 80.9824C34.1168 81.0315 34.1168 81.0735 34.1168 81.1155C34.7977 81.0805 35.4436 81.0525 36.0683 81.0385C36.693 81.0595 37.3389 81.0805 38.0198 81.1155C38.0198 81.0735 38.0198 81.0245 38.0198 80.9824C40.5117 80.9124 42.751 80.7723 45.4676 79.9597C47.2716 79.4202 52.8522 77.2906 55.1898 75.6233C55.5197 75.3851 55.969 75.4412 56.0532 75.7144C59.0576 75.5743 61.7461 73.4306 63.0658 70.6775C62.9535 63.6931 62.0409 56.5266 59.5279 49.9695Z" fill="url(#paint6_radial_221_18)"/>
<path style="mix-blend-mode:multiply" d="M63.0661 70.6775C63.0029 70.8106 62.9327 70.9437 62.8625 71.0768C61.5288 73.5567 59.0719 75.4552 56.3202 75.6934C56.236 75.7074 56.1448 75.7144 56.0535 75.7214C55.9693 75.4552 55.527 75.3921 55.1971 75.6303C55.1199 75.6794 55.0497 75.7354 54.9725 75.7914C54.3477 76.2048 53.5475 76.6461 52.663 77.0804C50.0658 78.3554 46.7806 79.5744 45.4749 79.9667C42.7583 80.7793 40.5261 80.9194 38.0341 80.9894C38.0341 81.0385 38.0341 81.0805 38.0201 81.1226C37.3392 81.0875 36.7004 81.0665 36.0686 81.0455C35.4509 81.0665 34.7981 81.0875 34.1242 81.1226C34.1171 81.0805 34.1172 81.0385 34.1172 80.9894C31.6182 80.9194 29.3859 80.7793 26.6693 79.9667C25.3637 79.5814 22.0785 78.3554 19.4812 77.0804C18.5125 76.6041 17.6351 76.1207 16.9963 75.6723C16.9822 75.6583 16.9612 75.6443 16.9471 75.6373C16.6172 75.3991 16.175 75.4622 16.0907 75.7284C15.9995 75.7284 15.9082 75.7144 15.824 75.7074C12.9249 75.4482 10.3627 73.3536 9.07812 70.6845C9.09918 69.4586 9.1413 68.2256 9.21852 66.9927C9.55546 61.1992 10.5382 55.3777 12.616 49.9765C13.0302 49.262 13.5075 48.6175 14.0621 48.0991C16.1399 46.2006 18.8846 46.74 21.4748 46.642C22.5979 46.5929 23.686 46.4388 24.6828 45.8994L26.0867 46.4949L25.9744 49.0168C29.1122 49.7594 32.2429 51.7069 35.3737 52.2533L36.0405 52.7156L41.5158 50.2848L46.0505 50.1096V46.5019L47.4755 45.8924C47.5317 45.9204 47.5808 45.9484 47.637 45.9764C50.9011 47.5877 55.169 45.402 58.0892 48.0851C58.6508 48.6035 59.1211 49.248 59.5352 49.9625C62.0483 56.5126 62.9678 63.6861 63.0731 70.6705L63.0661 70.6775Z" fill="url(#paint7_radial_221_18)"/>
<g style="mix-blend-mode:overlay" opacity="0.1">
<path d="M63.0658 70.6775C63.0026 70.8106 62.9324 70.9437 62.8623 71.0768C62.413 68.1906 61.7742 65.4445 60.623 62.7264C59.0997 59.1396 58.117 54.9294 55.3161 52.0992C53.2805 50.0536 48.2404 49.29 46.0432 47.7768L47.6297 45.9835C50.8938 47.5947 55.1617 45.409 58.0819 48.0921C58.6434 48.6105 59.1138 49.255 59.5279 49.9695C62.041 56.5196 62.9605 63.6931 63.0658 70.6775Z" fill="white"/>
</g>
<path d="M47.4541 8.8198C49.0545 7.86006 51.2306 9.07199 52.7328 7.76899C56.0812 9.94066 55.295 16.3156 54.3684 19.517C53.0206 24.1826 48.128 28.1547 45.3903 32.2389C43.7898 29.2896 45.4605 25.4086 45.5939 22.2071C45.7343 18.9496 45.0253 15.9093 45.0253 12.6307C45.6219 11.5729 46.1203 10.2489 46.8855 9.31718C47.061 9.10702 47.2505 8.93889 47.4541 8.8198Z" fill="#45290F"/>
<path style="mix-blend-mode:overlay" d="M54.3685 19.517C54.3334 19.6431 54.2912 19.7692 54.2561 19.8953C52.7539 24.3998 48.0578 28.2668 45.3974 32.2459C43.7969 29.2896 45.4676 25.4086 45.6009 22.2141C45.7343 18.9566 45.0324 15.9163 45.0324 12.6447C45.622 11.5869 46.1274 10.2629 46.8855 9.33119C47.061 9.11403 47.2506 8.9529 47.4471 8.83381C49.0546 7.86706 51.2307 9.086 52.7259 7.79C53.3436 8.19632 53.8209 8.74274 54.186 9.38724C55.7794 12.2174 55.1196 16.925 54.3685 19.5311V19.517Z" fill="url(#paint8_radial_221_18)"/>
<path d="M21.643 21.0162C20.3233 19.7833 18.3929 20.785 17.8384 22.06C17.2698 23.363 17.8243 25.3035 18.3719 26.5575C19.3546 28.7992 21.5377 32.1688 24.0227 29.1915L21.643 21.0162Z" fill="#DBA2A1"/>
<path style="mix-blend-mode:multiply" d="M24.0225 29.1915C23.8751 29.3596 23.7347 29.5068 23.5943 29.6399C21.7622 31.3492 20.1266 29.7309 19.0667 27.9375C18.7929 27.4682 18.5542 26.9918 18.3647 26.5645C17.9856 25.6888 17.5995 24.5049 17.5925 23.4191C17.5925 22.9287 17.6557 22.4663 17.8312 22.067C18.3928 20.785 20.3232 19.7833 21.6358 21.0162L21.6709 21.1283L24.0225 29.1985V29.1915Z" fill="url(#paint9_radial_221_18)"/>
<g style="mix-blend-mode:overlay" opacity="0.3">
<path d="M21.678 21.1213C21.6288 21.3665 21.4954 21.6047 21.2498 21.8288C20.611 22.4313 18.9614 22.081 18.1541 22.7535C17.9505 22.9147 17.768 23.1458 17.5925 23.405C17.5925 22.9217 17.6557 22.4593 17.8312 22.06C18.3928 20.778 20.3232 19.7762 21.6358 21.0092L21.6709 21.1213H21.678Z" fill="white"/>
</g>
<g style="mix-blend-mode:overlay" opacity="0.3">
<path d="M23.5943 29.6399C21.7622 31.3492 20.1266 29.7309 19.0667 27.9375C19.2421 27.8255 19.3896 27.6713 19.5299 27.5032C20.2389 26.6065 20.4846 25.1424 20.0985 24.0706C20.5057 24.8832 21.4463 26.6766 22.1483 27.7414C22.5063 28.2878 23.117 28.9463 23.5943 29.6399Z" fill="#1D1D1B"/>
</g>
<path d="M50.4796 21.0162C51.7993 19.7833 53.7297 20.785 54.2912 22.06C54.8598 23.363 54.3053 25.3035 53.7577 26.5575C52.775 28.7992 50.5919 32.1688 48.1069 29.1915L50.4866 21.0162H50.4796Z" fill="#DBA2A1"/>
<path style="mix-blend-mode:multiply" d="M54.4317 24.3368C54.2913 25.1354 54.0175 25.934 53.7438 26.5645C53.3787 27.3841 52.8593 28.3649 52.2135 29.1215C51.1605 30.3684 49.7917 31.0199 48.2895 29.4227C48.2263 29.3526 48.1561 29.2756 48.0859 29.1915L50.4656 21.0092C50.599 20.8831 50.7323 20.792 50.8798 20.708C52.1643 19.9724 53.7718 20.9041 54.2773 22.06C54.5651 22.7115 54.5651 23.5241 54.4247 24.3368H54.4317Z" fill="url(#paint10_radial_221_18)"/>
<g style="mix-blend-mode:overlay" opacity="0.3">
<path d="M52.2204 29.1215C51.1674 30.3684 49.7986 31.0199 48.2964 29.4227C48.6895 28.6031 49.1949 27.7694 49.3142 27.1319L52.0238 22.8656C52.0729 24.4278 51.4131 25.934 51.5956 27.5593C51.6869 28.3999 51.7711 28.568 52.2204 29.1285V29.1215Z" fill="#1D1D1B"/>
</g>
<g style="mix-blend-mode:overlay" opacity="0.3">
<path d="M54.4315 24.3368C53.9191 22.7746 52.8662 21.7798 50.5918 21.7238L50.8866 20.708C52.1712 19.9724 53.7787 20.9041 54.2841 22.06C54.5719 22.7115 54.5719 23.5241 54.4315 24.3368Z" fill="white"/>
</g>
<path d="M51.6799 13.3663L36.7913 11.622C36.7772 11.5659 36.7632 11.5099 36.7491 11.4538L36.0612 11.5309L35.3733 11.4538C35.3522 11.5029 35.3382 11.5659 35.3312 11.622C35.3312 11.622 21.8675 9.3312 20.4425 13.3663C18.112 19.9934 21.3059 30.0392 24.3946 35.8536C26.2969 39.4334 29.3224 41.7312 34.1378 43.0412C39.9992 44.6384 45.3201 40.3861 47.7278 35.8606C50.8235 30.0392 54.0174 19.9934 51.6869 13.3663H51.6799Z" fill="#F2B3B2"/>
<path style="mix-blend-mode:multiply" d="M51.6799 13.3663L36.7913 11.622C36.7772 11.5659 36.7632 11.5099 36.7491 11.4538L36.0612 11.5309L35.3733 11.4538C35.3522 11.5029 35.3382 11.5659 35.3312 11.622C35.3312 11.622 21.8675 9.3312 20.4425 13.3663C18.112 19.9934 21.3059 30.0392 24.3946 35.8536C26.2969 39.4334 29.3224 41.7312 34.1378 43.0412C39.9992 44.6384 45.3201 40.3861 47.7278 35.8606C50.8235 30.0392 54.0174 19.9934 51.6869 13.3663H51.6799Z" fill="url(#paint11_radial_221_18)"/>
<path style="mix-blend-mode:multiply" d="M47.728 35.8536C45.3202 40.3861 39.9923 44.6314 34.1309 43.0342C29.3155 41.7312 26.297 39.4264 24.3877 35.8536C21.292 30.0392 18.0981 19.9934 20.4356 13.3663C21.8676 9.3312 35.3243 11.622 35.3243 11.622C35.3313 11.5659 35.3524 11.5099 35.3664 11.4538L36.0543 11.5309L36.7422 11.4538C36.7633 11.5029 36.7773 11.5589 36.7844 11.622L51.673 13.3663C52.1714 14.7884 52.4171 16.3716 52.4662 18.0389C52.6417 24.1196 50.1497 31.2931 47.7209 35.8607L47.728 35.8536Z" fill="url(#paint12_radial_221_18)"/>
<path style="mix-blend-mode:overlay" d="M47.728 35.8536C45.9029 39.2863 42.4071 42.5578 38.2725 43.2443C36.9528 43.4615 35.5629 43.4265 34.1309 43.0412C33.0991 42.761 32.1514 42.4387 31.281 42.0604C28.073 40.6944 25.8899 38.6698 24.3877 35.8607C21.292 30.0462 18.0981 20.0004 20.4356 13.3733C20.8287 12.2735 22.1203 11.636 23.8051 11.3067C28.2344 10.424 35.3243 11.629 35.3243 11.629C35.3313 11.5729 35.3524 11.5169 35.3664 11.4608L36.0543 11.5379L36.7422 11.4608C36.7633 11.5099 36.7773 11.5659 36.7844 11.629L51.673 13.3733C52.0872 14.5432 52.3258 15.8182 52.4241 17.1632C52.8804 23.4191 50.262 31.076 47.7139 35.8607L47.728 35.8536Z" fill="url(#paint13_radial_221_18)"/>
<g style="mix-blend-mode:overlay" opacity="0.3">
<path d="M51.6799 13.3593L36.7913 11.615C36.7773 11.5589 36.7632 11.5029 36.7492 11.4468L36.0613 11.5239L35.3733 11.4468C35.3523 11.4959 35.3382 11.5519 35.3312 11.615C35.3312 11.615 23.798 9.66045 20.955 12.5677C20.955 12.5677 20.955 12.5677 20.955 12.5747C20.8497 12.6868 20.7514 12.8059 20.6672 12.932C20.6672 12.932 20.6602 12.939 20.6532 12.946C20.5689 13.0791 20.4987 13.2122 20.4496 13.3523C18.1121 19.9864 21.313 30.0322 24.4017 35.8466C25.8968 38.6558 28.087 40.6804 31.2949 42.0464C29.7436 40.8625 28.3958 39.4474 27.5114 37.9342C25.1106 33.8291 22.5555 28.9463 22.5766 24.0986C22.5836 21.4295 22.7871 18.3822 23.2996 15.545C27.7781 18.3822 33.5553 19.6782 38.5392 18.7815C42.1964 18.13 45.1657 15.7271 48.5983 14.7884C51.3079 14.0528 51.3921 16.3926 52.4872 18.0319C52.4451 16.3646 52.1994 14.7814 51.694 13.3593H51.6799Z" fill="#1D1D1B"/>
</g>
<g style="mix-blend-mode:overlay" opacity="0.1">
<path d="M47.7279 35.8536C45.9028 39.2863 42.407 42.5578 38.2725 43.2443C39.171 42.0324 40.0625 40.7854 40.5749 39.2653C42.3649 33.9482 42.8844 28.4419 43.8531 22.9567C44.3866 19.9023 43.7478 17.8498 46.703 16.3716C47.6858 15.8812 48.9774 15.0896 50.1216 15.4049C50.4375 15.4959 51.329 16.4907 51.6378 16.7079C51.8625 16.869 52.1503 17.0161 52.4381 17.1562C52.8944 23.412 50.276 31.069 47.7279 35.8536Z" fill="white"/>
</g>
<path d="M38.3005 22.039H33.8149V23.0338H38.3005V22.039Z" fill="#393D4F"/>
<path d="M55.5548 3.68472C53.7858 4.91767 52.8312 6.07356 50.3532 5.94045C47.7911 5.80735 46.703 5.00874 45.1587 3.09626C41.9929 -0.812752 36.3701 -0.25232 31.4283 0.672393C27.5324 0.854533 23.2575 1.47101 19.8249 3.2784C17.7822 4.35723 15.7043 5.76532 15.4938 8.24523C15.3744 9.68134 16.2378 11.1104 16.1887 12.6026C16.1255 14.6552 15.3393 16.1403 15.7956 18.305C16.1045 19.7411 16.7924 21.1212 17.719 22.4172C17.7541 22.2981 17.7822 22.172 17.8313 22.0599C18.1472 21.3453 18.8842 20.7148 19.7126 20.5187C19.509 17.9547 19.6915 15.4818 20.4356 13.3662C20.5479 13.0369 20.7515 12.7567 21.0112 12.5045C23.791 13.6604 26.3391 14.389 29.3224 15.0124C33.6465 15.9161 37.7179 16.3155 41.9999 15.3277C45.0394 14.6272 48.0999 13.6814 51.1605 13.086C51.9818 12.9248 52.7399 12.4905 53.4138 11.9091C54.6493 10.8372 55.5969 9.26101 56.1023 7.93699C56.706 6.34677 56.1936 5.12082 55.5337 3.69172L55.5548 3.68472Z" fill="#45290F"/>
<path style="mix-blend-mode:overlay" d="M55.5548 3.68472C53.7858 4.91767 52.8312 6.07356 50.3532 5.94045C47.7911 5.80735 46.703 5.00874 45.1587 3.09626C41.9929 -0.812752 36.3701 -0.25232 31.4283 0.672393C27.5324 0.854533 23.2575 1.47101 19.8249 3.2784C17.7822 4.35723 15.7043 5.76532 15.4938 8.24523C15.3744 9.68134 16.2378 11.1104 16.1887 12.6026C16.1255 14.6552 15.3393 16.1403 15.7956 18.305C16.1045 19.7411 16.7924 21.1212 17.719 22.4172C17.7541 22.2981 17.7822 22.172 17.8313 22.0599C18.1472 21.3453 18.8842 20.7148 19.7126 20.5187C19.509 17.9547 19.6915 15.4818 20.4356 13.3662C20.5479 13.0369 20.7515 12.7567 21.0112 12.5045C23.791 13.6604 26.3391 14.389 29.3224 15.0124C33.6465 15.9161 37.7179 16.3155 41.9999 15.3277C45.0394 14.6272 48.0999 13.6814 51.1605 13.086C51.9818 12.9248 52.7399 12.4905 53.4138 11.9091C54.6493 10.8372 55.5969 9.26101 56.1023 7.93699C56.706 6.34677 56.1936 5.12082 55.5337 3.69172L55.5548 3.68472Z" fill="url(#paint14_radial_221_18)"/>
<path style="mix-blend-mode:multiply" d="M55.5548 3.68472C53.7858 4.91767 52.8312 6.07356 50.3532 5.94045C47.7911 5.80735 46.703 5.00874 45.1587 3.09626C41.9929 -0.812752 36.3701 -0.25232 31.4283 0.672393C27.5324 0.854533 23.2575 1.47101 19.8249 3.2784C17.7822 4.35723 15.7043 5.76532 15.4938 8.24523C15.3744 9.68134 16.2378 11.1104 16.1887 12.6026C16.1255 14.6552 15.3393 16.1403 15.7956 18.305C16.1045 19.7411 16.7924 21.1212 17.719 22.4172C17.7541 22.2981 17.7822 22.172 17.8313 22.0599C18.1472 21.3453 18.8842 20.7148 19.7126 20.5187C19.509 17.9547 19.6915 15.4818 20.4356 13.3662C20.5479 13.0369 20.7515 12.7567 21.0112 12.5045C23.791 13.6604 26.3391 14.389 29.3224 15.0124C33.6465 15.9161 37.7179 16.3155 41.9999 15.3277C45.0394 14.6272 48.0999 13.6814 51.1605 13.086C51.9818 12.9248 52.7399 12.4905 53.4138 11.9091C54.6493 10.8372 55.5969 9.26101 56.1023 7.93699C56.706 6.34677 56.1936 5.12082 55.5337 3.69172L55.5548 3.68472Z" fill="url(#paint15_radial_221_18)"/>
<path style="mix-blend-mode:multiply" d="M56.1163 7.93011C55.6179 9.25414 54.6632 10.8303 53.4278 11.9022C52.7539 12.4836 51.9958 12.925 51.1745 13.0861C49.6723 13.3733 48.1771 13.7516 46.6819 14.1369C45.1235 14.5432 43.5652 14.9635 42.0068 15.3278C37.7178 16.3156 33.6464 15.9163 29.3294 15.0056C26.339 14.3891 23.7979 13.6605 21.0111 12.5046C20.7514 12.7568 20.5478 13.0371 20.4355 13.3593C19.6914 15.4819 19.5089 17.9478 19.7125 20.5118C18.8842 20.715 18.1471 21.3385 17.8312 22.053C17.7821 22.1651 17.747 22.2912 17.7189 22.4173C17.1363 21.5977 16.6449 20.75 16.2869 19.8743C16.0763 19.3559 15.9078 18.8375 15.7955 18.3051C15.3392 16.1404 16.1325 14.6553 16.1956 12.5957C16.2448 11.1036 15.3743 9.68146 15.4937 8.23835C15.6972 5.76545 17.7751 4.35035 19.8248 3.27152C23.2644 1.46413 27.5394 0.840648 31.4282 0.665513C36.3701 -0.266205 41.9928 -0.826637 45.1516 3.08238C46.6959 5.00186 47.784 5.79347 50.3461 5.92657C52.8311 6.05267 53.7858 4.90378 55.5477 3.67083C56.2005 5.09993 56.72 6.32588 56.1093 7.92311L56.1163 7.93011Z" fill="url(#paint16_radial_221_18)"/>
<path style="mix-blend-mode:screen" d="M55.5828 7.72696C56.011 6.59909 55.8075 5.7094 55.3161 4.55351C55.2108 4.63057 55.1125 4.70763 55.0072 4.78469C53.7718 5.71641 52.7048 6.51503 50.7182 6.51503C50.5849 6.51503 50.4515 6.51502 50.3111 6.50802C47.5173 6.36091 46.2818 5.40817 44.7024 3.45366C43.137 1.51317 40.7433 0.574444 37.388 0.574444C35.3242 0.574444 33.1692 0.931719 31.5195 1.23996H31.4774L31.4353 1.24696C26.6198 1.47114 22.8994 2.29777 20.0705 3.78992C18.091 4.83373 16.2238 6.10171 16.0413 8.3014C16.0413 8.37146 16.0413 8.44852 16.0413 8.51857C20.3443 3.40463 28.3677 1.38707 34.8749 2.78115C31.4564 3.34858 29.175 5.62534 26.8936 7.33466C32.025 9.03697 37.1493 8.46953 41.712 6.19278C41.712 7.90209 40.0063 8.46953 38.8621 9.03697C43.9934 9.60441 49.6934 10.7463 54.2491 6.76021C55.1897 8.63066 53.0488 10.1158 52.5714 11.8461C52.7329 11.734 52.8943 11.608 53.0558 11.4678C54.0877 10.5712 55.0353 9.17007 55.5899 7.71995L55.5828 7.72696Z" fill="url(#paint17_linear_221_18)"/>
<path d="M43.2213 36.7924C42.751 37.6821 43.1792 37.577 42.5755 38.7119C42.028 39.7487 40.0063 41.507 39.0095 41.8433C36.9458 42.5438 33.9624 40.6103 32.2075 39.8047C33.9343 39.6085 35.7805 39.1952 37.6477 38.5647C39.185 38.0463 40.6311 37.4088 41.9227 36.7083C42.1965 36.5542 42.9476 36.9535 43.2143 36.7924H43.2213Z" fill="white"/>
<path d="M57.7941 36.463V39.8746C57.7941 40.386 57.0992 40.7783 56.1796 40.7853C54.3264 40.8064 52.6487 40.7783 51.1184 40.7153C50.1989 40.6803 49.3355 40.6312 48.5282 40.5682C45.8818 40.365 43.797 40.0358 42.1263 39.6224C41.8596 39.5594 41.5086 39.3072 41.5086 39.055C41.3331 38.4315 41.3331 37.9201 41.5086 37.2967C41.5086 37.0375 41.8806 36.7993 42.1544 36.7292C43.8321 36.3159 45.9309 35.9866 48.5984 35.7905C49.4197 35.7274 50.2901 35.6854 51.2167 35.6504C52.733 35.5873 54.4107 35.5663 56.2568 35.5803C57.1483 35.5873 57.7871 35.9726 57.7871 36.47L57.7941 36.463Z" fill="#452400"/>
<path style="mix-blend-mode:multiply" d="M57.7941 36.463V39.8746C57.7941 40.386 57.0992 40.7783 56.1796 40.7853C54.3264 40.8064 52.6487 40.7783 51.1184 40.7153C50.1989 40.6803 49.3355 40.6312 48.5282 40.5682C45.8818 40.365 43.797 40.0358 42.1263 39.6224C41.8596 39.5594 41.5086 39.3072 41.5086 39.055C41.3331 38.4315 41.3331 37.9201 41.5086 37.2967C41.5086 37.0375 41.8806 36.7993 42.1544 36.7292C43.8321 36.3159 45.9309 35.9866 48.5984 35.7905C49.4197 35.7274 50.2901 35.6854 51.2167 35.6504C52.733 35.5873 54.4107 35.5663 56.2568 35.5803C57.1483 35.5873 57.7871 35.9726 57.7871 36.47L57.7941 36.463Z" fill="url(#paint18_radial_221_18)"/>
<path style="mix-blend-mode:overlay" d="M57.7941 36.463V39.8746C57.7941 40.386 57.0992 40.7783 56.1796 40.7853C54.3264 40.8064 52.6487 40.7783 51.1184 40.7153C50.1989 40.6803 49.3355 40.6312 48.5282 40.5682C45.8818 40.365 43.797 40.0358 42.1263 39.6224C41.8596 39.5594 41.5086 39.3072 41.5086 39.055C41.3331 38.4315 41.3331 37.9201 41.5086 37.2967C41.5086 37.0375 41.8806 36.7993 42.1544 36.7292C43.8321 36.3159 45.9309 35.9866 48.5984 35.7905C49.4197 35.7274 50.2901 35.6854 51.2167 35.6504C52.733 35.5873 54.4107 35.5663 56.2568 35.5803C57.1483 35.5873 57.7871 35.9726 57.7871 36.47L57.7941 36.463Z" fill="url(#paint19_radial_221_18)"/>
<g style="mix-blend-mode:overlay" opacity="0.3">
<path d="M56.2637 35.5734C54.4175 35.5524 52.7399 35.5734 51.2236 35.6435C50.29 35.6785 49.4196 35.7276 48.6053 35.7836C45.9378 35.9868 43.839 36.309 42.1613 36.7223C41.8945 36.7924 41.5155 37.0306 41.5155 37.2898C41.3961 37.7101 41.361 38.0814 41.4102 38.4667C41.4312 38.2775 41.4593 38.0884 41.5155 37.8852C41.5155 37.619 41.8875 37.3878 42.1613 37.3178C43.839 36.9045 45.9378 36.5752 48.6053 36.372C49.4266 36.309 50.297 36.26 51.2236 36.2319C52.7399 36.1689 54.4175 36.1479 56.2637 36.1619C57.1552 36.1689 57.794 36.5542 57.794 37.0516V36.4631C57.794 35.9657 57.1552 35.5804 56.2637 35.5734Z" fill="white"/>
</g>
<g style="mix-blend-mode:overlay" opacity="0.3">
<path d="M56.8043 39.9378C54.9512 39.9588 53.2735 39.9308 51.7432 39.8677C50.8236 39.8257 49.9602 39.7767 49.1529 39.7136C46.5136 39.5105 44.4217 39.1812 42.751 38.7679C42.4843 38.7048 42.1333 38.4597 42.1333 38.2005C41.9859 37.6821 41.9719 37.2407 42.0631 36.7503C41.8104 36.8414 41.5086 37.0586 41.5086 37.2898C41.3331 37.9132 41.3331 38.4246 41.5086 39.0481C41.5086 39.3073 41.8596 39.5525 42.1263 39.6155C43.797 40.0289 45.8818 40.3581 48.5282 40.5613C49.3425 40.6243 50.1989 40.6734 51.1184 40.7084C52.6417 40.7714 54.3194 40.7995 56.1796 40.7784C57.0992 40.7714 57.7941 40.3791 57.7941 39.8677V39.7416C57.5203 39.8607 57.1834 39.9308 56.8043 39.9378Z" fill="#1D1D1B"/>
</g>
<path d="M51.1254 40.7154C50.3111 40.8135 49.3284 40.7574 48.5352 40.5683C48.2825 38.9851 48.3105 37.3668 48.6054 35.7906C49.4126 35.6575 50.4094 35.6085 51.2237 35.6505C50.8165 37.3178 50.7814 39.0481 51.1254 40.7224V40.7154Z" fill="#ED9600"/>
<path style="mix-blend-mode:overlay" d="M50.9922 39.9168C51.0273 40.183 51.0694 40.4492 51.1255 40.7224C50.3113 40.8205 49.3355 40.7574 48.5353 40.5683C48.4932 40.3161 48.4581 40.0639 48.437 39.8187C48.2966 38.4807 48.3528 37.1216 48.6055 35.7906C49.4128 35.6645 50.4095 35.6085 51.2238 35.6505C50.8799 37.0516 50.8026 38.5017 50.9922 39.9238V39.9168Z" fill="url(#paint20_radial_221_18)"/>
<path style="mix-blend-mode:multiply" d="M50.9922 39.9168C51.0273 40.183 51.0694 40.4492 51.1255 40.7224C50.3113 40.8205 49.3355 40.7574 48.5353 40.5683C48.4932 40.3161 48.4581 40.0639 48.437 39.8187C48.2966 38.4807 48.3528 37.1216 48.6055 35.7906C49.4128 35.6645 50.4095 35.6085 51.2238 35.6505C50.8799 37.0516 50.8026 38.5017 50.9922 39.9238V39.9168Z" fill="url(#paint21_radial_221_18)"/>
<g style="mix-blend-mode:overlay" opacity="0.3">
<path d="M50.9008 38.4807L48.3667 38.5227C48.3667 38.957 48.3948 39.3844 48.4369 39.8117C49.2582 39.9378 50.1778 39.9728 50.992 39.9168C50.9289 39.4404 50.9078 38.964 50.9008 38.4807Z" fill="#1D1D1B"/>
</g>
<path d="M56.7202 38.1794C56.7202 36.8694 57.0361 35.8116 57.4222 35.8116C57.8083 35.8116 58.1241 36.8694 58.1241 38.1794C58.1241 39.4895 57.8083 40.5473 57.4222 40.5473C57.0361 40.5473 56.7202 39.4895 56.7202 38.1794Z" fill="#878787"/>
<path style="mix-blend-mode:multiply" d="M56.7202 38.1794C56.7202 36.8694 57.0361 35.8116 57.4222 35.8116C57.8083 35.8116 58.1241 36.8694 58.1241 38.1794C58.1241 39.4895 57.8083 40.5473 57.4222 40.5473C57.0361 40.5473 56.7202 39.4895 56.7202 38.1794Z" fill="url(#paint22_radial_221_18)"/>
<path style="mix-blend-mode:overlay" d="M57.4221 36.9605C57.752 36.9605 58.0258 37.7241 58.096 38.7469C58.11 38.5647 58.1171 38.3686 58.1171 38.1724C58.1171 36.8624 57.8012 35.8046 57.4151 35.8046C57.029 35.8046 56.7131 36.8624 56.7131 38.1724C56.7131 38.3686 56.7272 38.5647 56.7412 38.7469C56.8184 37.7241 57.0922 36.9605 57.4151 36.9605H57.4221Z" fill="url(#paint23_radial_221_18)"/>
<path d="M52.5576 38.1794C52.5576 38.943 51.3151 39.5665 49.7919 39.5665C48.2686 39.5665 47.0261 38.943 47.0261 38.1794C47.0261 37.4159 48.2616 36.7924 49.7919 36.7924C51.3221 36.7924 52.5576 37.4159 52.5576 38.1794Z" fill="#EDCD00"/>
<path style="mix-blend-mode:multiply" d="M52.5576 38.1794C52.5576 38.943 51.3151 39.5665 49.7919 39.5665C48.2686 39.5665 47.0261 38.943 47.0261 38.1794C47.0261 37.4159 48.2616 36.7924 49.7919 36.7924C51.3221 36.7924 52.5576 37.4159 52.5576 38.1794Z" fill="url(#paint24_radial_221_18)"/>
<path style="mix-blend-mode:hard-light" d="M49.7918 36.7924C48.3528 36.7924 47.1735 37.3458 47.0471 38.0533C47.4753 37.563 48.451 37.2127 49.5882 37.2127C51.1185 37.2127 52.354 37.8362 52.354 38.5998C52.354 38.6418 52.3329 38.6838 52.3259 38.7189C52.4733 38.5507 52.5575 38.3686 52.5575 38.1724C52.5575 37.4088 51.3151 36.7854 49.7918 36.7854V36.7924Z" fill="url(#paint25_radial_221_18)"/>
<path d="M34.4888 22.095C33.0007 20.2176 24.893 19.8953 23.103 22.1441C22.3589 23.0828 21.9097 24.2667 21.9097 25.5627C21.9097 28.596 24.3806 31.0619 27.4201 31.0619C28.8591 31.0619 31.9337 29.9131 32.9164 29.0164C34.2081 27.8325 35.8015 25.7519 35.605 24.596C35.4435 23.6642 35.0504 22.8166 34.4888 22.109V22.095Z" fill="#44495E"/>
<path style="mix-blend-mode:screen" d="M33.8361 22.5084C33.2675 21.7938 31.0422 21.2544 28.6696 21.2544C26.297 21.2544 24.3946 21.7658 23.7629 22.5574C23.4189 22.9847 23.1592 23.4611 22.9907 23.9655C26.9147 24.0846 30.8667 24.659 33.6676 27.0058C34.4046 26.0531 34.882 25.1214 34.8048 24.652C34.6714 23.8744 34.3344 23.1318 33.8431 22.5084H33.8361Z" fill="url(#paint26_linear_221_18)"/>
<path d="M37.6336 22.095C39.1217 20.2176 47.2294 19.8953 49.0194 22.1441C49.7635 23.0828 50.2128 24.2667 50.2128 25.5627C50.2128 28.596 47.7489 31.0619 44.7024 31.0619C43.2633 31.0619 40.1887 29.9131 39.199 29.0164C37.9074 27.8325 36.3139 25.7519 36.5104 24.596C36.6719 23.6642 37.065 22.8166 37.6266 22.109L37.6336 22.095Z" fill="#44495E"/>
<path style="mix-blend-mode:screen" d="M48.3666 22.5854C47.7349 21.7938 45.8115 21.2824 43.4599 21.2824C41.1083 21.2824 38.8621 21.8218 38.2935 22.5434C37.8512 23.1038 37.5424 23.7623 37.3879 24.4489C41.5716 24.3017 45.8536 25.4786 48.4509 28.3439C49.0405 27.5522 49.3915 26.5855 49.3915 25.5277C49.3915 24.4699 49.0335 23.4401 48.3666 22.5924V22.5854Z" fill="url(#paint27_linear_221_18)"/>
<path d="M45.9168 44.3302C44.2812 43.3845 42.042 43.6156 40.1748 43.0062C40.1607 43.4475 40.1748 43.8818 40.3011 44.2741C40.4556 44.7715 40.7574 45.0307 41.1294 45.1708C41.1294 45.1708 41.1786 45.1708 41.1996 45.1708C41.5296 45.339 41.9227 45.3179 42.3158 45.346C43.0669 45.5912 43.7688 46.1516 44.6252 47.2094C42.6878 48.7086 37.7881 49.9275 36.0613 52.5055C34.3344 49.9275 29.4347 48.7086 27.4973 47.2094C28.3537 46.1516 29.0557 45.5982 29.7998 45.353C30.2069 45.325 30.607 45.2969 30.951 45.1778C30.965 45.1778 30.972 45.1778 30.9861 45.1778C31.0212 45.1638 31.0563 45.1428 31.0914 45.1218C31.0914 45.1218 31.0914 45.1218 31.0984 45.1218C31.4143 44.9677 31.667 44.7295 31.8074 44.2811C31.9337 43.8888 31.9478 43.4475 31.9337 43.0132C30.0665 43.6226 27.8272 43.3915 26.1917 44.3372C24.5631 45.8994 22.015 47.8259 20.1829 50.1587C20.3794 50.558 20.4707 50.9923 20.4707 51.4407C21.8465 52.2323 23.2715 53.4512 23.9313 54.9364C23.9805 54.9364 24.0296 54.9224 24.0858 54.9224C24.4578 54.9224 24.7737 54.9924 25.0685 55.1045C25.8126 54.3899 26.8726 53.7174 28.0589 53.199C30.6983 52.0431 33.9554 51.6228 35.7735 53.0099C35.8717 53.0799 35.97 53.171 36.0542 53.2551C36.1385 53.171 36.2368 53.0799 36.335 53.0099C38.1531 51.6228 41.4102 52.0431 44.0496 53.199C45.2359 53.7174 46.2959 54.3829 47.04 55.1045C47.3348 54.9924 47.6507 54.9224 48.0227 54.9224C48.0789 54.9224 48.121 54.9364 48.1771 54.9364C48.83 53.4512 50.255 52.2323 51.6378 51.4407C51.6378 50.9993 51.7291 50.558 51.9256 50.1587C50.0935 47.8259 47.5454 45.8994 45.9168 44.3372V44.3302Z" fill="#1E2930"/>
<path style="mix-blend-mode:overlay" d="M51.9256 50.1587C51.7291 50.558 51.6378 50.9923 51.6378 51.4407C51.2868 51.6438 50.9288 51.875 50.5779 52.1342C49.5741 52.8698 48.6615 53.8295 48.1771 54.9364C48.128 54.9364 48.0789 54.9224 48.0227 54.9224C47.6507 54.9224 47.3348 54.9924 47.04 55.1045C46.2959 54.3899 45.2359 53.7174 44.0496 53.199C41.4102 52.0431 38.1461 51.6228 36.335 53.0099C36.2368 53.0799 36.1385 53.171 36.0542 53.2551C35.97 53.171 35.8717 53.0799 35.7735 53.0099C33.9554 51.6228 30.6912 52.0431 28.0589 53.199C26.8726 53.7174 25.8126 54.3829 25.0685 55.1045C24.7737 54.9924 24.4578 54.9224 24.0858 54.9224C24.0296 54.9224 23.9875 54.9364 23.9313 54.9364C23.2785 53.4512 21.8535 52.2323 20.4707 51.4407C20.4707 50.9993 20.3794 50.558 20.1829 50.1587C22.015 47.8259 24.5631 45.8994 26.1917 44.3372C27.8272 43.3915 30.0665 43.6226 31.9337 43.0132C31.9548 43.4545 31.9337 43.8888 31.8074 44.2811C31.674 44.7225 31.4213 44.9677 31.0984 45.1218H31.0843C31.0422 45.1358 31.0142 45.1568 30.9791 45.1708C30.9791 45.1708 30.958 45.1708 30.9369 45.1708C30.593 45.2899 30.1929 45.3179 29.7857 45.346C29.0416 45.5982 28.3397 46.1446 27.4833 47.2024C29.4207 48.7016 34.3204 49.9205 36.0472 52.4985C37.7249 49.9906 42.4 48.7716 44.4427 47.3285C44.4989 47.2865 44.555 47.2444 44.6112 47.2024C43.7548 46.1446 43.0458 45.5842 42.3017 45.346C41.9086 45.3179 41.5085 45.346 41.1856 45.1708C41.1645 45.1708 41.1365 45.1708 41.1154 45.1708C40.7434 45.0307 40.4415 44.7715 40.2871 44.2741C40.1607 43.8818 40.1467 43.4405 40.1607 43.0062C42.028 43.6156 44.2742 43.3845 45.9028 44.3302C47.5243 45.8924 50.0795 47.8189 51.9116 50.1517L51.9256 50.1587Z" fill="url(#paint28_radial_221_18)"/>
<path style="mix-blend-mode:overlay" d="M36.0683 52.4985C36.0543 52.7437 36.0543 52.9959 36.0613 53.2411C35.9771 53.164 35.8788 53.0729 35.7805 53.0029C35.1347 52.5055 34.3064 52.2463 33.3798 52.1692C31.7162 52.0081 29.7647 52.4494 28.066 53.192C26.8796 53.7104 25.8197 54.3759 25.0756 55.0975C24.7808 54.9854 24.4649 54.9153 24.0929 54.9153C24.0367 54.9153 23.9946 54.9294 23.9384 54.9294C23.2856 53.4442 21.8606 52.2253 20.4777 51.4337C20.4777 50.9923 20.3865 50.551 20.1899 50.1517C22.0221 47.8189 24.5702 45.8924 26.1987 44.3302C27.8343 43.3845 30.0736 43.6156 31.9408 43.0062C31.9619 43.4475 31.9408 43.8818 31.8144 44.2741C31.6811 44.7155 31.4284 44.9607 31.1055 45.1148H31.0914C31.0493 45.1288 31.0212 45.1498 30.9861 45.1638C30.9861 45.1638 30.9651 45.1638 30.944 45.1638C30.6001 45.2829 30.1999 45.3109 29.7928 45.339C29.5682 45.416 29.3435 45.5211 29.1189 45.6612C28.6065 45.9765 28.087 46.4598 27.4974 47.1954C29.4348 48.6946 34.3345 49.9135 36.0613 52.4915C36.0613 52.4915 36.0754 52.4845 36.0754 52.4775L36.0683 52.4985Z" fill="url(#paint29_radial_221_18)"/>
<g style="mix-blend-mode:overlay" opacity="0.3">
<path d="M33.499 52.1832C34.0817 52.0361 34.7836 52.0011 35.3452 52.2253C35.633 52.3374 35.8576 52.4354 36.0682 52.5615C36.0682 52.5405 36.0682 52.5195 36.0682 52.4985C36.0682 52.4985 36.0612 52.5055 36.0542 52.5125C34.3273 49.9345 29.4276 48.7156 27.4902 47.2164C28.0799 46.4808 28.5993 45.9975 29.1118 45.6822C28.3817 45.5351 26.1495 45.9554 25.8266 46.2707C25.8266 46.2707 25.6511 49.0518 24.6824 50.2217C27.0761 50.1937 28.824 49.9275 31.1124 50.9643C31.9126 51.3216 32.6707 51.6929 33.3727 52.1622C33.4148 52.1622 33.4499 52.1762 33.492 52.1762L33.499 52.1832Z" fill="white"/>
</g>
<path d="M36.5948 52.2533L35.977 52.6316L35.3944 52.2533H34.0186V70.9227H38.097V52.2533H36.5948Z" fill="#334652"/>
<path style="mix-blend-mode:multiply" opacity="0.7" d="M38.097 52.2603V70.9227H34.0186V52.2603H35.3944L35.977 52.6316L36.5948 52.2603H38.097Z" fill="url(#paint30_radial_221_18)"/>
<path d="M37.3038 66.3692C37.3038 67.0347 36.7633 67.5741 36.0894 67.5741C35.4155 67.5741 34.875 67.0347 34.875 66.3692C34.875 65.7037 35.4155 65.1572 36.0894 65.1572C36.7633 65.1572 37.3038 65.6967 37.3038 66.3692Z" fill="#F5F5F5"/>
<path d="M37.3038 59.8331C37.3038 60.4987 36.7633 61.0451 36.0894 61.0451C35.4155 61.0451 34.875 60.5057 34.875 59.8331C34.875 59.1606 35.4155 58.6212 36.0894 58.6212C36.7633 58.6212 37.3038 59.1606 37.3038 59.8331Z" fill="#F5F5F5"/>
<g style="mix-blend-mode:overlay" opacity="0.3">
<path d="M46.6819 14.1369C45.1235 14.5432 43.5652 14.9635 42.0068 15.3278C37.7178 16.3156 33.6464 15.9163 29.3293 15.0056C26.339 14.3891 23.7979 13.6605 21.0111 12.5046C20.7514 12.7568 20.5478 13.0371 20.4355 13.3593C19.6914 15.4819 19.5089 17.9478 19.7124 20.5118C18.8841 20.715 18.1471 21.3385 17.8312 22.053C17.782 22.1651 17.7469 22.2912 17.7189 22.4173C17.1362 21.5977 16.6449 20.75 16.2869 19.8743C18.3577 17.5135 18.7578 12.2875 17.045 10.0598C19.6001 7.19455 29.0977 12.8129 32.074 13.7026C34.4958 14.4241 36.6649 14.6693 39.2972 14.7954C40.5186 14.8515 41.8102 15.1317 43.0948 14.9916C44.4496 14.8515 45.4605 14.0388 46.6538 13.6816C46.724 13.8357 46.738 13.9828 46.6889 14.1229L46.6819 14.1369Z" fill="#1D1D1B"/>
</g>
<g style="mix-blend-mode:overlay" opacity="0.3">
<path d="M54.3685 19.517C54.3334 19.6431 54.2912 19.7692 54.2561 19.8953C54.2702 16.841 54.4106 13.8777 53.7227 10.8233L54.186 9.38023C55.7794 12.2104 55.1196 16.918 54.3685 19.5241V19.517Z" fill="white"/>
</g>
<g style="mix-blend-mode:overlay" opacity="0.3">
<path d="M51.9257 50.1587C51.7291 50.558 51.6379 50.9923 51.6379 51.4407C51.2869 51.6438 50.9289 51.875 50.5779 52.1342C48.6194 50.4249 46.8575 48.5684 44.4849 47.3705C44.4778 47.3705 44.4638 47.3565 44.4568 47.3565C44.5129 47.3145 44.5691 47.2724 44.6252 47.2304C43.7688 46.1726 43.0599 45.6122 42.3158 45.374C41.9227 45.346 41.5226 45.374 41.1997 45.1988C41.1786 45.1988 41.1505 45.1988 41.1295 45.1988C40.7574 45.0587 40.4556 44.7995 40.3011 44.3022C40.1748 43.9099 40.1608 43.4685 40.1748 43.0342C42.042 43.6436 44.2883 43.4125 45.9169 44.3582C47.5384 45.9204 50.0935 47.8469 51.9257 50.1797V50.1587Z" fill="white"/>
</g>
<g style="mix-blend-mode:overlay" opacity="0.3">
<path d="M38.0969 52.2603V70.9227H37.044C36.7773 69.5776 36.7773 67.6652 36.8194 66.9436C37.058 62.1239 37.0159 57.1711 37.0089 52.2603H38.0969Z" fill="white"/>
</g>
<g style="mix-blend-mode:overlay" opacity="0.6">
<path d="M56.313 75.6934C56.2288 75.7074 56.1375 75.7144 56.0462 75.7214C55.962 75.4552 55.5198 75.3921 55.1898 75.6303C54.544 76.0927 53.6455 76.5901 52.6558 77.0804C53.7649 74.6355 54.1158 71.1749 54.1158 69.0803C54.1158 66.8105 53.3858 62.8525 54.6915 60.947C54.6072 66.089 55.7935 70.8526 56.32 75.7004L56.313 75.6934Z" fill="#1D1D1B"/>
</g>
<g style="mix-blend-mode:overlay" opacity="0.6">
<path d="M19.4668 77.0664C18.4981 76.5901 17.6206 76.1067 16.9818 75.6583C16.9678 75.6443 16.9468 75.6303 16.9327 75.6233C16.6028 75.3851 16.1606 75.4482 16.0763 75.7144C15.9851 75.7144 15.8938 75.7004 15.8096 75.6934C16.3431 70.8386 17.5294 66.082 17.4381 60.933C18.7438 62.8455 18.0208 66.7965 18.0137 69.0662C18.0137 71.1679 18.3577 74.6145 19.4738 77.0594L19.4668 77.0664Z" fill="#1D1D1B"/>
</g>
<g style="mix-blend-mode:overlay" opacity="0.1">
<path d="M13.9002 57.5564C14.5039 60.5897 14.195 64.9681 15.7604 67.483C16.0763 63.2448 15.5779 57.1991 19.4878 54.3689C18.3155 52.6946 17.4381 50.0396 18.7016 48.1691C19.1368 47.5246 16.2798 47.8259 16.0973 47.8959C15.248 48.2392 14.2933 49.6473 13.9353 50.4179C12.9034 52.6316 13.4439 55.2656 13.9002 57.5494V57.5564Z" fill="white"/>
</g>
<g style="mix-blend-mode:overlay" opacity="0.1">
<path d="M54.9582 75.7844C54.3334 76.1977 53.5332 76.6391 52.6487 77.0734C50.0515 78.3484 46.7663 79.5673 45.4606 79.9596C42.744 80.7723 40.5118 80.9124 38.0198 80.9824C38.0198 81.0315 38.0198 81.0735 38.0058 81.1155C37.3249 81.0805 36.6861 81.0595 36.0543 81.0385C35.4366 81.0595 34.7838 81.0805 34.1099 81.1155C34.1029 81.0735 34.1029 81.0315 34.1029 80.9824C31.6039 80.9124 29.3716 80.7723 26.655 79.9596C24.858 79.4272 19.3476 77.3186 16.982 75.6583L16.3923 71.7703C17.4242 78.7127 30.3263 79.7145 35.4857 79.4483C43.088 79.07 47.7139 75.9666 54.3194 72.653C54.6985 73.7529 54.909 74.7827 54.9582 75.7844Z" fill="#1D1D1B"/>
</g>
<g style="mix-blend-mode:overlay" opacity="0.1">
<path d="M21.4535 46.635C19.6846 47.7979 16.5117 48.7926 15.6062 50.1517C13.3318 53.5353 12.1946 58.7123 10.9803 62.6143C10.4748 64.2185 10.0115 65.8648 9.19727 66.9856C9.53421 61.1922 10.517 55.3707 12.5948 49.9695C13.0089 49.255 13.4863 48.6105 14.0408 48.0921C16.1186 46.1936 18.8633 46.733 21.4535 46.635Z" fill="white"/>
</g>
<g style="mix-blend-mode:overlay" opacity="0.1">
<path d="M40.0484 56.7017C39.8448 63.4129 42.3719 69.7458 41.2347 76.569C45.1236 76.9473 50.4865 74.4324 51.7992 70.9857C53.1821 67.3639 52.452 62.9645 52.2625 59.0135C48.3245 59.9522 43.1651 53.0099 40.624 54.1447L40.0554 56.7017H40.0484Z" fill="white"/>
</g>
<g style="mix-blend-mode:overlay" opacity="0.1">
<path d="M29.863 76.2468C28.2134 74.5445 24.7808 74.9368 22.6469 73.886C20.7516 72.9542 20.9902 70.2572 20.8498 68.5058C20.6814 66.4532 20.6112 64.3796 20.204 62.3621C20.183 62.257 20.0215 62.257 20.0005 62.3621C19.2143 65.8227 17.7331 71.9315 20.548 74.8737C22.4363 76.8492 27.2307 78.2713 29.7648 77.0454C30.0666 76.8983 30.0807 76.471 29.863 76.2468Z" fill="white"/>
</g>
</g>
<defs>
<linearGradient id="paint0_linear_221_18" x1="74.2146" y1="68.0247" x2="176.363" y2="127.42" gradientUnits="userSpaceOnUse">
<stop stop-color="#7339BB"/>
<stop offset="1" stop-color="#1A0653"/>
</linearGradient>
<linearGradient id="paint1_linear_221_18" x1="116.615" y1="68.0246" x2="145.75" y2="131.259" gradientUnits="userSpaceOnUse">
<stop stop-color="#EE7F39"/>
<stop offset="1" stop-color="#FFD391"/>
</linearGradient>
<radialGradient id="paint2_radial_221_18" cx="0" cy="0" r="1" gradientUnits="userSpaceOnUse" gradientTransform="translate(36.4984 80.457) scale(29.4998 6.51327)">
<stop stop-color="#707070"/>
<stop offset="0.1" stop-color="#868686"/>
<stop offset="0.3" stop-color="#B1B1B1"/>
<stop offset="0.5" stop-color="#D3D3D3"/>
<stop offset="0.68" stop-color="#EBEBEB"/>
<stop offset="0.86" stop-color="#F9F9F9"/>
<stop offset="1" stop-color="white"/>
</radialGradient>
<radialGradient id="paint3_radial_221_18" cx="0" cy="0" r="1" gradientUnits="userSpaceOnUse" gradientTransform="translate(59.8158 20.5679) scale(49.4322 49.332)">
<stop offset="0.66" stop-color="white"/>
<stop offset="0.7" stop-color="#FBF7F7"/>
<stop offset="0.74" stop-color="#F2E2E2"/>
<stop offset="0.8" stop-color="#E3C0C0"/>
<stop offset="0.84" stop-color="#D9A9A9"/>
<stop offset="0.93" stop-color="#ECD6D6"/>
<stop offset="1" stop-color="white"/>
</radialGradient>
<radialGradient id="paint4_radial_221_18" cx="0" cy="0" r="1" gradientUnits="userSpaceOnUse" gradientTransform="translate(36.6298 68.8421) scale(33.0765 33.0095)">
<stop offset="0.66" stop-color="white"/>
<stop offset="0.7" stop-color="#FBF7F7"/>
<stop offset="0.74" stop-color="#F2E2E2"/>
<stop offset="0.8" stop-color="#E3C0C0"/>
<stop offset="0.84" stop-color="#D9A9A9"/>
<stop offset="0.93" stop-color="#ECD6D6"/>
<stop offset="1" stop-color="white"/>
</radialGradient>
<radialGradient id="paint5_radial_221_18" cx="0" cy="0" r="1" gradientUnits="userSpaceOnUse" gradientTransform="translate(42.5193 31.2931) scale(85.3166 85.1436)">
<stop offset="0.44" stop-color="white"/>
<stop offset="0.48" stop-color="#F8F8F8"/>
<stop offset="0.53" stop-color="#E4E4E4"/>
<stop offset="0.6" stop-color="#C5C5C5"/>
<stop offset="0.67" stop-color="#999999"/>
<stop offset="0.76" stop-color="#616161"/>
<stop offset="0.85" stop-color="#B5B5B5"/>
<stop offset="0.92" stop-color="#EAEAEA"/>
<stop offset="0.95" stop-color="white"/>
</radialGradient>
<radialGradient id="paint6_radial_221_18" cx="0" cy="0" r="1" gradientUnits="userSpaceOnUse" gradientTransform="translate(59.9982 65.8017) scale(58.4876 58.369)">
<stop offset="0.44" stop-color="white"/>
<stop offset="0.59" stop-color="#FCFCFC"/>
<stop offset="0.65" stop-color="#F5F5F5"/>
<stop offset="0.7" stop-color="#E9E9E9"/>
<stop offset="0.74" stop-color="#D7D7D7"/>
<stop offset="0.76" stop-color="#CCCCCC"/>
<stop offset="0.87" stop-color="#EAEAEA"/>
<stop offset="0.95" stop-color="white"/>
</radialGradient>
<radialGradient id="paint7_radial_221_18" cx="0" cy="0" r="1" gradientUnits="userSpaceOnUse" gradientTransform="translate(9.84326 69.2134) scale(58.4805 58.362)">
<stop offset="0.44" stop-color="white"/>
<stop offset="0.59" stop-color="#FCFCFC"/>
<stop offset="0.65" stop-color="#F5F5F5"/>
<stop offset="0.7" stop-color="#E9E9E9"/>
<stop offset="0.74" stop-color="#D7D7D7"/>
<stop offset="0.76" stop-color="#CCCCCC"/>
<stop offset="0.87" stop-color="#EAEAEA"/>
<stop offset="0.95" stop-color="white"/>
</radialGradient>
<radialGradient id="paint8_radial_221_18" cx="0" cy="0" r="1" gradientUnits="userSpaceOnUse" gradientTransform="translate(63.2764 8.93189) scale(14.2288 14.1999)">
<stop stop-color="white"/>
<stop offset="0.14" stop-color="#F8F8F8"/>
<stop offset="0.34" stop-color="#E5E5E5"/>
<stop offset="0.58" stop-color="#C6C6C6"/>
<stop offset="0.85" stop-color="#9B9B9B"/>
<stop offset="1" stop-color="#808080"/>
</radialGradient>
<radialGradient id="paint9_radial_221_18" cx="0" cy="0" r="1" gradientUnits="userSpaceOnUse" gradientTransform="translate(6.08034 26.2072) scale(18.4616 18.4242)">
<stop offset="0.66" stop-color="white"/>
<stop offset="0.7" stop-color="#FBF7F7"/>
<stop offset="0.74" stop-color="#F2E2E2"/>
<stop offset="0.8" stop-color="#E3C0C0"/>
<stop offset="0.84" stop-color="#D9A9A9"/>
<stop offset="0.93" stop-color="#ECD6D6"/>
<stop offset="1" stop-color="white"/>
</radialGradient>
<radialGradient id="paint10_radial_221_18" cx="0" cy="0" r="1" gradientUnits="userSpaceOnUse" gradientTransform="translate(66.0422 27.3491) scale(18.4616 18.4242)">
<stop offset="0.66" stop-color="white"/>
<stop offset="0.7" stop-color="#FBF7F7"/>
<stop offset="0.74" stop-color="#F2E2E2"/>
<stop offset="0.8" stop-color="#E3C0C0"/>
<stop offset="0.84" stop-color="#D9A9A9"/>
<stop offset="0.93" stop-color="#ECD6D6"/>
<stop offset="1" stop-color="white"/>
</radialGradient>
<radialGradient id="paint11_radial_221_18" cx="0" cy="0" r="1" gradientUnits="userSpaceOnUse" gradientTransform="translate(73.9672 12.0493) scale(68.7713 68.6319)">
<stop offset="0.66" stop-color="white"/>
<stop offset="0.7" stop-color="#FBF7F7"/>
<stop offset="0.74" stop-color="#F2E2E2"/>
<stop offset="0.8" stop-color="#E3C0C0"/>
<stop offset="0.84" stop-color="#D9A9A9"/>
<stop offset="0.93" stop-color="#ECD6D6"/>
<stop offset="1" stop-color="white"/>
</radialGradient>
<radialGradient id="paint12_radial_221_18" cx="0" cy="0" r="1" gradientUnits="userSpaceOnUse" gradientTransform="translate(37.1985 -29.3736) scale(48.0634 47.966)">
<stop offset="0.66" stop-color="white"/>
<stop offset="0.7" stop-color="#FBF7F7"/>
<stop offset="0.74" stop-color="#F2E2E2"/>
<stop offset="0.8" stop-color="#E3C0C0"/>
<stop offset="0.84" stop-color="#D9A9A9"/>
<stop offset="0.93" stop-color="#ECD6D6"/>
<stop offset="1" stop-color="white"/>
</radialGradient>
<radialGradient id="paint13_radial_221_18" cx="0" cy="0" r="1" gradientUnits="userSpaceOnUse" gradientTransform="translate(61.1355 28.0706) scale(23.6351 23.5872)">
<stop stop-color="white"/>
<stop offset="0.14" stop-color="#F8F8F8"/>
<stop offset="0.34" stop-color="#E5E5E5"/>
<stop offset="0.58" stop-color="#C6C6C6"/>
<stop offset="0.85" stop-color="#9B9B9B"/>
<stop offset="1" stop-color="#808080"/>
</radialGradient>
<radialGradient id="paint14_radial_221_18" cx="0" cy="0" r="1" gradientUnits="userSpaceOnUse" gradientTransform="translate(50.8797 -19.3771) scale(42.8759 42.789)">
<stop stop-color="white"/>
<stop offset="0.14" stop-color="#F8F8F8"/>
<stop offset="0.34" stop-color="#E5E5E5"/>
<stop offset="0.58" stop-color="#C6C6C6"/>
<stop offset="0.85" stop-color="#9B9B9B"/>
<stop offset="1" stop-color="#808080"/>
</radialGradient>
<radialGradient id="paint15_radial_221_18" cx="0" cy="0" r="1" gradientUnits="userSpaceOnUse" gradientTransform="translate(37.6267 -11.6921) scale(35.5895 35.5174)">
<stop offset="0.7" stop-color="white"/>
<stop offset="0.84" stop-color="#C78907"/>
<stop offset="0.87" stop-color="#D19E34"/>
<stop offset="0.94" stop-color="#EBD5A6"/>
<stop offset="1" stop-color="white"/>
</radialGradient>
<radialGradient id="paint16_radial_221_18" cx="0" cy="0" r="1" gradientUnits="userSpaceOnUse" gradientTransform="translate(-3.97878 32.8133) scale(31.3286 31.2651)">
<stop offset="0.7" stop-color="white"/>
<stop offset="0.84" stop-color="#C78907"/>
<stop offset="0.87" stop-color="#D19E34"/>
<stop offset="0.94" stop-color="#EBD5A6"/>
<stop offset="1" stop-color="white"/>
</radialGradient>
<linearGradient id="paint17_linear_221_18" x1="33.478" y1="13.9337" x2="42.5643" y2="-9.97394" gradientUnits="userSpaceOnUse">
<stop offset="0.16"/>
<stop offset="0.23" stop-color="#0A0A0A"/>
<stop offset="0.35" stop-color="#252525"/>
<stop offset="0.51" stop-color="#525252"/>
<stop offset="0.7" stop-color="#8F8F8F"/>
<stop offset="0.91" stop-color="#DDDDDD"/>
<stop offset="1" stop-color="white"/>
</linearGradient>
<radialGradient id="paint18_radial_221_18" cx="0" cy="0" r="1" gradientUnits="userSpaceOnUse" gradientTransform="translate(49.6443 25.8919) scale(18.6231 18.5853)">
<stop offset="0.7" stop-color="white"/>
<stop offset="0.84" stop-color="#C78907"/>
<stop offset="0.87" stop-color="#D19E34"/>
<stop offset="0.94" stop-color="#EBD5A6"/>
<stop offset="1" stop-color="white"/>
</radialGradient>
<radialGradient id="paint19_radial_221_18" cx="0" cy="0" r="1" gradientUnits="userSpaceOnUse" gradientTransform="translate(56.5797 29.3035) scale(13.8006 13.7726)">
<stop stop-color="white"/>
<stop offset="0.14" stop-color="#F8F8F8"/>
<stop offset="0.34" stop-color="#E5E5E5"/>
<stop offset="0.58" stop-color="#C6C6C6"/>
<stop offset="0.85" stop-color="#9B9B9B"/>
<stop offset="1" stop-color="#808080"/>
</radialGradient>
<radialGradient id="paint20_radial_221_18" cx="0" cy="0" r="1" gradientUnits="userSpaceOnUse" gradientTransform="translate(51.8696 33.5419) scale(6.25449 6.24181)">
<stop stop-color="white"/>
<stop offset="0.14" stop-color="#F8F8F8"/>
<stop offset="0.34" stop-color="#E5E5E5"/>
<stop offset="0.58" stop-color="#C6C6C6"/>
<stop offset="0.85" stop-color="#9B9B9B"/>
<stop offset="1" stop-color="#808080"/>
</radialGradient>
<radialGradient id="paint21_radial_221_18" cx="0" cy="0" r="1" gradientUnits="userSpaceOnUse" gradientTransform="translate(50.7675 33.8781) scale(8.36038 8.34343)">
<stop offset="0.7" stop-color="white"/>
<stop offset="0.84" stop-color="#C78907"/>
<stop offset="0.87" stop-color="#D19E34"/>
<stop offset="0.94" stop-color="#EBD5A6"/>
<stop offset="1" stop-color="white"/>
</radialGradient>
<radialGradient id="paint22_radial_221_18" cx="0" cy="0" r="1" gradientUnits="userSpaceOnUse" gradientTransform="translate(57.2116 33.9832) scale(7.79179 7.776)">
<stop offset="0.44" stop-color="white"/>
<stop offset="0.48" stop-color="#F8F8F8"/>
<stop offset="0.53" stop-color="#E4E4E4"/>
<stop offset="0.6" stop-color="#C5C5C5"/>
<stop offset="0.67" stop-color="#999999"/>
<stop offset="0.76" stop-color="#616161"/>
<stop offset="0.85" stop-color="#B5B5B5"/>
<stop offset="0.92" stop-color="#EAEAEA"/>
<stop offset="0.95" stop-color="white"/>
</radialGradient>
<radialGradient id="paint23_radial_221_18" cx="0" cy="0" r="1" gradientUnits="userSpaceOnUse" gradientTransform="translate(57.7731 35.1881) scale(3.58001 3.57276)">
<stop stop-color="white"/>
<stop offset="0.14" stop-color="#F8F8F8"/>
<stop offset="0.34" stop-color="#E5E5E5"/>
<stop offset="0.58" stop-color="#C6C6C6"/>
<stop offset="0.85" stop-color="#9B9B9B"/>
<stop offset="1" stop-color="#808080"/>
</radialGradient>
<radialGradient id="paint24_radial_221_18" cx="0" cy="0" r="1" gradientUnits="userSpaceOnUse" gradientTransform="translate(50.1148 33.8081) scale(7.32148 7.30663)">
<stop offset="0.7" stop-color="white"/>
<stop offset="0.84" stop-color="#C78907"/>
<stop offset="0.87" stop-color="#D19E34"/>
<stop offset="0.94" stop-color="#EBD5A6"/>
<stop offset="1" stop-color="white"/>
</radialGradient>
<radialGradient id="paint25_radial_221_18" cx="0" cy="0" r="1" gradientUnits="userSpaceOnUse" gradientTransform="translate(51.1606 36.344) scale(5.86841 5.85652)">
<stop stop-color="#DBFFA1"/>
<stop offset="1" stop-color="#808080"/>
</radialGradient>
<linearGradient id="paint26_linear_221_18" x1="28.8942" y1="27.0058" x2="28.8942" y2="21.2544" gradientUnits="userSpaceOnUse">
<stop offset="0.16"/>
<stop offset="0.23" stop-color="#0A0A0A"/>
<stop offset="0.35" stop-color="#252525"/>
<stop offset="0.51" stop-color="#525252"/>
<stop offset="0.7" stop-color="#8F8F8F"/>
<stop offset="0.91" stop-color="#DDDDDD"/>
<stop offset="1" stop-color="white"/>
</linearGradient>
<linearGradient id="paint27_linear_221_18" x1="43.3897" y1="28.3368" x2="43.3897" y2="21.2824" gradientUnits="userSpaceOnUse">
<stop offset="0.16"/>
<stop offset="0.23" stop-color="#0A0A0A"/>
<stop offset="0.35" stop-color="#252525"/>
<stop offset="0.51" stop-color="#525252"/>
<stop offset="0.7" stop-color="#8F8F8F"/>
<stop offset="0.91" stop-color="#DDDDDD"/>
<stop offset="1" stop-color="white"/>
</linearGradient>
<radialGradient id="paint28_radial_221_18" cx="0" cy="0" r="1" gradientUnits="userSpaceOnUse" gradientTransform="translate(53.9403 39.1042) scale(15.8924 15.8602)">
<stop stop-color="white"/>
<stop offset="0.14" stop-color="#F8F8F8"/>
<stop offset="0.34" stop-color="#E5E5E5"/>
<stop offset="0.58" stop-color="#C6C6C6"/>
<stop offset="0.85" stop-color="#9B9B9B"/>
<stop offset="1" stop-color="#808080"/>
</radialGradient>
<radialGradient id="paint29_radial_221_18" cx="0" cy="0" r="1" gradientUnits="userSpaceOnUse" gradientTransform="translate(36.6299 50.3058) scale(12.7968 12.7708)">
<stop stop-color="white"/>
<stop offset="0.14" stop-color="#F8F8F8"/>
<stop offset="0.34" stop-color="#E5E5E5"/>
<stop offset="0.58" stop-color="#C6C6C6"/>
<stop offset="0.85" stop-color="#9B9B9B"/>
<stop offset="1" stop-color="#808080"/>
</radialGradient>
<radialGradient id="paint30_radial_221_18" cx="0" cy="0" r="1" gradientUnits="userSpaceOnUse" gradientTransform="translate(36.6299 75.189) scale(29.6439 29.5838)">
<stop offset="0.44" stop-color="white"/>
<stop offset="0.48" stop-color="#F8FBFC"/>
<stop offset="0.53" stop-color="#E4F0F4"/>
<stop offset="0.6" stop-color="#C5DFE8"/>
<stop offset="0.67" stop-color="#99C6D7"/>
<stop offset="0.75" stop-color="#61A8C1"/>
<stop offset="0.76" stop-color="#61A8C1"/>
<stop offset="0.86" stop-color="#B5D6E2"/>
<stop offset="0.92" stop-color="#EAF3F7"/>
<stop offset="0.95" stop-color="white"/>
</radialGradient>
<clipPath id="clip0_221_18">
<rect width="59" height="83" fill="white" transform="translate(7)"/>
</clipPath>
</defs>
</svg>
